ISO-10303-21;
HEADER;
FILE_DESCRIPTION (( 'STEP AP214' ),
    '1' );
FILE_NAME ('DRV2624YFFR.STEP',
    '2023-10-11T06:50:11',
    ( '' ),
    ( '' ),
    'SwSTEP 2.0',
    'SolidWorks 2021',
    '' );
FILE_SCHEMA (( 'AUTOMOTIVE_DESIGN' ));
ENDSEC;

DATA;
#1 = CARTESIAN_POINT ( 'NONE',  ( 0.7340000000000022062, 0.2100000000000001310, 0.6655000000000012017 ) ) ;
#2 = LINE ( 'NONE', #203, #155 ) ;
#3 = DIRECTION ( 'NONE',  ( 0.000000000000000000, -0.000000000000000000, -1.000000000000000000 ) ) ;
#4 = CIRCLE ( 'NONE', #56, 0.09165151389911671553 ) ;
#5 = ADVANCED_FACE ( 'NONE', ( #338 ), #942, .F. ) ;
#6 = FACE_OUTER_BOUND ( 'NONE', #765, .T. ) ;
#7 = EDGE_LOOP ( 'NONE', ( #164, #939, #439 ) ) ;
#8 = FACE_OUTER_BOUND ( 'NONE', #576, .T. ) ;
#9 = DIRECTION ( 'NONE',  ( 0.000000000000000000, 0.000000000000000000, -1.000000000000000000 ) ) ;
#10 = ADVANCED_FACE ( 'NONE', ( #71 ), #163, .T. ) ;
#11 =( NAMED_UNIT ( * ) PLANE_ANGLE_UNIT ( ) SI_UNIT ( $, .RADIAN. ) );
#12 = UNCERTAINTY_MEASURE_WITH_UNIT (LENGTH_MEASURE( 1.000000000000000082E-05 ), #468, 'distance_accuracy_value', 'NONE');
#13 = PLANE ( 'NONE',  #933 ) ;
#14 = COLOUR_RGB ( '',0.7921568627450980005, 0.8196078431372548767, 0.9333333333333333481 ) ;
#15 = DIRECTION ( 'NONE',  ( 1.000000000000000000, 0.000000000000000000, 1.224646799147353207E-16 ) ) ;
#16 = EDGE_LOOP ( 'NONE', ( #72, #709, #1081 ) ) ;
#17 = VECTOR ( 'NONE', #387, 1000.000000000000000 ) ;
#18 = FACE_OUTER_BOUND ( 'NONE', #53, .T. ) ;
#19 = DIRECTION ( 'NONE',  ( -0.000000000000000000, 1.000000000000000000, -0.000000000000000000 ) ) ;
#20 = DIRECTION ( 'NONE',  ( 1.224646799147350495E-16, 0.000000000000000000, -1.000000000000000000 ) ) ;
#21 = PLANE ( 'NONE',  #685 ) ;
#22 = ORIENTED_EDGE ( 'NONE', *, *, #359, .T. ) ;
#23 = CARTESIAN_POINT ( 'NONE',  ( 7.047314121155778821E-16, 0.2100000000000001310, 0.09165151389911697921 ) ) ;
#24 = PRESENTATION_STYLE_ASSIGNMENT (( #780 ) ) ;
#25 = DIRECTION ( 'NONE',  ( 0.000000000000000000, 0.000000000000000000, 1.000000000000000000 ) ) ;
#26 = CARTESIAN_POINT ( 'NONE',  ( 0.4000000000000007438, 0.1250000000000000000, -0.3999999999999997446 ) ) ;
#27 = ADVANCED_FACE ( 'NONE', ( #770 ), #13, .T. ) ;
#28 = VERTEX_POINT ( 'NONE', #411 ) ;
#29 = CARTESIAN_POINT ( 'NONE',  ( 7.047314121155778821E-16, 0.2100000000000001310, -0.3999999999999997446 ) ) ;
#30 = LINE ( 'NONE', #111, #755 ) ;
#31 = AXIS2_PLACEMENT_3D ( 'NONE', #889, #668, #398 ) ;
#32 = AXIS2_PLACEMENT_3D ( 'NONE', #480, #1088, #808 ) ;
#33 = CARTESIAN_POINT ( 'NONE',  ( 0.000000000000000000, 0.000000000000000000, 0.000000000000000000 ) ) ;
#34 =( GEOMETRIC_REPRESENTATION_CONTEXT ( 3 ) GLOBAL_UNCERTAINTY_ASSIGNED_CONTEXT ( ( #828 ) ) GLOBAL_UNIT_ASSIGNED_CONTEXT ( ( #289, #448, #784 ) ) REPRESENTATION_CONTEXT ( 'NONE', 'WORKASPACE' ) );
#35 = ORIENTED_EDGE ( 'NONE', *, *, #874, .T. ) ;
#36 = CARTESIAN_POINT ( 'NONE',  ( -0.5504999999999984350, 0.5250000000000000222, -0.4819999999999997620 ) ) ;
#37 = SURFACE_STYLE_USAGE ( .BOTH. , #552 ) ;
#38 = DIRECTION ( 'NONE',  ( 1.224646799147350495E-16, 0.000000000000000000, -1.000000000000000000 ) ) ;
#39 = ORIENTED_EDGE ( 'NONE', *, *, #341, .F. ) ;
#40 = CARTESIAN_POINT ( 'NONE',  ( 0.4000000000000007438, 0.1250000000000000000, -0.3999999999999997446 ) ) ;
#41 = FACE_OUTER_BOUND ( 'NONE', #185, .T. ) ;
#42 = CIRCLE ( 'NONE', #211, 0.1250000000000000000 ) ;
#43 = ADVANCED_FACE ( 'NONE', ( #273 ), #192, .T. ) ;
#44 = CIRCLE ( 'NONE', #190, 0.06881249999999997091 ) ;
#45 = ORIENTED_EDGE ( 'NONE', *, *, #240, .T. ) ;
#46 = LINE ( 'NONE', #1060, #383 ) ;
#47 = EDGE_CURVE ( 'NONE', #318, #1058, #757, .T. ) ;
#48 = STYLED_ITEM ( 'NONE', ( #369 ), #859 ) ;
#49 = VERTEX_POINT ( 'NONE', #1 ) ;
#50 = VECTOR ( 'NONE', #370, 1000.000000000000000 ) ;
#51 = SURFACE_STYLE_USAGE ( .BOTH. , #707 ) ;
#52 = LINE ( 'NONE', #227, #17 ) ;
#53 = EDGE_LOOP ( 'NONE', ( #632, #413 ) ) ;
#54 = PLANE ( 'NONE',  #754 ) ;
#55 = MECHANICAL_DESIGN_GEOMETRIC_PRESENTATION_REPRESENTATION (  '', ( #497 ), #728 ) ;
#56 = AXIS2_PLACEMENT_3D ( 'NONE', #409, #749, #334 ) ;
#57 = ORIENTED_EDGE ( 'NONE', *, *, #435, .T. ) ;
#58 = EDGE_CURVE ( 'NONE', #1008, #932, #990, .T. ) ;
#59 = DIRECTION ( 'NONE',  ( 1.000000000000000000, 0.000000000000000000, -0.000000000000000000 ) ) ;
#60 = DIRECTION ( 'NONE',  ( 0.000000000000000000, 0.000000000000000000, 1.000000000000000000 ) ) ;
#61 = DIRECTION ( 'NONE',  ( -1.000000000000000000, 0.000000000000000000, 0.000000000000000000 ) ) ;
#62 = ORIENTED_EDGE ( 'NONE', *, *, #620, .T. ) ;
#63 = AXIS2_PLACEMENT_3D ( 'NONE', #792, #870, #445 ) ;
#64 = CARTESIAN_POINT ( 'NONE',  ( 7.159554854289340715E-16, 0.2100000000000001310, -0.4916515138991164879 ) ) ;
#65 = AXIS2_PLACEMENT_3D ( 'NONE', #157, #915, #819 ) ;
#66 = DIRECTION ( 'NONE',  ( 0.000000000000000000, 0.000000000000000000, 1.000000000000000000 ) ) ;
#67 = AXIS2_PLACEMENT_3D ( 'NONE', #501, #825, #680 ) ;
#68 = ORIENTED_EDGE ( 'NONE', *, *, #217, .F. ) ;
#69 = CARTESIAN_POINT ( 'NONE',  ( -0.5504999999999984350, 0.6250000000000000000, -0.4819999999999997620 ) ) ;
#70 = EDGE_CURVE ( 'NONE', #597, #592, #108, .T. ) ;
#71 = FACE_OUTER_BOUND ( 'NONE', #493, .T. ) ;
#72 = ORIENTED_EDGE ( 'NONE', *, *, #156, .F. ) ;
#73 = DIRECTION ( 'NONE',  ( 0.000000000000000000, 0.000000000000000000, 1.000000000000000000 ) ) ;
#74 = CARTESIAN_POINT ( 'NONE',  ( -0.7339999999999985425, 0.6250000000000000000, 0.6655000000000012017 ) ) ;
#75 = CARTESIAN_POINT ( 'NONE',  ( -0.3999999999999993006, 0.2100000000000001310, -0.3083484861008830014 ) ) ;
#76 = VERTEX_POINT ( 'NONE', #234 ) ;
#77 = DIRECTION ( 'NONE',  ( 1.000000000000000000, 0.000000000000000000, -0.000000000000000000 ) ) ;
#78 = CIRCLE ( 'NONE', #399, 0.09165151389911671553 ) ;
#79 = DIRECTION ( 'NONE',  ( -0.000000000000000000, 1.000000000000000000, 0.000000000000000000 ) ) ;
#80 = EDGE_LOOP ( 'NONE', ( #983, #681, #807, #291 ) ) ;
#81 = EDGE_CURVE ( 'NONE', #641, #597, #268, .T. ) ;
#82 = DIRECTION ( 'NONE',  ( 1.000000000000000000, 0.000000000000000000, -0.000000000000000000 ) ) ;
#83 = CARTESIAN_POINT ( 'NONE',  ( -0.5504999999999984350, 0.5250000000000000222, -0.4131874999999998188 ) ) ;
#84 = CARTESIAN_POINT ( 'NONE',  ( 0.000000000000000000, 0.6250000000000000000, 0.000000000000000000 ) ) ;
#85 = PRODUCT_DEFINITION_SHAPE ( 'NONE', 'NONE',  #314 ) ;
#86 = DIRECTION ( 'NONE',  ( -0.000000000000000000, 1.000000000000000000, -0.000000000000000000 ) ) ;
#87 = UNCERTAINTY_MEASURE_WITH_UNIT (LENGTH_MEASURE( 1.000000000000000082E-05 ), #969, 'distance_accuracy_value', 'NONE');
#88 = ORIENTED_EDGE ( 'NONE', *, *, #449, .F. ) ;
#89 = PRESENTATION_STYLE_ASSIGNMENT (( #260 ) ) ;
#90 = ADVANCED_FACE ( 'NONE', ( #310 ), #278, .T. ) ;
#91 = ORIENTED_EDGE ( 'NONE', *, *, #197, .F. ) ;
#92 = CARTESIAN_POINT ( 'NONE',  ( -0.7339999999999985425, 0.6250000000000000000, 0.6655000000000012017 ) ) ;
#93 = CARTESIAN_POINT ( 'NONE',  ( -0.7339999999999985425, 0.2100000000000001310, 0.6655000000000012017 ) ) ;
#94 = CIRCLE ( 'NONE', #239, 0.06881249999999997091 ) ;
#95 = SURFACE_STYLE_FILL_AREA ( #1031 ) ;
#96 = DIRECTION ( 'NONE',  ( 0.000000000000000000, 0.000000000000000000, 1.000000000000000000 ) ) ;
#97 = DIRECTION ( 'NONE',  ( -0.000000000000000000, 1.000000000000000000, -0.000000000000000000 ) ) ;
#98 = ORIENTED_EDGE ( 'NONE', *, *, #70, .T. ) ;
#99 = CARTESIAN_POINT ( 'NONE',  ( 0.4000000000000007438, 0.1250000000000000000, 0.4000000000000002998 ) ) ;
#100 = CARTESIAN_POINT ( 'NONE',  ( 0.7340000000000019842, 0.6250000000000000000, 0.6655000000000012017 ) ) ;
#101 = PRESENTATION_LAYER_ASSIGNMENT (  '', '', ( #486 ) ) ;
#102 = SURFACE_STYLE_FILL_AREA ( #861 ) ;
#103 = CIRCLE ( 'NONE', #967, 0.1250000000000000000 ) ;
#104 = AXIS2_PLACEMENT_3D ( 'NONE', #623, #19, #1014 ) ;
#105 = PRESENTATION_LAYER_ASSIGNMENT (  '', '', ( #141 ) ) ;
#106 = CARTESIAN_POINT ( 'NONE',  ( -0.3999999999999993006, 0.2100000000000001310, 0.09165151389911697921 ) ) ;
#107 = ORIENTED_EDGE ( 'NONE', *, *, #566, .T. ) ;
#108 = CIRCLE ( 'NONE', #1080, 0.09165151389911671553 ) ;
#109 = CARTESIAN_POINT ( 'NONE',  ( 0.4000000000000007438, 0.1250000000000000000, 0.4000000000000002998 ) ) ;
#110 = SURFACE_SIDE_STYLE ('',( #531 ) ) ;
#111 = CARTESIAN_POINT ( 'NONE',  ( -0.5504999999999984350, 0.5250000000000000222, -0.5508124999999998161 ) ) ;
#112 = ADVANCED_FACE ( 'NONE', ( #547 ), #1048, .T. ) ;
#113 = DIRECTION ( 'NONE',  ( 0.000000000000000000, 0.000000000000000000, 1.000000000000000000 ) ) ;
#114 = PRODUCT_CONTEXT ( 'NONE', #180, 'mechanical' ) ;
#115 = ORIENTED_EDGE ( 'NONE', *, *, #589, .T. ) ;
#116 = CARTESIAN_POINT ( 'NONE',  ( -0.5504999999999984350, 0.6250000000000000000, -0.4131874999999998188 ) ) ;
#117 = CARTESIAN_POINT ( 'NONE',  ( 0.4000000000000007438, 0.1250000000000000000, 2.710505431213761085E-16 ) ) ;
#118 = CARTESIAN_POINT ( 'NONE',  ( -0.3999999999999993006, 0.1250000000000000000, 2.710505431213761085E-16 ) ) ;
#119 = EDGE_CURVE ( 'NONE', #932, #888, #403, .T. ) ;
#120 = SURFACE_STYLE_FILL_AREA ( #206 ) ;
#121 = ORIENTED_EDGE ( 'NONE', *, *, #499, .T. ) ;
#122 = DIRECTION ( 'NONE',  ( 0.000000000000000000, 0.000000000000000000, 1.000000000000000000 ) ) ;
#123 = CARTESIAN_POINT ( 'NONE',  ( -0.7339999999999985425, 0.6250000000000000000, 0.6655000000000012017 ) ) ;
#124 = SURFACE_STYLE_FILL_AREA ( #873 ) ;
#125 = CIRCLE ( 'NONE', #320, 0.1250000000000000000 ) ;
#126 = EDGE_LOOP ( 'NONE', ( #848, #1065, #565 ) ) ;
#127 = EDGE_CURVE ( 'NONE', #803, #397, #52, .T. ) ;
#128 = PLANE ( 'NONE',  #63 ) ;
#129 =( NAMED_UNIT ( * ) SI_UNIT ( $, .STERADIAN. ) SOLID_ANGLE_UNIT ( ) );
#130 = CLOSED_SHELL ( 'NONE', ( #975, #1013, #989, #595 ) ) ;
#131 =( LENGTH_UNIT ( ) NAMED_UNIT ( * ) SI_UNIT ( .MILLI., .METRE. ) );
#132 = ORIENTED_EDGE ( 'NONE', *, *, #478, .T. ) ;
#133 = CARTESIAN_POINT ( 'NONE',  ( 0.7340000000000022062, 0.2100000000000001310, -0.6654999999999994253 ) ) ;
#134 = PRODUCT_RELATED_PRODUCT_CATEGORY ( 'part', '', ( #259 ) ) ;
#135 = EDGE_LOOP ( 'NONE', ( #372, #121, #748 ) ) ;
#136 = DIRECTION ( 'NONE',  ( 0.000000000000000000, 1.000000000000000000, 0.000000000000000000 ) ) ;
#137 = CIRCLE ( 'NONE', #299, 0.09165151389911671553 ) ;
#138 = MANIFOLD_SOLID_BREP ( 'LPattern1[8]', #789 ) ;
#139 = EDGE_LOOP ( 'NONE', ( #168, #462 ) ) ;
#140 = PRESENTATION_LAYER_ASSIGNMENT (  '', '', ( #1025 ) ) ;
#141 = STYLED_ITEM ( 'NONE', ( #629 ), #311 ) ;
#142 = AXIS2_PLACEMENT_3D ( 'NONE', #476, #804, #293 ) ;
#143 = EDGE_CURVE ( 'NONE', #906, #663, #834, .T. ) ;
#144 = ORIENTED_EDGE ( 'NONE', *, *, #212, .F. ) ;
#145 = PRESENTATION_STYLE_ASSIGNMENT (( #823 ) ) ;
#146 = DIRECTION ( 'NONE',  ( 0.000000000000000000, 0.000000000000000000, 1.000000000000000000 ) ) ;
#147 = LINE ( 'NONE', #1007, #1022 ) ;
#148 = EDGE_CURVE ( 'NONE', #896, #796, #125, .T. ) ;
#149 = MANIFOLD_SOLID_BREP ( 'LPattern1[1]', #179 ) ;
#150 = ORIENTED_EDGE ( 'NONE', *, *, #1006, .T. ) ;
#151 = FACE_OUTER_BOUND ( 'NONE', #135, .T. ) ;
#152 = DIRECTION ( 'NONE',  ( -1.000000000000000000, 0.000000000000000000, 0.000000000000000000 ) ) ;
#153 = ORIENTED_EDGE ( 'NONE', *, *, #127, .F. ) ;
#154 = FACE_OUTER_BOUND ( 'NONE', #698, .T. ) ;
#155 = VECTOR ( 'NONE', #182, 1000.000000000000000 ) ;
#156 = EDGE_CURVE ( 'NONE', #249, #1053, #694, .T. ) ;
#157 = CARTESIAN_POINT ( 'NONE',  ( -0.3999999999999993006, 0.1250000000000000000, -0.3999999999999997446 ) ) ;
#158 = COLOUR_RGB ( '',0.7921568627450980005, 0.8196078431372548767, 0.9333333333333333481 ) ;
#159 = VERTEX_POINT ( 'NONE', #1078 ) ;
#160 = CARTESIAN_POINT ( 'NONE',  ( 7.047314121155778821E-16, 0.2100000000000001310, -0.3083484861008830014 ) ) ;
#161 = DIRECTION ( 'NONE',  ( 0.000000000000000000, 0.000000000000000000, 1.000000000000000000 ) ) ;
#162 = EDGE_CURVE ( 'NONE', #592, #597, #78, .T. ) ;
#163 = SPHERICAL_SURFACE ( 'NONE', #67, 0.1250000000000000000 ) ;
#164 = ORIENTED_EDGE ( 'NONE', *, *, #353, .F. ) ;
#165 = DIRECTION ( 'NONE',  ( 0.000000000000000000, -1.000000000000000000, 0.000000000000000000 ) ) ;
#166 = FACE_OUTER_BOUND ( 'NONE', #16, .T. ) ;
#167 = ADVANCED_FACE ( 'NONE', ( #326 ), #746, .F. ) ;
#168 = ORIENTED_EDGE ( 'NONE', *, *, #294, .T. ) ;
#169 = EDGE_LOOP ( 'NONE', ( #302, #482, #951, #562 ) ) ;
#170 = PLANE ( 'NONE',  #764 ) ;
#171 = COLOUR_RGB ( '',0.7921568627450980005, 0.8196078431372548767, 0.9333333333333333481 ) ;
#172 = FACE_BOUND ( 'NONE', #833, .T. ) ;
#173 = AXIS2_PLACEMENT_3D ( 'NONE', #584, #251, #321 ) ;
#174 = MECHANICAL_DESIGN_GEOMETRIC_PRESENTATION_REPRESENTATION (  '', ( #264 ), #877 ) ;
#175 = FACE_OUTER_BOUND ( 'NONE', #348, .T. ) ;
#176 = AXIS2_PLACEMENT_3D ( 'NONE', #769, #262, #351 ) ;
#177 = ORIENTED_EDGE ( 'NONE', *, *, #546, .F. ) ;
#178 = EDGE_CURVE ( 'NONE', #705, #916, #574, .T. ) ;
#179 = CLOSED_SHELL ( 'NONE', ( #786, #579, #944 ) ) ;
#180 = APPLICATION_CONTEXT ( 'automotive_design' ) ;
#181 = ORIENTED_EDGE ( 'NONE', *, *, #563, .T. ) ;
#182 = DIRECTION ( 'NONE',  ( 0.000000000000000000, 1.000000000000000000, 0.000000000000000000 ) ) ;
#183 = DIRECTION ( 'NONE',  ( -0.000000000000000000, 1.000000000000000000, -0.000000000000000000 ) ) ;
#184 = FILL_AREA_STYLE_COLOUR ( '', #722 ) ;
#185 = EDGE_LOOP ( 'NONE', ( #649, #430, #922, #994 ) ) ;
#186 = CARTESIAN_POINT ( 'NONE',  ( -0.5504999999999984350, 0.6250000000000000000, -0.4131874999999998188 ) ) ;
#187 = ORIENTED_EDGE ( 'NONE', *, *, #874, .F. ) ;
#188 = DIRECTION ( 'NONE',  ( -0.000000000000000000, -0.000000000000000000, 1.000000000000000000 ) ) ;
#189 = DIRECTION ( 'NONE',  ( -1.000000000000000000, 0.000000000000000000, 0.000000000000000000 ) ) ;
#190 = AXIS2_PLACEMENT_3D ( 'NONE', #344, #97, #692 ) ;
#191 = CARTESIAN_POINT ( 'NONE',  ( 7.047314121155778821E-16, 0.1250000000000000000, 0.4000000000000002998 ) ) ;
#192 = PLANE ( 'NONE',  #741 ) ;
#193 = PLANE ( 'NONE',  #664 ) ;
#194 = EDGE_LOOP ( 'NONE', ( #283, #57, #444, #115 ) ) ;
#195 = CARTESIAN_POINT ( 'NONE',  ( 7.047314121155778821E-16, 0.2100000000000001310, 2.710505431213761085E-16 ) ) ;
#196 = CARTESIAN_POINT ( 'NONE',  ( -0.5504999999999984350, 0.5250000000000000222, -0.4819999999999997620 ) ) ;
#197 = EDGE_CURVE ( 'NONE', #896, #159, #1062, .T. ) ;
#198 = AXIS2_PLACEMENT_3D ( 'NONE', #40, #1059, #452 ) ;
#199 = STYLED_ITEM ( 'NONE', ( #571 ), #149 ) ;
#200 = CIRCLE ( 'NONE', #1090, 0.09165151389911671553 ) ;
#201 =( NAMED_UNIT ( * ) PLANE_ANGLE_UNIT ( ) SI_UNIT ( $, .RADIAN. ) );
#202 = VERTEX_POINT ( 'NONE', #100 ) ;
#203 = CARTESIAN_POINT ( 'NONE',  ( -0.7339999999999985425, -1.981561253153685254, -0.6654999999999994253 ) ) ;
#204 = EDGE_CURVE ( 'NONE', #159, #796, #513, .T. ) ;
#205 = PRESENTATION_STYLE_ASSIGNMENT (( #978 ) ) ;
#206 = FILL_AREA_STYLE ('',( #221 ) ) ;
#207 = ORIENTED_EDGE ( 'NONE', *, *, #920, .T. ) ;
#208 = PRODUCT_DEFINITION_FORMATION_WITH_SPECIFIED_SOURCE ( 'ANY', '', #259, .NOT_KNOWN. ) ;
#209 =( NAMED_UNIT ( * ) PLANE_ANGLE_UNIT ( ) SI_UNIT ( $, .RADIAN. ) );
#210 = DIRECTION ( 'NONE',  ( 0.000000000000000000, 0.000000000000000000, 1.000000000000000000 ) ) ;
#211 = AXIS2_PLACEMENT_3D ( 'NONE', #855, #15, #598 ) ;
#212 = EDGE_CURVE ( 'NONE', #906, #696, #1026, .T. ) ;
#213 = EDGE_LOOP ( 'NONE', ( #1087, #958 ) ) ;
#214 = DIRECTION ( 'NONE',  ( -0.000000000000000000, 1.000000000000000000, -0.000000000000000000 ) ) ;
#215 = CIRCLE ( 'NONE', #671, 0.09165151389911671553 ) ;
#216 = AXIS2_PLACEMENT_3D ( 'NONE', #422, #427, #924 ) ;
#217 = EDGE_CURVE ( 'NONE', #803, #49, #523, .T. ) ;
#218 = APPLICATION_PROTOCOL_DEFINITION ( 'draft international standard', 'automotive_design', 1998, #459 ) ;
#219 = CARTESIAN_POINT ( 'NONE',  ( -0.3999999999999993006, 0.000000000000000000, 0.4000000000000002998 ) ) ;
#220 = AXIS2_PLACEMENT_3D ( 'NONE', #799, #443, #653 ) ;
#221 = FILL_AREA_STYLE_COLOUR ( '', #1011 ) ;
#222 = ORIENTED_EDGE ( 'NONE', *, *, #359, .F. ) ;
#223 = DIRECTION ( 'NONE',  ( 0.000000000000000000, 0.000000000000000000, 1.000000000000000000 ) ) ;
#224 = FILL_AREA_STYLE_COLOUR ( '', #914 ) ;
#225 = ORIENTED_EDGE ( 'NONE', *, *, #1023, .F. ) ;
#226 = FACE_OUTER_BOUND ( 'NONE', #431, .T. ) ;
#227 = CARTESIAN_POINT ( 'NONE',  ( 0.7340000000000019842, -1.981561253153685254, -0.6654999999999994253 ) ) ;
#228 =( GEOMETRIC_REPRESENTATION_CONTEXT ( 3 ) GLOBAL_UNCERTAINTY_ASSIGNED_CONTEXT ( ( #750 ) ) GLOBAL_UNIT_ASSIGNED_CONTEXT ( ( #813, #659, #231 ) ) REPRESENTATION_CONTEXT ( 'NONE', 'WORKASPACE' ) );
#229 = ORIENTED_EDGE ( 'NONE', *, *, #920, .F. ) ;
#230 =( GEOMETRIC_REPRESENTATION_CONTEXT ( 3 ) GLOBAL_UNCERTAINTY_ASSIGNED_CONTEXT ( ( #272 ) ) GLOBAL_UNIT_ASSIGNED_CONTEXT ( ( #702, #11, #271 ) ) REPRESENTATION_CONTEXT ( 'NONE', 'WORKASPACE' ) );
#231 =( NAMED_UNIT ( * ) SI_UNIT ( $, .STERADIAN. ) SOLID_ANGLE_UNIT ( ) );
#232 = DIRECTION ( 'NONE',  ( 1.000000000000000000, 0.000000000000000000, -0.000000000000000000 ) ) ;
#233 =( GEOMETRIC_REPRESENTATION_CONTEXT ( 3 ) GLOBAL_UNCERTAINTY_ASSIGNED_CONTEXT ( ( #258 ) ) GLOBAL_UNIT_ASSIGNED_CONTEXT ( ( #805, #1073, #820 ) ) REPRESENTATION_CONTEXT ( 'NONE', 'WORKASPACE' ) );
#234 = CARTESIAN_POINT ( 'NONE',  ( -0.3999999999999993006, 0.2100000000000001310, -0.09165151389911643798 ) ) ;
#235 = EDGE_CURVE ( 'NONE', #475, #507, #362, .T. ) ;
#236 = EDGE_LOOP ( 'NONE', ( #384, #1028, #526 ) ) ;
#237 = CARTESIAN_POINT ( 'NONE',  ( -0.5504999999999984350, 0.1153688584784028637, -0.5508124999999998161 ) ) ;
#238 = AXIS2_PLACEMENT_3D ( 'NONE', #69, #405, #1084 ) ;
#239 = AXIS2_PLACEMENT_3D ( 'NONE', #913, #494, #73 ) ;
#240 = EDGE_CURVE ( 'NONE', #1049, #28, #657, .T. ) ;
#241 = ORIENTED_EDGE ( 'NONE', *, *, #58, .T. ) ;
#242 = DIRECTION ( 'NONE',  ( 0.000000000000000000, 1.000000000000000000, 0.000000000000000000 ) ) ;
#243 = CARTESIAN_POINT ( 'NONE',  ( -0.3999999999999993006, 0.2100000000000001310, 0.3083484861008835565 ) ) ;
#244 = VERTEX_POINT ( 'NONE', #446 ) ;
#245 = EDGE_CURVE ( 'NONE', #202, #397, #614, .T. ) ;
#246 = CIRCLE ( 'NONE', #1089, 0.09165151389911671553 ) ;
#247 = CIRCLE ( 'NONE', #854, 0.09165151389911671553 ) ;
#248 =( GEOMETRIC_REPRESENTATION_CONTEXT ( 3 ) GLOBAL_UNCERTAINTY_ASSIGNED_CONTEXT ( ( #515 ) ) GLOBAL_UNIT_ASSIGNED_CONTEXT ( ( #891, #374, #717 ) ) REPRESENTATION_CONTEXT ( 'NONE', 'WORKASPACE' ) );
#249 = VERTEX_POINT ( 'NONE', #925 ) ;
#250 = FACE_OUTER_BOUND ( 'NONE', #729, .T. ) ;
#251 = DIRECTION ( 'NONE',  ( 0.000000000000000000, 1.000000000000000000, 0.000000000000000000 ) ) ;
#252 = ORIENTED_EDGE ( 'NONE', *, *, #901, .F. ) ;
#253 =( NAMED_UNIT ( * ) SI_UNIT ( $, .STERADIAN. ) SOLID_ANGLE_UNIT ( ) );
#254 = CARTESIAN_POINT ( 'NONE',  ( 0.4000000000000007438, 0.000000000000000000, -0.3999999999999997446 ) ) ;
#255 = DIRECTION ( 'NONE',  ( 0.000000000000000000, 0.000000000000000000, -1.000000000000000000 ) ) ;
#256 = EDGE_CURVE ( 'NONE', #1008, #888, #335, .T. ) ;
#257 = DIRECTION ( 'NONE',  ( 0.000000000000000000, 0.000000000000000000, 1.000000000000000000 ) ) ;
#258 = UNCERTAINTY_MEASURE_WITH_UNIT (LENGTH_MEASURE( 1.000000000000000082E-05 ), #805, 'distance_accuracy_value', 'NONE');
#259 = PRODUCT ( 'DRV2624YFFR', 'DRV2624YFFR', '', ( #114 ) ) ;
#260 = SURFACE_STYLE_USAGE ( .BOTH. , #697 ) ;
#261 = CARTESIAN_POINT ( 'NONE',  ( -0.3999999999999993006, 0.2100000000000001310, -0.4916515138991164879 ) ) ;
#262 = DIRECTION ( 'NONE',  ( 1.000000000000000000, 0.000000000000000000, -0.000000000000000000 ) ) ;
#263 = CIRCLE ( 'NONE', #65, 0.1250000000000000000 ) ;
#264 = STYLED_ITEM ( 'NONE', ( #648 ), #524 ) ;
#265 = SURFACE_SIDE_STYLE ('',( #95 ) ) ;
#266 = MECHANICAL_DESIGN_GEOMETRIC_PRESENTATION_REPRESENTATION (  '', ( #141 ), #539 ) ;
#267 = ORIENTED_EDGE ( 'NONE', *, *, #993, .T. ) ;
#268 = CIRCLE ( 'NONE', #881, 0.1250000000000000000 ) ;
#269 = DIRECTION ( 'NONE',  ( 0.000000000000000000, 0.000000000000000000, 1.000000000000000000 ) ) ;
#270 = EDGE_LOOP ( 'NONE', ( #91, #1004, #968 ) ) ;
#271 =( NAMED_UNIT ( * ) SI_UNIT ( $, .STERADIAN. ) SOLID_ANGLE_UNIT ( ) );
#272 = UNCERTAINTY_MEASURE_WITH_UNIT (LENGTH_MEASURE( 1.000000000000000082E-05 ), #702, 'distance_accuracy_value', 'NONE');
#273 = FACE_OUTER_BOUND ( 'NONE', #1069, .T. ) ;
#274 = ADVANCED_FACE ( 'NONE', ( #172, #512 ), #946, .F. ) ;
#275 = CARTESIAN_POINT ( 'NONE',  ( 0.000000000000000000, 0.3099999999999999978, 0.000000000000000000 ) ) ;
#276 = SPHERICAL_SURFACE ( 'NONE', #1002, 0.1250000000000000000 ) ;
#277 = DIRECTION ( 'NONE',  ( -1.000000000000000000, 0.000000000000000000, 0.000000000000000000 ) ) ;
#278 = SPHERICAL_SURFACE ( 'NONE', #818, 0.1250000000000000000 ) ;
#279 = DIRECTION ( 'NONE',  ( 1.000000000000000000, 0.000000000000000000, 1.224646799147353207E-16 ) ) ;
#280 = CIRCLE ( 'NONE', #986, 0.1250000000000000000 ) ;
#281 = CIRCLE ( 'NONE', #673, 0.1250000000000000000 ) ;
#282 = DIRECTION ( 'NONE',  ( -1.000000000000000000, 0.000000000000000000, 0.000000000000000000 ) ) ;
#283 = ORIENTED_EDGE ( 'NONE', *, *, #217, .T. ) ;
#284 = CIRCLE ( 'NONE', #336, 0.1250000000000000000 ) ;
#285 = ORIENTED_EDGE ( 'NONE', *, *, #654, .T. ) ;
#286 = CARTESIAN_POINT ( 'NONE',  ( -0.3999999999999993006, 0.2100000000000001310, 2.710505431213761085E-16 ) ) ;
#287 = FILL_AREA_STYLE_COLOUR ( '', #560 ) ;
#288 = ADVANCED_FACE ( 'NONE', ( #688 ), #428, .T. ) ;
#289 =( LENGTH_UNIT ( ) NAMED_UNIT ( * ) SI_UNIT ( .MILLI., .METRE. ) );
#290 =( GEOMETRIC_REPRESENTATION_CONTEXT ( 3 ) GLOBAL_UNCERTAINTY_ASSIGNED_CONTEXT ( ( #1021 ) ) GLOBAL_UNIT_ASSIGNED_CONTEXT ( ( #355, #360, #253 ) ) REPRESENTATION_CONTEXT ( 'NONE', 'WORKASPACE' ) );
#291 = ORIENTED_EDGE ( 'NONE', *, *, #1094, .T. ) ;
#292 = SURFACE_STYLE_FILL_AREA ( #1050 ) ;
#293 = DIRECTION ( 'NONE',  ( 0.000000000000000000, 0.000000000000000000, 1.000000000000000000 ) ) ;
#294 = EDGE_CURVE ( 'NONE', #888, #932, #200, .T. ) ;
#295 = ORIENTED_EDGE ( 'NONE', *, *, #204, .T. ) ;
#296 = FILL_AREA_STYLE ('',( #715 ) ) ;
#297 = DIRECTION ( 'NONE',  ( 0.000000000000000000, 0.000000000000000000, 1.000000000000000000 ) ) ;
#298 = PLANE ( 'NONE',  #396 ) ;
#299 = AXIS2_PLACEMENT_3D ( 'NONE', #683, #1012, #934 ) ;
#300 = AXIS2_PLACEMENT_3D ( 'NONE', #687, #613, #940 ) ;
#301 = AXIS2_PLACEMENT_3D ( 'NONE', #196, #850, #537 ) ;
#302 = ORIENTED_EDGE ( 'NONE', *, *, #245, .T. ) ;
#303 = CLOSED_SHELL ( 'NONE', ( #90, #10, #1056 ) ) ;
#304 = PRESENTATION_STYLE_ASSIGNMENT (( #1063 ) ) ;
#305 = MANIFOLD_SOLID_BREP ( 'LPattern1[5]', #660 ) ;
#306 = EDGE_LOOP ( 'NONE', ( #550, #181, #1009 ) ) ;
#307 = EDGE_CURVE ( 'NONE', #475, #586, #46, .T. ) ;
#308 = CARTESIAN_POINT ( 'NONE',  ( -0.7339999999999985425, -1.981561253153685254, 0.6655000000000012017 ) ) ;
#309 = FACE_OUTER_BOUND ( 'NONE', #521, .T. ) ;
#310 = FACE_OUTER_BOUND ( 'NONE', #7, .T. ) ;
#311 = MANIFOLD_SOLID_BREP ( 'Combine1', #973 ) ;
#312 = DIRECTION ( 'NONE',  ( 0.000000000000000000, 0.000000000000000000, -1.000000000000000000 ) ) ;
#313 = CARTESIAN_POINT ( 'NONE',  ( 0.4000000000000007438, 0.1250000000000000000, -0.3999999999999997446 ) ) ;
#314 = PRODUCT_DEFINITION ( 'UNKNOWN', '', #208, #337 ) ;
#315 = DIRECTION ( 'NONE',  ( -0.000000000000000000, 1.000000000000000000, -0.000000000000000000 ) ) ;
#316 = SURFACE_STYLE_FILL_AREA ( #1068 ) ;
#317 = CIRCLE ( 'NONE', #1076, 0.09165151389911671553 ) ;
#318 = VERTEX_POINT ( 'NONE', #642 ) ;
#319 = CARTESIAN_POINT ( 'NONE',  ( 7.047314121155778821E-16, 0.2100000000000001310, -0.3083484861008830014 ) ) ;
#320 = AXIS2_PLACEMENT_3D ( 'NONE', #886, #437, #470 ) ;
#321 = DIRECTION ( 'NONE',  ( 0.000000000000000000, 0.000000000000000000, 1.000000000000000000 ) ) ;
#322 = EDGE_CURVE ( 'NONE', #586, #202, #607, .T. ) ;
#323 = ORIENTED_EDGE ( 'NONE', *, *, #602, .F. ) ;
#324 = SPHERICAL_SURFACE ( 'NONE', #472, 0.1250000000000000000 ) ;
#325 = DIRECTION ( 'NONE',  ( 1.000000000000000000, -0.000000000000000000, 0.000000000000000000 ) ) ;
#326 = FACE_OUTER_BOUND ( 'NONE', #194, .T. ) ;
#327 = CIRCLE ( 'NONE', #900, 0.06881249999999997091 ) ;
#328 = ADVANCED_FACE ( 'NONE', ( #41 ), #54, .T. ) ;
#329 = ORIENTED_EDGE ( 'NONE', *, *, #143, .F. ) ;
#330 = DIRECTION ( 'NONE',  ( -0.000000000000000000, 1.000000000000000000, -0.000000000000000000 ) ) ;
#331 = CARTESIAN_POINT ( 'NONE',  ( -0.5504999999999984350, 0.6250000000000000000, -0.5508124999999998161 ) ) ;
#332 = ORIENTED_EDGE ( 'NONE', *, *, #759, .F. ) ;
#333 = ORIENTED_EDGE ( 'NONE', *, *, #47, .F. ) ;
#334 = DIRECTION ( 'NONE',  ( 0.000000000000000000, 0.000000000000000000, 1.000000000000000000 ) ) ;
#335 = CIRCLE ( 'NONE', #490, 0.1250000000000000000 ) ;
#336 = AXIS2_PLACEMENT_3D ( 'NONE', #726, #647, #223 ) ;
#337 = PRODUCT_DEFINITION_CONTEXT ( 'detailed design', #459, 'design' ) ;
#338 = FACE_OUTER_BOUND ( 'NONE', #782, .T. ) ;
#339 = ORIENTED_EDGE ( 'NONE', *, *, #341, .T. ) ;
#340 = DIRECTION ( 'NONE',  ( 0.000000000000000000, 0.000000000000000000, -1.000000000000000000 ) ) ;
#341 = EDGE_CURVE ( 'NONE', #605, #518, #417, .T. ) ;
#342 = CARTESIAN_POINT ( 'NONE',  ( 0.4000000000000007438, 0.2100000000000001310, -0.09165151389911643798 ) ) ;
#343 = CARTESIAN_POINT ( 'NONE',  ( 7.047314121155778821E-16, 0.1250000000000000000, -0.3999999999999997446 ) ) ;
#344 = CARTESIAN_POINT ( 'NONE',  ( -0.5504999999999984350, 0.3099999999999999978, -0.4819999999999997620 ) ) ;
#345 = DIRECTION ( 'NONE',  ( 0.000000000000000000, -0.000000000000000000, 1.000000000000000000 ) ) ;
#346 = DIRECTION ( 'NONE',  ( -0.000000000000000000, 0.000000000000000000, 1.000000000000000000 ) ) ;
#347 = CARTESIAN_POINT ( 'NONE',  ( -0.5504999999999984350, 0.6250000000000000000, -0.5508124999999998161 ) ) ;
#348 = EDGE_LOOP ( 'NONE', ( #144, #822, #672 ) ) ;
#349 = CIRCLE ( 'NONE', #655, 0.06881249999999997091 ) ;
#350 = DIRECTION ( 'NONE',  ( -0.000000000000000000, 1.000000000000000000, -0.000000000000000000 ) ) ;
#351 = DIRECTION ( 'NONE',  ( 0.000000000000000000, 0.000000000000000000, 1.000000000000000000 ) ) ;
#352 = AXIS2_PLACEMENT_3D ( 'NONE', #109, #530, #842 ) ;
#353 = EDGE_CURVE ( 'NONE', #375, #518, #284, .T. ) ;
#354 = CLOSED_SHELL ( 'NONE', ( #907, #483, #630 ) ) ;
#355 =( LENGTH_UNIT ( ) NAMED_UNIT ( * ) SI_UNIT ( .MILLI., .METRE. ) );
#356 = PLANE ( 'NONE',  #771 ) ;
#357 = DIRECTION ( 'NONE',  ( 0.000000000000000000, 0.000000000000000000, 1.000000000000000000 ) ) ;
#358 = CARTESIAN_POINT ( 'NONE',  ( 7.047314121155778821E-16, 0.1250000000000000000, 0.4000000000000002998 ) ) ;
#359 = EDGE_CURVE ( 'NONE', #567, #812, #575, .T. ) ;
#360 =( NAMED_UNIT ( * ) PLANE_ANGLE_UNIT ( ) SI_UNIT ( $, .RADIAN. ) );
#361 = CARTESIAN_POINT ( 'NONE',  ( -0.5504999999999984350, 0.5250000000000000222, -0.4819999999999997620 ) ) ;
#362 = LINE ( 'NONE', #93, #911 ) ;
#363 = CARTESIAN_POINT ( 'NONE',  ( -0.7339999999999985425, 0.2100000000000001310, 0.6655000000000012017 ) ) ;
#364 = CARTESIAN_POINT ( 'NONE',  ( -0.7339999999999985425, 0.2100000000000001310, -0.6654999999999994253 ) ) ;
#365 = CIRCLE ( 'NONE', #104, 0.09165151389911671553 ) ;
#366 = CARTESIAN_POINT ( 'NONE',  ( 7.047314121155778821E-16, 0.1250000000000000000, 2.710505431213761085E-16 ) ) ;
#367 = AXIS2_PLACEMENT_3D ( 'NONE', #540, #61, #736 ) ;
#368 = ORIENTED_EDGE ( 'NONE', *, *, #197, .T. ) ;
#369 = PRESENTATION_STYLE_ASSIGNMENT (( #976 ) ) ;
#370 = DIRECTION ( 'NONE',  ( 1.000000000000000000, 0.000000000000000000, 0.000000000000000000 ) ) ;
#371 = ADVANCED_FACE ( 'NONE', ( #226 ), #635, .T. ) ;
#372 = ORIENTED_EDGE ( 'NONE', *, *, #240, .F. ) ;
#373 = FACE_OUTER_BOUND ( 'NONE', #425, .T. ) ;
#374 =( NAMED_UNIT ( * ) PLANE_ANGLE_UNIT ( ) SI_UNIT ( $, .RADIAN. ) );
#375 = VERTEX_POINT ( 'NONE', #219 ) ;
#376 = CARTESIAN_POINT ( 'NONE',  ( -0.3999999999999993006, 0.2100000000000001310, 2.710505431213761085E-16 ) ) ;
#377 =( LENGTH_UNIT ( ) NAMED_UNIT ( * ) SI_UNIT ( .MILLI., .METRE. ) );
#378 = MECHANICAL_DESIGN_GEOMETRIC_PRESENTATION_REPRESENTATION (  '', ( #48 ), #966 ) ;
#379 = AXIS2_PLACEMENT_3D ( 'NONE', #578, #152, #899 ) ;
#380 = ADVANCED_FACE ( 'NONE', ( #885 ), #1051, .T. ) ;
#381 = STYLED_ITEM ( 'NONE', ( #844 ), #495 ) ;
#382 = CIRCLE ( 'NONE', #971, 0.06881249999999997091 ) ;
#383 = VECTOR ( 'NONE', #965, 1000.000000000000000 ) ;
#384 = ORIENTED_EDGE ( 'NONE', *, *, #675, .F. ) ;
#385 = DIRECTION ( 'NONE',  ( -0.000000000000000000, 1.000000000000000000, -0.000000000000000000 ) ) ;
#386 = FILL_AREA_STYLE ('',( #469 ) ) ;
#387 = DIRECTION ( 'NONE',  ( 0.000000000000000000, 1.000000000000000000, 0.000000000000000000 ) ) ;
#388 = ORIENTED_EDGE ( 'NONE', *, *, #589, .F. ) ;
#389 = DIRECTION ( 'NONE',  ( 1.000000000000000000, 0.000000000000000000, 1.224646799147353207E-16 ) ) ;
#390 = AXIS2_PLACEMENT_3D ( 'NONE', #33, #876, #456 ) ;
#391 = CARTESIAN_POINT ( 'NONE',  ( 0.4000000000000007438, 0.2100000000000001310, -0.3999999999999997446 ) ) ;
#392 = VERTEX_POINT ( 'NONE', #710 ) ;
#393 = DIRECTION ( 'NONE',  ( -0.000000000000000000, 1.000000000000000000, 0.000000000000000000 ) ) ;
#394 = ADVANCED_FACE ( 'NONE', ( #651 ), #985, .T. ) ;
#395 = CARTESIAN_POINT ( 'NONE',  ( 0.4000000000000007438, 0.2100000000000001310, -0.4916515138991164879 ) ) ;
#396 = AXIS2_PLACEMENT_3D ( 'NONE', #732, #652, #66 ) ;
#397 = VERTEX_POINT ( 'NONE', #1070 ) ;
#398 = DIRECTION ( 'NONE',  ( 0.000000000000000000, 0.000000000000000000, -1.000000000000000000 ) ) ;
#399 = AXIS2_PLACEMENT_3D ( 'NONE', #905, #814, #401 ) ;
#400 = FACE_OUTER_BOUND ( 'NONE', #798, .T. ) ;
#401 = DIRECTION ( 'NONE',  ( 0.000000000000000000, 0.000000000000000000, 1.000000000000000000 ) ) ;
#402 = ADVANCED_FACE ( 'NONE', ( #577 ), #481, .T. ) ;
#403 = CIRCLE ( 'NONE', #220, 0.09165151389911671553 ) ;
#404 = EDGE_LOOP ( 'NONE', ( #1074, #45, #596 ) ) ;
#405 = DIRECTION ( 'NONE',  ( 0.000000000000000000, 1.000000000000000000, 0.000000000000000000 ) ) ;
#406 = DIRECTION ( 'NONE',  ( 0.000000000000000000, 0.000000000000000000, 1.000000000000000000 ) ) ;
#407 = CARTESIAN_POINT ( 'NONE',  ( -0.5504999999999984350, 0.1153688584784028637, -0.4131874999999998188 ) ) ;
#408 = EDGE_LOOP ( 'NONE', ( #35, #132 ) ) ;
#409 = CARTESIAN_POINT ( 'NONE',  ( 7.047314121155778821E-16, 0.2100000000000001310, 2.710505431213761085E-16 ) ) ;
#410 = DIRECTION ( 'NONE',  ( -0.000000000000000000, 1.000000000000000000, 0.000000000000000000 ) ) ;
#411 = CARTESIAN_POINT ( 'NONE',  ( 7.047314121155778821E-16, 0.2100000000000001310, 0.4916515138991169875 ) ) ;
#412 = EDGE_CURVE ( 'NONE', #916, #567, #30, .T. ) ;
#413 = ORIENTED_EDGE ( 'NONE', *, *, #504, .T. ) ;
#414 = AXIS2_PLACEMENT_3D ( 'NONE', #118, #601, #615 ) ;
#415 = SURFACE_STYLE_FILL_AREA ( #840 ) ;
#416 = DIRECTION ( 'NONE',  ( 0.000000000000000000, 1.000000000000000000, 0.000000000000000000 ) ) ;
#417 = CIRCLE ( 'NONE', #1044, 0.09165151389911671553 ) ;
#418 = VECTOR ( 'NONE', #926, 1000.000000000000000 ) ;
#419 = DIRECTION ( 'NONE',  ( 0.000000000000000000, 0.000000000000000000, 1.000000000000000000 ) ) ;
#420 = EDGE_CURVE ( 'NONE', #397, #555, #545, .T. ) ;
#421 = DIRECTION ( 'NONE',  ( 0.000000000000000000, 0.000000000000000000, 1.000000000000000000 ) ) ;
#422 = CARTESIAN_POINT ( 'NONE',  ( -0.3999999999999993006, 0.1250000000000000000, 2.710505431213761085E-16 ) ) ;
#423 = DIRECTION ( 'NONE',  ( 0.000000000000000000, -1.000000000000000000, 0.000000000000000000 ) ) ;
#424 = DIRECTION ( 'NONE',  ( 1.000000000000000000, 0.000000000000000000, -0.000000000000000000 ) ) ;
#425 = EDGE_LOOP ( 'NONE', ( #153, #388, #1038, #609 ) ) ;
#426 = DIRECTION ( 'NONE',  ( 0.000000000000000000, -0.000000000000000000, -1.000000000000000000 ) ) ;
#427 = DIRECTION ( 'NONE',  ( 1.000000000000000000, 0.000000000000000000, -0.000000000000000000 ) ) ;
#428 = SPHERICAL_SURFACE ( 'NONE', #176, 0.1250000000000000000 ) ;
#429 = UNCERTAINTY_MEASURE_WITH_UNIT (LENGTH_MEASURE( 1.000000000000000082E-05 ), #963, 'distance_accuracy_value', 'NONE');
#430 = ORIENTED_EDGE ( 'NONE', *, *, #235, .F. ) ;
#431 = EDGE_LOOP ( 'NONE', ( #929, #368, #529 ) ) ;
#432 = CARTESIAN_POINT ( 'NONE',  ( 0.4000000000000007438, 0.000000000000000000, 0.4000000000000002998 ) ) ;
#433 = CARTESIAN_POINT ( 'NONE',  ( 7.047314121155778821E-16, 0.1250000000000000000, 0.4000000000000002998 ) ) ;
#434 = AXIS2_PLACEMENT_3D ( 'NONE', #774, #701, #945 ) ;
#435 = EDGE_CURVE ( 'NONE', #49, #475, #762, .T. ) ;
#436 = CARTESIAN_POINT ( 'NONE',  ( -0.3999999999999993006, 0.2100000000000001310, 0.4000000000000002998 ) ) ;
#437 = DIRECTION ( 'NONE',  ( 1.000000000000000000, 0.000000000000000000, 1.224646799147353207E-16 ) ) ;
#438 = CLOSED_SHELL ( 'NONE', ( #394, #851, #528 ) ) ;
#439 = ORIENTED_EDGE ( 'NONE', *, *, #471, .F. ) ;
#440 = SPHERICAL_SURFACE ( 'NONE', #216, 0.1250000000000000000 ) ;
#441 = DIRECTION ( 'NONE',  ( 0.000000000000000000, 0.000000000000000000, 1.000000000000000000 ) ) ;
#442 = DIRECTION ( 'NONE',  ( 1.000000000000000000, 0.000000000000000000, -0.000000000000000000 ) ) ;
#443 = DIRECTION ( 'NONE',  ( -0.000000000000000000, 1.000000000000000000, -0.000000000000000000 ) ) ;
#444 = ORIENTED_EDGE ( 'NONE', *, *, #235, .T. ) ;
#445 = DIRECTION ( 'NONE',  ( -1.000000000000000000, 0.000000000000000000, -0.000000000000000000 ) ) ;
#446 = CARTESIAN_POINT ( 'NONE',  ( 0.4000000000000007438, 0.2100000000000001310, 0.4916515138991169875 ) ) ;
#447 = SPHERICAL_SURFACE ( 'NONE', #573, 0.1250000000000000000 ) ;
#448 =( NAMED_UNIT ( * ) PLANE_ANGLE_UNIT ( ) SI_UNIT ( $, .RADIAN. ) );
#449 = EDGE_CURVE ( 'NONE', #249, #76, #1047, .T. ) ;
#450 = PRESENTATION_STYLE_ASSIGNMENT (( #862 ) ) ;
#451 = ORIENTED_EDGE ( 'NONE', *, *, #156, .T. ) ;
#452 = DIRECTION ( 'NONE',  ( 0.000000000000000000, 0.000000000000000000, 1.000000000000000000 ) ) ;
#453 = AXIS2_PLACEMENT_3D ( 'NONE', #1072, #742, #1082 ) ;
#454 = PRESENTATION_STYLE_ASSIGNMENT (( #51 ) ) ;
#455 = AXIS2_PLACEMENT_3D ( 'NONE', #117, #544, #619 ) ;
#456 = DIRECTION ( 'NONE',  ( 1.000000000000000000, 0.000000000000000000, 0.000000000000000000 ) ) ;
#457 = AXIS2_PLACEMENT_3D ( 'NONE', #343, #1015, #644 ) ;
#458 = VERTEX_POINT ( 'NONE', #347 ) ;
#459 = APPLICATION_CONTEXT ( 'automotive_design' ) ;
#460 = CARTESIAN_POINT ( 'NONE',  ( -0.3999999999999993006, 0.2100000000000001310, -0.3999999999999997446 ) ) ;
#461 = DIRECTION ( 'NONE',  ( -0.000000000000000000, 1.000000000000000000, 0.000000000000000000 ) ) ;
#462 = ORIENTED_EDGE ( 'NONE', *, *, #119, .T. ) ;
#463 = CARTESIAN_POINT ( 'NONE',  ( -0.3999999999999993006, 0.2100000000000001310, 0.4916515138991169875 ) ) ;
#464 = AXIS2_PLACEMENT_3D ( 'NONE', #931, #1095, #340 ) ;
#465 = ADVANCED_FACE ( 'NONE', ( #175 ), #447, .T. ) ;
#466 = EDGE_LOOP ( 'NONE', ( #816, #714 ) ) ;
#467 = DIRECTION ( 'NONE',  ( -0.000000000000000000, 1.000000000000000000, -0.000000000000000000 ) ) ;
#468 =( LENGTH_UNIT ( ) NAMED_UNIT ( * ) SI_UNIT ( .MILLI., .METRE. ) );
#469 = FILL_AREA_STYLE_COLOUR ( '', #1043 ) ;
#470 = DIRECTION ( 'NONE',  ( 0.000000000000000000, 0.000000000000000000, -1.000000000000000000 ) ) ;
#471 = EDGE_CURVE ( 'NONE', #518, #605, #829, .T. ) ;
#472 = AXIS2_PLACEMENT_3D ( 'NONE', #568, #59, #484 ) ;
#473 = AXIS2_PLACEMENT_3D ( 'NONE', #670, #935, #941 ) ;
#474 = AXIS2_PLACEMENT_3D ( 'NONE', #898, #809, #60 ) ;
#475 = VERTEX_POINT ( 'NONE', #363 ) ;
#476 = CARTESIAN_POINT ( 'NONE',  ( 7.047314121155778821E-16, 0.1250000000000000000, 2.710505431213761085E-16 ) ) ;
#477 = SURFACE_SIDE_STYLE ('',( #852 ) ) ;
#478 = EDGE_CURVE ( 'NONE', #773, #617, #365, .T. ) ;
#479 = ORIENTED_EDGE ( 'NONE', *, *, #759, .T. ) ;
#480 = CARTESIAN_POINT ( 'NONE',  ( -0.3999999999999993006, 0.1250000000000000000, -0.3999999999999997446 ) ) ;
#481 = PLANE ( 'NONE',  #474 ) ;
#482 = ORIENTED_EDGE ( 'NONE', *, *, #420, .T. ) ;
#483 = ADVANCED_FACE ( 'NONE', ( #783 ), #690, .T. ) ;
#484 = DIRECTION ( 'NONE',  ( 0.000000000000000000, 0.000000000000000000, 1.000000000000000000 ) ) ;
#485 = DIRECTION ( 'NONE',  ( 0.000000000000000000, 1.000000000000000000, 0.000000000000000000 ) ) ;
#486 = STYLED_ITEM ( 'NONE', ( #145 ), #872 ) ;
#487 = AXIS2_PLACEMENT_3D ( 'NONE', #824, #410, #594 ) ;
#488 = ORIENTED_EDGE ( 'NONE', *, *, #70, .F. ) ;
#489 = CARTESIAN_POINT ( 'NONE',  ( 0.4000000000000007438, 0.1250000000000000000, 0.4000000000000002998 ) ) ;
#490 = AXIS2_PLACEMENT_3D ( 'NONE', #837, #189, #600 ) ;
#491 = CARTESIAN_POINT ( 'NONE',  ( 0.4000000000000007438, 0.2100000000000001310, -0.3083484861008830014 ) ) ;
#492 = AXIS2_PLACEMENT_3D ( 'NONE', #1042, #625, #113 ) ;
#493 = EDGE_LOOP ( 'NONE', ( #225, #912, #39 ) ) ;
#494 = DIRECTION ( 'NONE',  ( 0.000000000000000000, 1.000000000000000000, 0.000000000000000000 ) ) ;
#495 = MANIFOLD_SOLID_BREP ( 'LPattern1[3]', #723 ) ;
#496 = FACE_OUTER_BOUND ( 'NONE', #826, .T. ) ;
#497 = STYLED_ITEM ( 'NONE', ( #450 ), #1052 ) ;
#498 = MANIFOLD_SOLID_BREP ( 'LPattern1[7]', #354 ) ;
#499 = EDGE_CURVE ( 'NONE', #1049, #791, #281, .T. ) ;
#500 = UNCERTAINTY_MEASURE_WITH_UNIT (LENGTH_MEASURE( 1.000000000000000082E-05 ), #704, 'distance_accuracy_value', 'NONE');
#501 = CARTESIAN_POINT ( 'NONE',  ( -0.3999999999999993006, 0.1250000000000000000, 0.4000000000000002998 ) ) ;
#502 = ORIENTED_EDGE ( 'NONE', *, *, #504, .F. ) ;
#503 = CARTESIAN_POINT ( 'NONE',  ( 0.7340000000000019842, -1.981561253153685254, 0.6655000000000012017 ) ) ;
#504 = EDGE_CURVE ( 'NONE', #916, #705, #382, .T. ) ;
#505 = DIRECTION ( 'NONE',  ( -0.000000000000000000, 1.000000000000000000, -0.000000000000000000 ) ) ;
#506 = CIRCLE ( 'NONE', #31, 0.06881249999999997091 ) ;
#507 = VERTEX_POINT ( 'NONE', #364 ) ;
#508 = AXIS2_PLACEMENT_3D ( 'NONE', #319, #393, #1075 ) ;
#509 = DIRECTION ( 'NONE',  ( 1.000000000000000000, 0.000000000000000000, -0.000000000000000000 ) ) ;
#510 = PRESENTATION_LAYER_ASSIGNMENT (  '', '', ( #264 ) ) ;
#511 = CARTESIAN_POINT ( 'NONE',  ( -0.5504999999999984350, 0.3099999999999999978, -0.5508124999999998161 ) ) ;
#512 = FACE_OUTER_BOUND ( 'NONE', #169, .T. ) ;
#513 = CIRCLE ( 'NONE', #678, 0.09165151389911671553 ) ;
#514 = MANIFOLD_SOLID_BREP ( 'LPattern1[2]', #438 ) ;
#515 = UNCERTAINTY_MEASURE_WITH_UNIT (LENGTH_MEASURE( 1.000000000000000082E-05 ), #891, 'distance_accuracy_value', 'NONE');
#516 = CLOSED_SHELL ( 'NONE', ( #465, #380, #730 ) ) ;
#517 = ORIENTED_EDGE ( 'NONE', *, *, #307, .F. ) ;
#518 = VERTEX_POINT ( 'NONE', #463 ) ;
#519 = ADVANCED_FACE ( 'NONE', ( #309 ), #797, .T. ) ;
#520 = FACE_OUTER_BOUND ( 'NONE', #674, .T. ) ;
#521 = EDGE_LOOP ( 'NONE', ( #479, #62 ) ) ;
#522 = DIRECTION ( 'NONE',  ( 0.000000000000000000, 1.000000000000000000, 0.000000000000000000 ) ) ;
#523 = LINE ( 'NONE', #865, #880 ) ;
#524 = MANIFOLD_SOLID_BREP ( 'LPattern1[4]', #516 ) ;
#525 = SURFACE_STYLE_USAGE ( .BOTH. , #265 ) ;
#526 = ORIENTED_EDGE ( 'NONE', *, *, #620, .F. ) ;
#527 = CARTESIAN_POINT ( 'NONE',  ( -0.3999999999999993006, 0.2100000000000001310, 0.4916515138991169875 ) ) ;
#528 = ADVANCED_FACE ( 'NONE', ( #400 ), #298, .T. ) ;
#529 = ORIENTED_EDGE ( 'NONE', *, *, #566, .F. ) ;
#530 = DIRECTION ( 'NONE',  ( 1.000000000000000000, 0.000000000000000000, -0.000000000000000000 ) ) ;
#531 = SURFACE_STYLE_FILL_AREA ( #1030 ) ;
#532 = ORIENTED_EDGE ( 'NONE', *, *, #1071, .T. ) ;
#533 = PLANE ( 'NONE',  #464 ) ;
#534 = ORIENTED_EDGE ( 'NONE', *, *, #127, .T. ) ;
#535 = AXIS2_PLACEMENT_3D ( 'NONE', #358, #424, #1020 ) ;
#536 = CARTESIAN_POINT ( 'NONE',  ( 7.047314121155778821E-16, 0.1250000000000000000, -0.3999999999999997446 ) ) ;
#537 = DIRECTION ( 'NONE',  ( 0.000000000000000000, 0.000000000000000000, 1.000000000000000000 ) ) ;
#538 = FILL_AREA_STYLE_COLOUR ( '', #587 ) ;
#539 =( GEOMETRIC_REPRESENTATION_CONTEXT ( 3 ) GLOBAL_UNCERTAINTY_ASSIGNED_CONTEXT ( ( #695 ) ) GLOBAL_UNIT_ASSIGNED_CONTEXT ( ( #960, #209, #129 ) ) REPRESENTATION_CONTEXT ( 'NONE', 'WORKASPACE' ) );
#540 = CARTESIAN_POINT ( 'NONE',  ( -0.3999999999999993006, 0.1250000000000000000, 2.710505431213761085E-16 ) ) ;
#541 =( NAMED_UNIT ( * ) SI_UNIT ( $, .STERADIAN. ) SOLID_ANGLE_UNIT ( ) );
#542 = EDGE_LOOP ( 'NONE', ( #323, #532, #863, #839 ) ) ;
#543 = CYLINDRICAL_SURFACE ( 'NONE', #1019, 0.06881249999999997091 ) ;
#544 = DIRECTION ( 'NONE',  ( -1.000000000000000000, 0.000000000000000000, 0.000000000000000000 ) ) ;
#545 = LINE ( 'NONE', #776, #895 ) ;
#546 = EDGE_CURVE ( 'NONE', #49, #202, #1077, .T. ) ;
#547 = FACE_OUTER_BOUND ( 'NONE', #753, .T. ) ;
#548 =( GEOMETRIC_REPRESENTATION_CONTEXT ( 3 ) GLOBAL_UNCERTAINTY_ASSIGNED_CONTEXT ( ( #500 ) ) GLOBAL_UNIT_ASSIGNED_CONTEXT ( ( #704, #626, #957 ) ) REPRESENTATION_CONTEXT ( 'NONE', 'WORKASPACE' ) );
#549 = AXIS2_PLACEMENT_3D ( 'NONE', #744, #242, #583 ) ;
#550 = ORIENTED_EDGE ( 'NONE', *, *, #608, .F. ) ;
#551 = FILL_AREA_STYLE_COLOUR ( '', #171 ) ;
#552 = SURFACE_SIDE_STYLE ('',( #634 ) ) ;
#553 = FILL_AREA_STYLE_COLOUR ( '', #893 ) ;
#554 = APPLICATION_PROTOCOL_DEFINITION ( 'draft international standard', 'automotive_design', 1998, #180 ) ;
#555 = VERTEX_POINT ( 'NONE', #987 ) ;
#556 = DIRECTION ( 'NONE',  ( 0.000000000000000000, 0.000000000000000000, 1.000000000000000000 ) ) ;
#557 = DIRECTION ( 'NONE',  ( 0.000000000000000000, 0.000000000000000000, 1.000000000000000000 ) ) ;
#558 = CIRCLE ( 'NONE', #691, 0.09165151389911671553 ) ;
#559 = MECHANICAL_DESIGN_GEOMETRIC_PRESENTATION_REPRESENTATION (  '', ( #1025 ), #248 ) ;
#560 = COLOUR_RGB ( '',0.2509803921568627416, 0.2509803921568627416, 0.2509803921568627416 ) ;
#561 = STYLED_ITEM ( 'NONE', ( #205 ), #138 ) ;
#562 = ORIENTED_EDGE ( 'NONE', *, *, #322, .T. ) ;
#563 = EDGE_CURVE ( 'NONE', #392, #617, #928, .T. ) ;
#564 =( NAMED_UNIT ( * ) PLANE_ANGLE_UNIT ( ) SI_UNIT ( $, .RADIAN. ) );
#565 = ORIENTED_EDGE ( 'NONE', *, *, #119, .F. ) ;
#566 = EDGE_CURVE ( 'NONE', #796, #159, #317, .T. ) ;
#567 = VERTEX_POINT ( 'NONE', #331 ) ;
#568 = CARTESIAN_POINT ( 'NONE',  ( 7.047314121155778821E-16, 0.1250000000000000000, 0.4000000000000002998 ) ) ;
#569 = CARTESIAN_POINT ( 'NONE',  ( 0.4000000000000007438, 0.1250000000000000000, 2.710505431213761085E-16 ) ) ;
#570 = SURFACE_SIDE_STYLE ('',( #637 ) ) ;
#571 = PRESENTATION_STYLE_ASSIGNMENT (( #982 ) ) ;
#572 = COLOUR_RGB ( '',1.000000000000000000, 1.000000000000000000, 1.000000000000000000 ) ;
#573 = AXIS2_PLACEMENT_3D ( 'NONE', #936, #442, #257 ) ;
#574 = CIRCLE ( 'NONE', #301, 0.06881249999999997091 ) ;
#575 = CIRCLE ( 'NONE', #624, 0.06881249999999997091 ) ;
#576 = EDGE_LOOP ( 'NONE', ( #869, #241, #646 ) ) ;
#577 = FACE_OUTER_BOUND ( 'NONE', #213, .T. ) ;
#578 = CARTESIAN_POINT ( 'NONE',  ( -0.3999999999999993006, 0.1250000000000000000, -0.3999999999999997446 ) ) ;
#579 = ADVANCED_FACE ( 'NONE', ( #811 ), #745, .T. ) ;
#580 = EDGE_LOOP ( 'NONE', ( #979, #582, #667, #333 ) ) ;
#581 = CARTESIAN_POINT ( 'NONE',  ( 0.4000000000000007438, 0.000000000000000000, 2.787045856160470553E-16 ) ) ;
#582 = ORIENTED_EDGE ( 'NONE', *, *, #602, .T. ) ;
#583 = DIRECTION ( 'NONE',  ( 0.000000000000000000, 0.000000000000000000, 1.000000000000000000 ) ) ;
#584 = CARTESIAN_POINT ( 'NONE',  ( -0.5504999999999984350, 0.1153688584784028637, -0.4819999999999997620 ) ) ;
#585 = CIRCLE ( 'NONE', #721, 0.09165151389911671553 ) ;
#586 = VERTEX_POINT ( 'NONE', #74 ) ;
#587 = COLOUR_RGB ( '',0.7921568627450980005, 0.8196078431372548767, 0.9333333333333333481 ) ;
#588 = CARTESIAN_POINT ( 'NONE',  ( -0.5504999999999984350, 0.5250000000000000222, -0.5508124999999998161 ) ) ;
#589 = EDGE_CURVE ( 'NONE', #507, #803, #147, .T. ) ;
#590 = AXIS2_PLACEMENT_3D ( 'NONE', #1003, #505, #96 ) ;
#591 = ORIENTED_EDGE ( 'NONE', *, *, #435, .F. ) ;
#592 = VERTEX_POINT ( 'NONE', #395 ) ;
#593 = DIRECTION ( 'NONE',  ( 0.000000000000000000, 0.000000000000000000, 1.000000000000000000 ) ) ;
#594 = DIRECTION ( 'NONE',  ( 0.000000000000000000, 0.000000000000000000, 1.000000000000000000 ) ) ;
#595 = ADVANCED_FACE ( 'NONE', ( #735 ), #992, .T. ) ;
#596 = ORIENTED_EDGE ( 'NONE', *, *, #802, .F. ) ;
#597 = VERTEX_POINT ( 'NONE', #491 ) ;
#598 = DIRECTION ( 'NONE',  ( 0.000000000000000000, 0.000000000000000000, -1.000000000000000000 ) ) ;
#599 = DIRECTION ( 'NONE',  ( 0.000000000000000000, 0.000000000000000000, 1.000000000000000000 ) ) ;
#600 = DIRECTION ( 'NONE',  ( 0.000000000000000000, 0.000000000000000000, 1.000000000000000000 ) ) ;
#601 = DIRECTION ( 'NONE',  ( 1.000000000000000000, 0.000000000000000000, 1.224646799147353207E-16 ) ) ;
#602 = EDGE_CURVE ( 'NONE', #767, #458, #665, .T. ) ;
#603 = PRESENTATION_LAYER_ASSIGNMENT (  '', '', ( #48 ) ) ;
#604 = CARTESIAN_POINT ( 'NONE',  ( -0.3999999999999993006, 0.1250000000000000000, -0.3999999999999997446 ) ) ;
#605 = VERTEX_POINT ( 'NONE', #243 ) ;
#606 = DIRECTION ( 'NONE',  ( 0.000000000000000000, 0.000000000000000000, 1.000000000000000000 ) ) ;
#607 = LINE ( 'NONE', #123, #50 ) ;
#608 = EDGE_CURVE ( 'NONE', #392, #773, #263, .T. ) ;
#609 = ORIENTED_EDGE ( 'NONE', *, *, #420, .F. ) ;
#610 = FACE_OUTER_BOUND ( 'NONE', #743, .T. ) ;
#611 = CARTESIAN_POINT ( 'NONE',  ( 0.4000000000000007438, 0.2100000000000001310, 0.09165151389911699309 ) ) ;
#612 = FILL_AREA_STYLE_COLOUR ( '', #810 ) ;
#613 = DIRECTION ( 'NONE',  ( -0.000000000000000000, 1.000000000000000000, 0.000000000000000000 ) ) ;
#614 = LINE ( 'NONE', #843, #894 ) ;
#615 = DIRECTION ( 'NONE',  ( 0.000000000000000000, 0.000000000000000000, -1.000000000000000000 ) ) ;
#616 = DIRECTION ( 'NONE',  ( 1.000000000000000000, 0.000000000000000000, -0.000000000000000000 ) ) ;
#617 = VERTEX_POINT ( 'NONE', #1085 ) ;
#618 = LINE ( 'NONE', #92, #1057 ) ;
#619 = DIRECTION ( 'NONE',  ( 0.000000000000000000, 0.000000000000000000, 1.000000000000000000 ) ) ;
#620 = EDGE_CURVE ( 'NONE', #658, #244, #558, .T. ) ;
#621 =( GEOMETRIC_REPRESENTATION_CONTEXT ( 3 ) GLOBAL_UNCERTAINTY_ASSIGNED_CONTEXT ( ( #927 ) ) GLOBAL_UNIT_ASSIGNED_CONTEXT ( ( #131, #564, #1067 ) ) REPRESENTATION_CONTEXT ( 'NONE', 'WORKASPACE' ) );
#622 = PRESENTATION_LAYER_ASSIGNMENT (  '', '', ( #738 ) ) ;
#623 = CARTESIAN_POINT ( 'NONE',  ( -0.3999999999999993006, 0.2100000000000001310, -0.3999999999999997446 ) ) ;
#624 = AXIS2_PLACEMENT_3D ( 'NONE', #981, #136, #557 ) ;
#625 = DIRECTION ( 'NONE',  ( 1.000000000000000000, 0.000000000000000000, -0.000000000000000000 ) ) ;
#626 =( NAMED_UNIT ( * ) PLANE_ANGLE_UNIT ( ) SI_UNIT ( $, .RADIAN. ) );
#627 = EDGE_LOOP ( 'NONE', ( #517, #591, #739, #718 ) ) ;
#628 = DIRECTION ( 'NONE',  ( -0.000000000000000000, 1.000000000000000000, -0.000000000000000000 ) ) ;
#629 = PRESENTATION_STYLE_ASSIGNMENT (( #37 ) ) ;
#630 = ADVANCED_FACE ( 'NONE', ( #496 ), #919, .T. ) ;
#631 = SURFACE_SIDE_STYLE ('',( #120 ) ) ;
#632 = ORIENTED_EDGE ( 'NONE', *, *, #178, .T. ) ;
#633 = SURFACE_SIDE_STYLE ('',( #292 ) ) ;
#634 = SURFACE_STYLE_FILL_AREA ( #720 ) ;
#635 = SPHERICAL_SURFACE ( 'NONE', #1091, 0.1250000000000000000 ) ;
#636 = VECTOR ( 'NONE', #350, 1000.000000000000000 ) ;
#637 = SURFACE_STYLE_FILL_AREA ( #386 ) ;
#638 =( GEOMETRIC_REPRESENTATION_CONTEXT ( 3 ) GLOBAL_UNCERTAINTY_ASSIGNED_CONTEXT ( ( #12 ) ) GLOBAL_UNIT_ASSIGNED_CONTEXT ( ( #468, #716, #1046 ) ) REPRESENTATION_CONTEXT ( 'NONE', 'WORKASPACE' ) );
#639 = ADVANCED_FACE ( 'NONE', ( #166 ), #440, .T. ) ;
#640 = VECTOR ( 'NONE', #1092, 1000.000000000000000 ) ;
#641 = VERTEX_POINT ( 'NONE', #254 ) ;
#642 = CARTESIAN_POINT ( 'NONE',  ( -0.5504999999999984350, 0.3099999999999999978, -0.4131874999999998188 ) ) ;
#643 = DIRECTION ( 'NONE',  ( 0.000000000000000000, 1.000000000000000000, 0.000000000000000000 ) ) ;
#644 = DIRECTION ( 'NONE',  ( 1.224646799147350495E-16, 0.000000000000000000, -1.000000000000000000 ) ) ;
#645 = PRESENTATION_LAYER_ASSIGNMENT (  '', '', ( #497 ) ) ;
#646 = ORIENTED_EDGE ( 'NONE', *, *, #294, .F. ) ;
#647 = DIRECTION ( 'NONE',  ( -1.000000000000000000, 0.000000000000000000, 0.000000000000000000 ) ) ;
#648 = PRESENTATION_STYLE_ASSIGNMENT (( #883 ) ) ;
#649 = ORIENTED_EDGE ( 'NONE', *, *, #689, .F. ) ;
#650 = FACE_OUTER_BOUND ( 'NONE', #306, .T. ) ;
#651 = FACE_OUTER_BOUND ( 'NONE', #882, .T. ) ;
#652 = DIRECTION ( 'NONE',  ( -0.000000000000000000, 1.000000000000000000, 0.000000000000000000 ) ) ;
#653 = DIRECTION ( 'NONE',  ( 0.000000000000000000, 0.000000000000000000, 1.000000000000000000 ) ) ;
#654 = EDGE_CURVE ( 'NONE', #28, #791, #815, .T. ) ;
#655 = AXIS2_PLACEMENT_3D ( 'NONE', #952, #416, #606 ) ;
#656 = VECTOR ( 'NONE', #996, 1000.000000000000000 ) ;
#657 = CIRCLE ( 'NONE', #860, 0.1250000000000000000 ) ;
#658 = VERTEX_POINT ( 'NONE', #760 ) ;
#659 =( NAMED_UNIT ( * ) PLANE_ANGLE_UNIT ( ) SI_UNIT ( $, .RADIAN. ) );
#660 = CLOSED_SHELL ( 'NONE', ( #288, #371, #43 ) ) ;
#661 =( NAMED_UNIT ( * ) PLANE_ANGLE_UNIT ( ) SI_UNIT ( $, .RADIAN. ) );
#662 = EDGE_CURVE ( 'NONE', #705, #812, #1029, .T. ) ;
#663 = VERTEX_POINT ( 'NONE', #849 ) ;
#664 = AXIS2_PLACEMENT_3D ( 'NONE', #1027, #269, #847 ) ;
#665 = LINE ( 'NONE', #237, #656 ) ;
#666 = ADVANCED_FACE ( 'NONE', ( #1039 ), #756, .T. ) ;
#667 = ORIENTED_EDGE ( 'NONE', *, *, #993, .F. ) ;
#668 = DIRECTION ( 'NONE',  ( -0.000000000000000000, 1.000000000000000000, -0.000000000000000000 ) ) ;
#669 = CARTESIAN_POINT ( 'NONE',  ( 0.4000000000000007438, 0.2100000000000001310, 0.4000000000000002998 ) ) ;
#670 = CARTESIAN_POINT ( 'NONE',  ( 0.000000000000000000, 0.2099999999999999922, 0.000000000000000000 ) ) ;
#671 = AXIS2_PLACEMENT_3D ( 'NONE', #376, #467, #556 ) ;
#672 = ORIENTED_EDGE ( 'NONE', *, *, #1006, .F. ) ;
#673 = AXIS2_PLACEMENT_3D ( 'NONE', #191, #1041, #38 ) ;
#674 = EDGE_LOOP ( 'NONE', ( #856, #339 ) ) ;
#675 = EDGE_CURVE ( 'NONE', #700, #658, #103, .T. ) ;
#676 = STYLED_ITEM ( 'NONE', ( #304 ), #498 ) ;
#677 = CARTESIAN_POINT ( 'NONE',  ( 7.047314121155778821E-16, 0.000000000000000000, -0.3999999999999997446 ) ) ;
#678 = AXIS2_PLACEMENT_3D ( 'NONE', #761, #183, #858 ) ;
#679 =( NAMED_UNIT ( * ) SI_UNIT ( $, .STERADIAN. ) SOLID_ANGLE_UNIT ( ) );
#680 = DIRECTION ( 'NONE',  ( 0.000000000000000000, 0.000000000000000000, 1.000000000000000000 ) ) ;
#681 = ORIENTED_EDGE ( 'NONE', *, *, #178, .F. ) ;
#682 = CARTESIAN_POINT ( 'NONE',  ( -0.5504999999999984350, 0.6250000000000000000, -0.4819999999999997620 ) ) ;
#683 = CARTESIAN_POINT ( 'NONE',  ( 7.047314121155778821E-16, 0.2100000000000001310, 0.4000000000000002998 ) ) ;
#684 = CARTESIAN_POINT ( 'NONE',  ( -0.7339999999999985425, 0.2100000000000001310, 0.6655000000000012017 ) ) ;
#685 = AXIS2_PLACEMENT_3D ( 'NONE', #275, #165, #426 ) ;
#686 = EDGE_LOOP ( 'NONE', ( #229, #974, #917 ) ) ;
#687 = CARTESIAN_POINT ( 'NONE',  ( 7.047314121155778821E-16, 0.2100000000000001310, 0.09165151389911699309 ) ) ;
#688 = FACE_OUTER_BOUND ( 'NONE', #270, .T. ) ;
#689 = EDGE_CURVE ( 'NONE', #507, #555, #2, .T. ) ;
#690 = SPHERICAL_SURFACE ( 'NONE', #535, 0.1250000000000000000 ) ;
#691 = AXIS2_PLACEMENT_3D ( 'NONE', #669, #999, #161 ) ;
#692 = DIRECTION ( 'NONE',  ( 0.000000000000000000, 0.000000000000000000, -1.000000000000000000 ) ) ;
#693 = FILL_AREA_STYLE_COLOUR ( '', #14 ) ;
#694 = CIRCLE ( 'NONE', #367, 0.1250000000000000000 ) ;
#695 = UNCERTAINTY_MEASURE_WITH_UNIT (LENGTH_MEASURE( 1.000000000000000082E-05 ), #960, 'distance_accuracy_value', 'NONE');
#696 = VERTEX_POINT ( 'NONE', #23 ) ;
#697 = SURFACE_SIDE_STYLE ('',( #415 ) ) ;
#698 = EDGE_LOOP ( 'NONE', ( #267, #1083 ) ) ;
#699 = CARTESIAN_POINT ( 'NONE',  ( 0.4000000000000007438, 0.2100000000000001310, 0.4000000000000002998 ) ) ;
#700 = VERTEX_POINT ( 'NONE', #432 ) ;
#701 = DIRECTION ( 'NONE',  ( -0.000000000000000000, 1.000000000000000000, -0.000000000000000000 ) ) ;
#702 =( LENGTH_UNIT ( ) NAMED_UNIT ( * ) SI_UNIT ( .MILLI., .METRE. ) );
#703 = DIRECTION ( 'NONE',  ( -0.000000000000000000, 1.000000000000000000, -0.000000000000000000 ) ) ;
#704 =( LENGTH_UNIT ( ) NAMED_UNIT ( * ) SI_UNIT ( .MILLI., .METRE. ) );
#705 = VERTEX_POINT ( 'NONE', #83 ) ;
#706 = PRESENTATION_LAYER_ASSIGNMENT (  '', '', ( #199 ) ) ;
#707 = SURFACE_SIDE_STYLE ('',( #124 ) ) ;
#708 = DIRECTION ( 'NONE',  ( 1.000000000000000000, 0.000000000000000000, 1.224646799147353207E-16 ) ) ;
#709 = ORIENTED_EDGE ( 'NONE', *, *, #449, .T. ) ;
#710 = CARTESIAN_POINT ( 'NONE',  ( -0.3999999999999993006, 0.000000000000000000, -0.3999999999999997446 ) ) ;
#711 = CARTESIAN_POINT ( 'NONE',  ( 0.4000000000000007438, 0.2100000000000001310, 0.4916515138991169875 ) ) ;
#712 = ADVANCED_FACE ( 'NONE', ( #18 ), #356, .T. ) ;
#713 = MECHANICAL_DESIGN_GEOMETRIC_PRESENTATION_REPRESENTATION (  '', ( #794 ), #290 ) ;
#714 = ORIENTED_EDGE ( 'NONE', *, *, #1071, .F. ) ;
#715 = FILL_AREA_STYLE_COLOUR ( '', #572 ) ;
#716 =( NAMED_UNIT ( * ) PLANE_ANGLE_UNIT ( ) SI_UNIT ( $, .RADIAN. ) );
#717 =( NAMED_UNIT ( * ) SI_UNIT ( $, .STERADIAN. ) SOLID_ANGLE_UNIT ( ) );
#718 = ORIENTED_EDGE ( 'NONE', *, *, #322, .F. ) ;
#719 = SPHERICAL_SURFACE ( 'NONE', #198, 0.1250000000000000000 ) ;
#720 = FILL_AREA_STYLE ('',( #287 ) ) ;
#721 = AXIS2_PLACEMENT_3D ( 'NONE', #699, #827, #1017 ) ;
#722 = COLOUR_RGB ( '',0.7921568627450980005, 0.8196078431372548767, 0.9333333333333333481 ) ;
#723 = CLOSED_SHELL ( 'NONE', ( #639, #112, #402 ) ) ;
#724 = ORIENTED_EDGE ( 'NONE', *, *, #245, .F. ) ;
#725 =( NAMED_UNIT ( * ) PLANE_ANGLE_UNIT ( ) SI_UNIT ( $, .RADIAN. ) );
#726 = CARTESIAN_POINT ( 'NONE',  ( -0.3999999999999993006, 0.1250000000000000000, 0.4000000000000002998 ) ) ;
#727 = FILL_AREA_STYLE_COLOUR ( '', #158 ) ;
#728 =( GEOMETRIC_REPRESENTATION_CONTEXT ( 3 ) GLOBAL_UNCERTAINTY_ASSIGNED_CONTEXT ( ( #429 ) ) GLOBAL_UNIT_ASSIGNED_CONTEXT ( ( #963, #201, #541 ) ) REPRESENTATION_CONTEXT ( 'NONE', 'WORKASPACE' ) );
#729 = EDGE_LOOP ( 'NONE', ( #177, #68, #534, #724 ) ) ;
#730 = ADVANCED_FACE ( 'NONE', ( #610 ), #1096, .T. ) ;
#731 = PLANE ( 'NONE',  #508 ) ;
#732 = CARTESIAN_POINT ( 'NONE',  ( 0.4000000000000007438, 0.2100000000000001310, -0.3083484861008830014 ) ) ;
#733 = ORIENTED_EDGE ( 'NONE', *, *, #802, .T. ) ;
#734 = DIRECTION ( 'NONE',  ( 0.000000000000000000, 0.000000000000000000, 1.000000000000000000 ) ) ;
#735 = FACE_OUTER_BOUND ( 'NONE', #542, .T. ) ;
#736 = DIRECTION ( 'NONE',  ( 0.000000000000000000, 0.000000000000000000, 1.000000000000000000 ) ) ;
#737 = AXIS2_PLACEMENT_3D ( 'NONE', #711, #461, #1055 ) ;
#738 = STYLED_ITEM ( 'NONE', ( #24 ), #305 ) ;
#739 = ORIENTED_EDGE ( 'NONE', *, *, #546, .T. ) ;
#740 = CYLINDRICAL_SURFACE ( 'NONE', #549, 0.06881249999999997091 ) ;
#741 = AXIS2_PLACEMENT_3D ( 'NONE', #611, #79, #419 ) ;
#742 = DIRECTION ( 'NONE',  ( 1.000000000000000000, 0.000000000000000000, -0.000000000000000000 ) ) ;
#743 = EDGE_LOOP ( 'NONE', ( #150, #1045 ) ) ;
#744 = CARTESIAN_POINT ( 'NONE',  ( -0.5504999999999984350, 0.1153688584784028637, -0.4819999999999997620 ) ) ;
#745 = SPHERICAL_SURFACE ( 'NONE', #453, 0.1250000000000000000 ) ;
#746 = PLANE ( 'NONE',  #473 ) ;
#747 = EDGE_CURVE ( 'NONE', #555, #586, #618, .T. ) ;
#748 = ORIENTED_EDGE ( 'NONE', *, *, #654, .F. ) ;
#749 = DIRECTION ( 'NONE',  ( -0.000000000000000000, 1.000000000000000000, -0.000000000000000000 ) ) ;
#750 = UNCERTAINTY_MEASURE_WITH_UNIT (LENGTH_MEASURE( 1.000000000000000082E-05 ), #813, 'distance_accuracy_value', 'NONE');
#751 = CIRCLE ( 'NONE', #1000, 0.1250000000000000000 ) ;
#752 = EDGE_LOOP ( 'NONE', ( #329, #1093, #937 ) ) ;
#753 = EDGE_LOOP ( 'NONE', ( #88, #451, #878 ) ) ;
#754 = AXIS2_PLACEMENT_3D ( 'NONE', #308, #871, #977 ) ;
#755 = VECTOR ( 'NONE', #838, 1000.000000000000000 ) ;
#756 = SPHERICAL_SURFACE ( 'NONE', #352, 0.1250000000000000000 ) ;
#757 = LINE ( 'NONE', #407, #640 ) ;
#758 = FACE_OUTER_BOUND ( 'NONE', #466, .T. ) ;
#759 = EDGE_CURVE ( 'NONE', #244, #658, #585, .T. ) ;
#760 = CARTESIAN_POINT ( 'NONE',  ( 0.4000000000000007438, 0.2100000000000001310, 0.3083484861008835565 ) ) ;
#761 = CARTESIAN_POINT ( 'NONE',  ( 0.4000000000000007438, 0.2100000000000001310, 2.710505431213761085E-16 ) ) ;
#762 = LINE ( 'NONE', #684, #418 ) ;
#763 = UNCERTAINTY_MEASURE_WITH_UNIT (LENGTH_MEASURE( 1.000000000000000082E-05 ), #377, 'distance_accuracy_value', 'NONE');
#764 = AXIS2_PLACEMENT_3D ( 'NONE', #527, #918, #835 ) ;
#765 = EDGE_LOOP ( 'NONE', ( #921, #1034, #187 ) ) ;
#766 = FACE_OUTER_BOUND ( 'NONE', #627, .T. ) ;
#767 = VERTEX_POINT ( 'NONE', #511 ) ;
#768 = DIRECTION ( 'NONE',  ( 0.000000000000000000, 0.000000000000000000, 1.000000000000000000 ) ) ;
#769 = CARTESIAN_POINT ( 'NONE',  ( 0.4000000000000007438, 0.1250000000000000000, 2.710505431213761085E-16 ) ) ;
#770 = FACE_OUTER_BOUND ( 'NONE', #408, .T. ) ;
#771 = AXIS2_PLACEMENT_3D ( 'NONE', #361, #522, #345 ) ;
#772 = DIRECTION ( 'NONE',  ( 0.000000000000000000, 1.000000000000000000, 0.000000000000000000 ) ) ;
#773 = VERTEX_POINT ( 'NONE', #261 ) ;
#774 = CARTESIAN_POINT ( 'NONE',  ( 7.047314121155778821E-16, 0.2100000000000001310, 0.4000000000000002998 ) ) ;
#775 = DIRECTION ( 'NONE',  ( 0.000000000000000000, 0.000000000000000000, 1.000000000000000000 ) ) ;
#776 = CARTESIAN_POINT ( 'NONE',  ( -0.7339999999999985425, 0.6250000000000000000, -0.6654999999999994253 ) ) ;
#777 = CLOSED_SHELL ( 'NONE', ( #1033, #887, #27 ) ) ;
#778 = EDGE_CURVE ( 'NONE', #663, #696, #247, .T. ) ;
#779 = DIRECTION ( 'NONE',  ( 0.000000000000000000, 0.000000000000000000, -1.000000000000000000 ) ) ;
#780 = SURFACE_STYLE_USAGE ( .BOTH. , #110 ) ;
#781 = DIRECTION ( 'NONE',  ( 0.000000000000000000, 0.000000000000000000, 1.000000000000000000 ) ) ;
#782 = EDGE_LOOP ( 'NONE', ( #502, #964, #22, #997 ) ) ;
#783 = FACE_OUTER_BOUND ( 'NONE', #404, .T. ) ;
#784 =( NAMED_UNIT ( * ) SI_UNIT ( $, .STERADIAN. ) SOLID_ANGLE_UNIT ( ) );
#785 = ORIENTED_EDGE ( 'NONE', *, *, #675, .T. ) ;
#786 = ADVANCED_FACE ( 'NONE', ( #8 ), #276, .T. ) ;
#787 = CARTESIAN_POINT ( 'NONE',  ( -0.3999999999999993006, 0.2100000000000001310, 0.4000000000000002998 ) ) ;
#788 = MECHANICAL_DESIGN_GEOMETRIC_PRESENTATION_REPRESENTATION (  '', ( #738 ), #638 ) ;
#789 = CLOSED_SHELL ( 'NONE', ( #1064, #666, #519 ) ) ;
#790 = SHAPE_DEFINITION_REPRESENTATION ( #85, #1052 ) ;
#791 = VERTEX_POINT ( 'NONE', #836 ) ;
#792 = CARTESIAN_POINT ( 'NONE',  ( -0.7339999999999985425, -1.981561253153685254, -0.6654999999999994253 ) ) ;
#793 = EDGE_CURVE ( 'NONE', #458, #1058, #349, .T. ) ;
#794 = STYLED_ITEM ( 'NONE', ( #89 ), #1037 ) ;
#795 = PRESENTATION_LAYER_ASSIGNMENT (  '', '', ( #794 ) ) ;
#796 = VERTEX_POINT ( 'NONE', #342 ) ;
#797 = PLANE ( 'NONE',  #737 ) ;
#798 = EDGE_LOOP ( 'NONE', ( #98, #846 ) ) ;
#799 = CARTESIAN_POINT ( 'NONE',  ( 7.047314121155778821E-16, 0.2100000000000001310, -0.3999999999999997446 ) ) ;
#800 = AXIS2_PLACEMENT_3D ( 'NONE', #953, #1040, #441 ) ;
#801 = MECHANICAL_DESIGN_GEOMETRIC_PRESENTATION_REPRESENTATION (  '', ( #199 ), #233 ) ;
#802 = EDGE_CURVE ( 'NONE', #791, #28, #137, .T. ) ;
#803 = VERTEX_POINT ( 'NONE', #133 ) ;
#804 = DIRECTION ( 'NONE',  ( 1.000000000000000000, 0.000000000000000000, -0.000000000000000000 ) ) ;
#805 =( LENGTH_UNIT ( ) NAMED_UNIT ( * ) SI_UNIT ( .MILLI., .METRE. ) );
#806 = ADVANCED_FACE ( 'NONE', ( #864 ), #543, .F. ) ;
#807 = ORIENTED_EDGE ( 'NONE', *, *, #662, .T. ) ;
#808 = DIRECTION ( 'NONE',  ( 0.000000000000000000, 0.000000000000000000, 1.000000000000000000 ) ) ;
#809 = DIRECTION ( 'NONE',  ( -0.000000000000000000, 1.000000000000000000, 0.000000000000000000 ) ) ;
#810 = COLOUR_RGB ( '',0.7921568627450980005, 0.8196078431372548767, 0.9333333333333333481 ) ;
#811 = FACE_OUTER_BOUND ( 'NONE', #126, .T. ) ;
#812 = VERTEX_POINT ( 'NONE', #116 ) ;
#813 =( LENGTH_UNIT ( ) NAMED_UNIT ( * ) SI_UNIT ( .MILLI., .METRE. ) );
#814 = DIRECTION ( 'NONE',  ( -0.000000000000000000, 1.000000000000000000, -0.000000000000000000 ) ) ;
#815 = CIRCLE ( 'NONE', #434, 0.09165151389911671553 ) ;
#816 = ORIENTED_EDGE ( 'NONE', *, *, #962, .F. ) ;
#817 = PLANE ( 'NONE',  #238 ) ;
#818 = AXIS2_PLACEMENT_3D ( 'NONE', #956, #616, #947 ) ;
#819 = DIRECTION ( 'NONE',  ( 0.000000000000000000, 0.000000000000000000, -1.000000000000000000 ) ) ;
#820 =( NAMED_UNIT ( * ) SI_UNIT ( $, .STERADIAN. ) SOLID_ANGLE_UNIT ( ) );
#821 = ADVANCED_FACE ( 'NONE', ( #373 ), #128, .T. ) ;
#822 = ORIENTED_EDGE ( 'NONE', *, *, #143, .T. ) ;
#823 = SURFACE_STYLE_USAGE ( .BOTH. , #633 ) ;
#824 = CARTESIAN_POINT ( 'NONE',  ( 7.047314121155778821E-16, 0.2100000000000001310, 0.4916515138991169875 ) ) ;
#825 = DIRECTION ( 'NONE',  ( 1.000000000000000000, 0.000000000000000000, -0.000000000000000000 ) ) ;
#826 = EDGE_LOOP ( 'NONE', ( #285, #733 ) ) ;
#827 = DIRECTION ( 'NONE',  ( -0.000000000000000000, 1.000000000000000000, -0.000000000000000000 ) ) ;
#828 = UNCERTAINTY_MEASURE_WITH_UNIT (LENGTH_MEASURE( 1.000000000000000082E-05 ), #289, 'distance_accuracy_value', 'NONE');
#829 = CIRCLE ( 'NONE', #1024, 0.09165151389911671553 ) ;
#830 = DIRECTION ( 'NONE',  ( -0.000000000000000000, 1.000000000000000000, 0.000000000000000000 ) ) ;
#831 = EDGE_CURVE ( 'NONE', #1053, #76, #215, .T. ) ;
#832 = MECHANICAL_DESIGN_GEOMETRIC_PRESENTATION_REPRESENTATION (  '', ( #676 ), #621 ) ;
#833 = EDGE_LOOP ( 'NONE', ( #902, #222 ) ) ;
#834 = CIRCLE ( 'NONE', #930, 0.1250000000000000000 ) ;
#835 = DIRECTION ( 'NONE',  ( 0.000000000000000000, 0.000000000000000000, 1.000000000000000000 ) ) ;
#836 = CARTESIAN_POINT ( 'NONE',  ( 7.159554854289340715E-16, 0.2100000000000001310, 0.3083484861008835565 ) ) ;
#837 = CARTESIAN_POINT ( 'NONE',  ( 7.047314121155778821E-16, 0.1250000000000000000, -0.3999999999999997446 ) ) ;
#838 = DIRECTION ( 'NONE',  ( -0.000000000000000000, 1.000000000000000000, -0.000000000000000000 ) ) ;
#839 = ORIENTED_EDGE ( 'NONE', *, *, #793, .F. ) ;
#840 = FILL_AREA_STYLE ('',( #612 ) ) ;
#841 = EDGE_LOOP ( 'NONE', ( #252, #785, #332 ) ) ;
#842 = DIRECTION ( 'NONE',  ( 0.000000000000000000, 0.000000000000000000, 1.000000000000000000 ) ) ;
#843 = CARTESIAN_POINT ( 'NONE',  ( 0.7340000000000019842, 0.6250000000000000000, 0.6655000000000012017 ) ) ;
#844 = PRESENTATION_STYLE_ASSIGNMENT (( #525 ) ) ;
#845 = AXIS2_PLACEMENT_3D ( 'NONE', #604, #509, #1010 ) ;
#846 = ORIENTED_EDGE ( 'NONE', *, *, #162, .T. ) ;
#847 = DIRECTION ( 'NONE',  ( 1.000000000000000000, 0.000000000000000000, -0.000000000000000000 ) ) ;
#848 = ORIENTED_EDGE ( 'NONE', *, *, #58, .F. ) ;
#849 = CARTESIAN_POINT ( 'NONE',  ( 7.159554854289340715E-16, 0.2100000000000001310, -0.09165151389911643798 ) ) ;
#850 = DIRECTION ( 'NONE',  ( 0.000000000000000000, 1.000000000000000000, 0.000000000000000000 ) ) ;
#851 = ADVANCED_FACE ( 'NONE', ( #879 ), #719, .T. ) ;
#852 = SURFACE_STYLE_FILL_AREA ( #867 ) ;
#853 = AXIS2_PLACEMENT_3D ( 'NONE', #460, #330, #995 ) ;
#854 = AXIS2_PLACEMENT_3D ( 'NONE', #195, #1035, #768 ) ;
#855 = CARTESIAN_POINT ( 'NONE',  ( -0.3999999999999993006, 0.1250000000000000000, 0.4000000000000002998 ) ) ;
#856 = ORIENTED_EDGE ( 'NONE', *, *, #471, .T. ) ;
#857 = CARTESIAN_POINT ( 'NONE',  ( -0.5504999999999984350, 0.5250000000000000222, -0.4131874999999998188 ) ) ;
#858 = DIRECTION ( 'NONE',  ( 0.000000000000000000, 0.000000000000000000, 1.000000000000000000 ) ) ;
#859 = MANIFOLD_SOLID_BREP ( 'Boss-Extrude2', #130 ) ;
#860 = AXIS2_PLACEMENT_3D ( 'NONE', #433, #277, #775 ) ;
#861 = FILL_AREA_STYLE ('',( #538 ) ) ;
#862 = SURFACE_STYLE_USAGE ( .BOTH. , #631 ) ;
#863 = ORIENTED_EDGE ( 'NONE', *, *, #47, .T. ) ;
#864 = FACE_OUTER_BOUND ( 'NONE', #80, .T. ) ;
#865 = CARTESIAN_POINT ( 'NONE',  ( 0.7340000000000019842, 0.2100000000000001310, 0.6655000000000012017 ) ) ;
#866 = DIRECTION ( 'NONE',  ( -1.000000000000000000, -0.000000000000000000, -0.000000000000000000 ) ) ;
#867 = FILL_AREA_STYLE ('',( #224 ) ) ;
#868 = EDGE_CURVE ( 'NONE', #76, #1053, #246, .T. ) ;
#869 = ORIENTED_EDGE ( 'NONE', *, *, #256, .F. ) ;
#870 = DIRECTION ( 'NONE',  ( 0.000000000000000000, 0.000000000000000000, -1.000000000000000000 ) ) ;
#871 = DIRECTION ( 'NONE',  ( -1.000000000000000000, 0.000000000000000000, 0.000000000000000000 ) ) ;
#872 = MANIFOLD_SOLID_BREP ( 'Revolve1', #777 ) ;
#873 = FILL_AREA_STYLE ('',( #553 ) ) ;
#874 = EDGE_CURVE ( 'NONE', #617, #773, #948, .T. ) ;
#875 = MECHANICAL_DESIGN_GEOMETRIC_PRESENTATION_REPRESENTATION (  '', ( #486 ), #228 ) ;
#876 = DIRECTION ( 'NONE',  ( 0.000000000000000000, 0.000000000000000000, 1.000000000000000000 ) ) ;
#877 =( GEOMETRIC_REPRESENTATION_CONTEXT ( 3 ) GLOBAL_UNCERTAINTY_ASSIGNED_CONTEXT ( ( #763 ) ) GLOBAL_UNIT_ASSIGNED_CONTEXT ( ( #377, #661, #679 ) ) REPRESENTATION_CONTEXT ( 'NONE', 'WORKASPACE' ) );
#878 = ORIENTED_EDGE ( 'NONE', *, *, #868, .F. ) ;
#879 = FACE_OUTER_BOUND ( 'NONE', #686, .T. ) ;
#880 = VECTOR ( 'NONE', #346, 1000.000000000000000 ) ;
#881 = AXIS2_PLACEMENT_3D ( 'NONE', #26, #282, #781 ) ;
#882 = EDGE_LOOP ( 'NONE', ( #884, #207, #488 ) ) ;
#883 = SURFACE_STYLE_USAGE ( .BOTH. , #570 ) ;
#884 = ORIENTED_EDGE ( 'NONE', *, *, #81, .F. ) ;
#885 = FACE_OUTER_BOUND ( 'NONE', #752, .T. ) ;
#886 = CARTESIAN_POINT ( 'NONE',  ( 0.4000000000000007438, 0.1250000000000000000, 2.710505431213761085E-16 ) ) ;
#887 = ADVANCED_FACE ( 'NONE', ( #650 ), #991, .T. ) ;
#888 = VERTEX_POINT ( 'NONE', #160 ) ;
#889 = CARTESIAN_POINT ( 'NONE',  ( -0.5504999999999984350, 0.3099999999999999978, -0.4819999999999997620 ) ) ;
#890 = DIRECTION ( 'NONE',  ( 1.000000000000000000, 0.000000000000000000, -0.000000000000000000 ) ) ;
#891 =( LENGTH_UNIT ( ) NAMED_UNIT ( * ) SI_UNIT ( .MILLI., .METRE. ) );
#892 = SURFACE_SIDE_STYLE ('',( #316 ) ) ;
#893 = COLOUR_RGB ( '',0.7921568627450980005, 0.8196078431372548767, 0.9333333333333333481 ) ;
#894 = VECTOR ( 'NONE', #255, 1000.000000000000000 ) ;
#895 = VECTOR ( 'NONE', #866, 1000.000000000000000 ) ;
#896 = VERTEX_POINT ( 'NONE', #581 ) ;
#897 = CARTESIAN_POINT ( 'NONE',  ( 0.4000000000000007438, 0.1250000000000000000, -0.3999999999999997446 ) ) ;
#898 = CARTESIAN_POINT ( 'NONE',  ( -0.3999999999999993006, 0.2100000000000001310, 0.09165151389911699309 ) ) ;
#899 = DIRECTION ( 'NONE',  ( 0.000000000000000000, 0.000000000000000000, 1.000000000000000000 ) ) ;
#900 = AXIS2_PLACEMENT_3D ( 'NONE', #682, #772, #593 ) ;
#901 = EDGE_CURVE ( 'NONE', #700, #244, #751, .T. ) ;
#902 = ORIENTED_EDGE ( 'NONE', *, *, #1094, .F. ) ;
#903 = CARTESIAN_POINT ( 'NONE',  ( 7.047314121155778821E-16, 0.000000000000000000, 2.787045856160470553E-16 ) ) ;
#904 = AXIS2_PLACEMENT_3D ( 'NONE', #943, #82, #421 ) ;
#905 = CARTESIAN_POINT ( 'NONE',  ( 0.4000000000000007438, 0.2100000000000001310, -0.3999999999999997446 ) ) ;
#906 = VERTEX_POINT ( 'NONE', #903 ) ;
#907 = ADVANCED_FACE ( 'NONE', ( #151 ), #324, .T. ) ;
#908 = FACE_OUTER_BOUND ( 'NONE', #139, .T. ) ;
#909 = CARTESIAN_POINT ( 'NONE',  ( 0.4000000000000007438, 0.2100000000000001310, 2.710505431213761085E-16 ) ) ;
#910 = VECTOR ( 'NONE', #485, 1000.000000000000000 ) ;
#911 = VECTOR ( 'NONE', #9, 1000.000000000000000 ) ;
#912 = ORIENTED_EDGE ( 'NONE', *, *, #353, .T. ) ;
#913 = CARTESIAN_POINT ( 'NONE',  ( -0.5504999999999984350, 0.6250000000000000000, -0.4819999999999997620 ) ) ;
#914 = COLOUR_RGB ( '',0.7921568627450980005, 0.8196078431372548767, 0.9333333333333333481 ) ;
#915 = DIRECTION ( 'NONE',  ( 1.000000000000000000, 0.000000000000000000, 1.224646799147353207E-16 ) ) ;
#916 = VERTEX_POINT ( 'NONE', #588 ) ;
#917 = ORIENTED_EDGE ( 'NONE', *, *, #162, .F. ) ;
#918 = DIRECTION ( 'NONE',  ( -0.000000000000000000, 1.000000000000000000, 0.000000000000000000 ) ) ;
#919 = PLANE ( 'NONE',  #487 ) ;
#920 = EDGE_CURVE ( 'NONE', #641, #592, #280, .T. ) ;
#921 = ORIENTED_EDGE ( 'NONE', *, *, #563, .F. ) ;
#922 = ORIENTED_EDGE ( 'NONE', *, *, #307, .T. ) ;
#923 = SPHERICAL_SURFACE ( 'NONE', #845, 0.1250000000000000000 ) ;
#924 = DIRECTION ( 'NONE',  ( 0.000000000000000000, 0.000000000000000000, 1.000000000000000000 ) ) ;
#925 = CARTESIAN_POINT ( 'NONE',  ( -0.3999999999999993006, 0.000000000000000000, 2.787045856160470553E-16 ) ) ;
#926 = DIRECTION ( 'NONE',  ( -1.000000000000000000, 0.000000000000000000, 0.000000000000000000 ) ) ;
#927 = UNCERTAINTY_MEASURE_WITH_UNIT (LENGTH_MEASURE( 1.000000000000000082E-05 ), #131, 'distance_accuracy_value', 'NONE');
#928 = CIRCLE ( 'NONE', #379, 0.1250000000000000000 ) ;
#929 = ORIENTED_EDGE ( 'NONE', *, *, #148, .F. ) ;
#930 = AXIS2_PLACEMENT_3D ( 'NONE', #366, #708, #20 ) ;
#931 = CARTESIAN_POINT ( 'NONE',  ( 0.7340000000000019842, -1.981561253153685254, 0.6655000000000012017 ) ) ;
#932 = VERTEX_POINT ( 'NONE', #64 ) ;
#933 = AXIS2_PLACEMENT_3D ( 'NONE', #75, #830, #1032 ) ;
#934 = DIRECTION ( 'NONE',  ( 0.000000000000000000, 0.000000000000000000, 1.000000000000000000 ) ) ;
#935 = DIRECTION ( 'NONE',  ( 0.000000000000000000, 1.000000000000000000, 0.000000000000000000 ) ) ;
#936 = CARTESIAN_POINT ( 'NONE',  ( 7.047314121155778821E-16, 0.1250000000000000000, 2.710505431213761085E-16 ) ) ;
#937 = ORIENTED_EDGE ( 'NONE', *, *, #778, .F. ) ;
#938 = FACE_OUTER_BOUND ( 'NONE', #841, .T. ) ;
#939 = ORIENTED_EDGE ( 'NONE', *, *, #1023, .T. ) ;
#940 = DIRECTION ( 'NONE',  ( 0.000000000000000000, 0.000000000000000000, 1.000000000000000000 ) ) ;
#941 = DIRECTION ( 'NONE',  ( 0.000000000000000000, -0.000000000000000000, 1.000000000000000000 ) ) ;
#942 = CYLINDRICAL_SURFACE ( 'NONE', #590, 0.06881249999999997091 ) ;
#943 = CARTESIAN_POINT ( 'NONE',  ( 0.4000000000000007438, 0.1250000000000000000, 0.4000000000000002998 ) ) ;
#944 = ADVANCED_FACE ( 'NONE', ( #908 ), #731, .T. ) ;
#945 = DIRECTION ( 'NONE',  ( 0.000000000000000000, 0.000000000000000000, 1.000000000000000000 ) ) ;
#946 = PLANE ( 'NONE',  #950 ) ;
#947 = DIRECTION ( 'NONE',  ( 0.000000000000000000, 0.000000000000000000, 1.000000000000000000 ) ) ;
#948 = CIRCLE ( 'NONE', #853, 0.09165151389911671553 ) ;
#949 = MECHANICAL_DESIGN_GEOMETRIC_PRESENTATION_REPRESENTATION (  '', ( #381 ), #230 ) ;
#950 = AXIS2_PLACEMENT_3D ( 'NONE', #84, #423, #3 ) ;
#951 = ORIENTED_EDGE ( 'NONE', *, *, #747, .T. ) ;
#952 = CARTESIAN_POINT ( 'NONE',  ( -0.5504999999999984350, 0.6250000000000000000, -0.4819999999999997620 ) ) ;
#953 = CARTESIAN_POINT ( 'NONE',  ( 7.047314121155778821E-16, 0.1250000000000000000, 2.710505431213761085E-16 ) ) ;
#954 = AXIS2_PLACEMENT_3D ( 'NONE', #313, #232, #146 ) ;
#955 = SURFACE_SIDE_STYLE ('',( #102 ) ) ;
#956 = CARTESIAN_POINT ( 'NONE',  ( -0.3999999999999993006, 0.1250000000000000000, 0.4000000000000002998 ) ) ;
#957 =( NAMED_UNIT ( * ) SI_UNIT ( $, .STERADIAN. ) SOLID_ANGLE_UNIT ( ) );
#958 = ORIENTED_EDGE ( 'NONE', *, *, #868, .T. ) ;
#959 = DIRECTION ( 'NONE',  ( 0.000000000000000000, 0.000000000000000000, 1.000000000000000000 ) ) ;
#960 =( LENGTH_UNIT ( ) NAMED_UNIT ( * ) SI_UNIT ( .MILLI., .METRE. ) );
#961 = CARTESIAN_POINT ( 'NONE',  ( -0.5504999999999984350, 0.5250000000000000222, -0.4819999999999997620 ) ) ;
#962 = EDGE_CURVE ( 'NONE', #318, #767, #506, .T. ) ;
#963 =( LENGTH_UNIT ( ) NAMED_UNIT ( * ) SI_UNIT ( .MILLI., .METRE. ) );
#964 = ORIENTED_EDGE ( 'NONE', *, *, #412, .T. ) ;
#965 = DIRECTION ( 'NONE',  ( 0.000000000000000000, 1.000000000000000000, 0.000000000000000000 ) ) ;
#966 =( GEOMETRIC_REPRESENTATION_CONTEXT ( 3 ) GLOBAL_UNCERTAINTY_ASSIGNED_CONTEXT ( ( #87 ) ) GLOBAL_UNIT_ASSIGNED_CONTEXT ( ( #969, #725, #1066 ) ) REPRESENTATION_CONTEXT ( 'NONE', 'WORKASPACE' ) );
#967 = AXIS2_PLACEMENT_3D ( 'NONE', #99, #279, #779 ) ;
#968 = ORIENTED_EDGE ( 'NONE', *, *, #204, .F. ) ;
#969 =( LENGTH_UNIT ( ) NAMED_UNIT ( * ) SI_UNIT ( .MILLI., .METRE. ) );
#970 = DIRECTION ( 'NONE',  ( 0.000000000000000000, 0.000000000000000000, 1.000000000000000000 ) ) ;
#971 = AXIS2_PLACEMENT_3D ( 'NONE', #961, #643, #210 ) ;
#972 = MECHANICAL_DESIGN_GEOMETRIC_PRESENTATION_REPRESENTATION (  '', ( #561 ), #34 ) ;
#973 = CLOSED_SHELL ( 'NONE', ( #5, #1086, #274, #328, #1079, #821, #806, #712, #167 ) ) ;
#974 = ORIENTED_EDGE ( 'NONE', *, *, #81, .T. ) ;
#975 = ADVANCED_FACE ( 'NONE', ( #998 ), #740, .T. ) ;
#976 = SURFACE_STYLE_USAGE ( .BOTH. , #980 ) ;
#977 = DIRECTION ( 'NONE',  ( 0.000000000000000000, 0.000000000000000000, 1.000000000000000000 ) ) ;
#978 = SURFACE_STYLE_USAGE ( .BOTH. , #477 ) ;
#979 = ORIENTED_EDGE ( 'NONE', *, *, #962, .T. ) ;
#980 = SURFACE_SIDE_STYLE ('',( #1054 ) ) ;
#981 = CARTESIAN_POINT ( 'NONE',  ( -0.5504999999999984350, 0.6250000000000000000, -0.4819999999999997620 ) ) ;
#982 = SURFACE_STYLE_USAGE ( .BOTH. , #892 ) ;
#983 = ORIENTED_EDGE ( 'NONE', *, *, #412, .F. ) ;
#984 = DIRECTION ( 'NONE',  ( -1.000000000000000000, 0.000000000000000000, 0.000000000000000000 ) ) ;
#985 = SPHERICAL_SURFACE ( 'NONE', #954, 0.1250000000000000000 ) ;
#986 = AXIS2_PLACEMENT_3D ( 'NONE', #897, #389, #312 ) ;
#987 = CARTESIAN_POINT ( 'NONE',  ( -0.7339999999999985425, 0.6250000000000000000, -0.6654999999999994253 ) ) ;
#988 = PRESENTATION_LAYER_ASSIGNMENT (  '', '', ( #561 ) ) ;
#989 = ADVANCED_FACE ( 'NONE', ( #154 ), #817, .T. ) ;
#990 = CIRCLE ( 'NONE', #457, 0.1250000000000000000 ) ;
#991 = SPHERICAL_SURFACE ( 'NONE', #32, 0.1250000000000000000 ) ;
#992 = CYLINDRICAL_SURFACE ( 'NONE', #173, 0.06881249999999997091 ) ;
#993 = EDGE_CURVE ( 'NONE', #1058, #458, #94, .T. ) ;
#994 = ORIENTED_EDGE ( 'NONE', *, *, #747, .F. ) ;
#995 = DIRECTION ( 'NONE',  ( 0.000000000000000000, 0.000000000000000000, 1.000000000000000000 ) ) ;
#996 = DIRECTION ( 'NONE',  ( 0.000000000000000000, 1.000000000000000000, 0.000000000000000000 ) ) ;
#997 = ORIENTED_EDGE ( 'NONE', *, *, #662, .F. ) ;
#998 = FACE_OUTER_BOUND ( 'NONE', #580, .T. ) ;
#999 = DIRECTION ( 'NONE',  ( -0.000000000000000000, 1.000000000000000000, -0.000000000000000000 ) ) ;
#1000 = AXIS2_PLACEMENT_3D ( 'NONE', #489, #984, #734 ) ;
#1001 = PRESENTATION_LAYER_ASSIGNMENT (  '', '', ( #381 ) ) ;
#1002 = AXIS2_PLACEMENT_3D ( 'NONE', #536, #77, #599 ) ;
#1003 = CARTESIAN_POINT ( 'NONE',  ( -0.5504999999999984350, 0.5250000000000000222, -0.4819999999999997620 ) ) ;
#1004 = ORIENTED_EDGE ( 'NONE', *, *, #148, .T. ) ;
#1005 = CARTESIAN_POINT ( 'NONE',  ( 7.047314121155778821E-16, 0.000000000000000000, 0.4000000000000002998 ) ) ;
#1006 = EDGE_CURVE ( 'NONE', #696, #663, #4, .T. ) ;
#1007 = CARTESIAN_POINT ( 'NONE',  ( -0.7339999999999985425, 0.2100000000000001310, -0.6654999999999994253 ) ) ;
#1008 = VERTEX_POINT ( 'NONE', #677 ) ;
#1009 = ORIENTED_EDGE ( 'NONE', *, *, #478, .F. ) ;
#1010 = DIRECTION ( 'NONE',  ( 0.000000000000000000, 0.000000000000000000, 1.000000000000000000 ) ) ;
#1011 = COLOUR_RGB ( '',0.7921568627450980005, 0.8196078431372548767, 0.9333333333333333481 ) ;
#1012 = DIRECTION ( 'NONE',  ( -0.000000000000000000, 1.000000000000000000, -0.000000000000000000 ) ) ;
#1013 = ADVANCED_FACE ( 'NONE', ( #758 ), #21, .T. ) ;
#1014 = DIRECTION ( 'NONE',  ( 0.000000000000000000, 0.000000000000000000, 1.000000000000000000 ) ) ;
#1015 = DIRECTION ( 'NONE',  ( 1.000000000000000000, 0.000000000000000000, 1.224646799147353207E-16 ) ) ;
#1016 = SPHERICAL_SURFACE ( 'NONE', #904, 0.1250000000000000000 ) ;
#1017 = DIRECTION ( 'NONE',  ( 0.000000000000000000, 0.000000000000000000, 1.000000000000000000 ) ) ;
#1018 = DIRECTION ( 'NONE',  ( -0.000000000000000000, 1.000000000000000000, -0.000000000000000000 ) ) ;
#1019 = AXIS2_PLACEMENT_3D ( 'NONE', #36, #214, #122 ) ;
#1020 = DIRECTION ( 'NONE',  ( 0.000000000000000000, 0.000000000000000000, 1.000000000000000000 ) ) ;
#1021 = UNCERTAINTY_MEASURE_WITH_UNIT (LENGTH_MEASURE( 1.000000000000000082E-05 ), #355, 'distance_accuracy_value', 'NONE');
#1022 = VECTOR ( 'NONE', #325, 1000.000000000000000 ) ;
#1023 = EDGE_CURVE ( 'NONE', #375, #605, #42, .T. ) ;
#1024 = AXIS2_PLACEMENT_3D ( 'NONE', #436, #86, #25 ) ;
#1025 = STYLED_ITEM ( 'NONE', ( #454 ), #514 ) ;
#1026 = CIRCLE ( 'NONE', #800, 0.1250000000000000000 ) ;
#1027 = CARTESIAN_POINT ( 'NONE',  ( -0.7339999999999985425, -1.981561253153685254, 0.6655000000000012017 ) ) ;
#1028 = ORIENTED_EDGE ( 'NONE', *, *, #901, .T. ) ;
#1029 = LINE ( 'NONE', #857, #636 ) ;
#1030 = FILL_AREA_STYLE ('',( #693 ) ) ;
#1031 = FILL_AREA_STYLE ('',( #184 ) ) ;
#1032 = DIRECTION ( 'NONE',  ( 0.000000000000000000, 0.000000000000000000, 1.000000000000000000 ) ) ;
#1033 = ADVANCED_FACE ( 'NONE', ( #6 ), #923, .T. ) ;
#1034 = ORIENTED_EDGE ( 'NONE', *, *, #608, .T. ) ;
#1035 = DIRECTION ( 'NONE',  ( -0.000000000000000000, 1.000000000000000000, -0.000000000000000000 ) ) ;
#1036 = DIRECTION ( 'NONE',  ( 0.000000000000000000, 0.000000000000000000, 1.000000000000000000 ) ) ;
#1037 = MANIFOLD_SOLID_BREP ( 'LPattern1[6]', #303 ) ;
#1038 = ORIENTED_EDGE ( 'NONE', *, *, #689, .T. ) ;
#1039 = FACE_OUTER_BOUND ( 'NONE', #236, .T. ) ;
#1040 = DIRECTION ( 'NONE',  ( -1.000000000000000000, 0.000000000000000000, 0.000000000000000000 ) ) ;
#1041 = DIRECTION ( 'NONE',  ( 1.000000000000000000, 0.000000000000000000, 1.224646799147353207E-16 ) ) ;
#1042 = CARTESIAN_POINT ( 'NONE',  ( -0.3999999999999993006, 0.1250000000000000000, 2.710505431213761085E-16 ) ) ;
#1043 = COLOUR_RGB ( '',0.7921568627450980005, 0.8196078431372548767, 0.9333333333333333481 ) ;
#1044 = AXIS2_PLACEMENT_3D ( 'NONE', #787, #385, #297 ) ;
#1045 = ORIENTED_EDGE ( 'NONE', *, *, #778, .T. ) ;
#1046 =( NAMED_UNIT ( * ) SI_UNIT ( $, .STERADIAN. ) SOLID_ANGLE_UNIT ( ) );
#1047 = CIRCLE ( 'NONE', #414, 0.1250000000000000000 ) ;
#1048 = SPHERICAL_SURFACE ( 'NONE', #492, 0.1250000000000000000 ) ;
#1049 = VERTEX_POINT ( 'NONE', #1005 ) ;
#1050 = FILL_AREA_STYLE ('',( #551 ) ) ;
#1051 = SPHERICAL_SURFACE ( 'NONE', #142, 0.1250000000000000000 ) ;
#1052 = ADVANCED_BREP_SHAPE_REPRESENTATION ( 'DRV2624YFFR', ( #872, #859, #149, #514, #495, #524, #305, #1037, #498, #138, #311, #390 ), #548 ) ;
#1053 = VERTEX_POINT ( 'NONE', #106 ) ;
#1054 = SURFACE_STYLE_FILL_AREA ( #296 ) ;
#1055 = DIRECTION ( 'NONE',  ( 0.000000000000000000, 0.000000000000000000, 1.000000000000000000 ) ) ;
#1056 = ADVANCED_FACE ( 'NONE', ( #520 ), #170, .T. ) ;
#1057 = VECTOR ( 'NONE', #188, 1000.000000000000000 ) ;
#1058 = VERTEX_POINT ( 'NONE', #186 ) ;
#1059 = DIRECTION ( 'NONE',  ( 1.000000000000000000, 0.000000000000000000, -0.000000000000000000 ) ) ;
#1060 = CARTESIAN_POINT ( 'NONE',  ( -0.7339999999999985425, -1.981561253153685254, 0.6655000000000012017 ) ) ;
#1061 = PRESENTATION_LAYER_ASSIGNMENT (  '', '', ( #676 ) ) ;
#1062 = CIRCLE ( 'NONE', #455, 0.1250000000000000000 ) ;
#1063 = SURFACE_STYLE_USAGE ( .BOTH. , #955 ) ;
#1064 = ADVANCED_FACE ( 'NONE', ( #938 ), #1016, .T. ) ;
#1065 = ORIENTED_EDGE ( 'NONE', *, *, #256, .T. ) ;
#1066 =( NAMED_UNIT ( * ) SI_UNIT ( $, .STERADIAN. ) SOLID_ANGLE_UNIT ( ) );
#1067 =( NAMED_UNIT ( * ) SI_UNIT ( $, .STERADIAN. ) SOLID_ANGLE_UNIT ( ) );
#1068 = FILL_AREA_STYLE ('',( #727 ) ) ;
#1069 = EDGE_LOOP ( 'NONE', ( #295, #107 ) ) ;
#1070 = CARTESIAN_POINT ( 'NONE',  ( 0.7340000000000019842, 0.6250000000000000000, -0.6654999999999994253 ) ) ;
#1071 = EDGE_CURVE ( 'NONE', #767, #318, #44, .T. ) ;
#1072 = CARTESIAN_POINT ( 'NONE',  ( 7.047314121155778821E-16, 0.1250000000000000000, -0.3999999999999997446 ) ) ;
#1073 =( NAMED_UNIT ( * ) PLANE_ANGLE_UNIT ( ) SI_UNIT ( $, .RADIAN. ) );
#1074 = ORIENTED_EDGE ( 'NONE', *, *, #499, .F. ) ;
#1075 = DIRECTION ( 'NONE',  ( 0.000000000000000000, 0.000000000000000000, 1.000000000000000000 ) ) ;
#1076 = AXIS2_PLACEMENT_3D ( 'NONE', #909, #315, #406 ) ;
#1077 = LINE ( 'NONE', #503, #910 ) ;
#1078 = CARTESIAN_POINT ( 'NONE',  ( 0.4000000000000007438, 0.2100000000000001310, 0.09165151389911697921 ) ) ;
#1079 = ADVANCED_FACE ( 'NONE', ( #250 ), #533, .T. ) ;
#1080 = AXIS2_PLACEMENT_3D ( 'NONE', #391, #703, #1036 ) ;
#1081 = ORIENTED_EDGE ( 'NONE', *, *, #831, .F. ) ;
#1082 = DIRECTION ( 'NONE',  ( 0.000000000000000000, 0.000000000000000000, 1.000000000000000000 ) ) ;
#1083 = ORIENTED_EDGE ( 'NONE', *, *, #793, .T. ) ;
#1084 = DIRECTION ( 'NONE',  ( 0.000000000000000000, -0.000000000000000000, 1.000000000000000000 ) ) ;
#1085 = CARTESIAN_POINT ( 'NONE',  ( -0.3999999999999993006, 0.2100000000000001310, -0.3083484861008830014 ) ) ;
#1086 = ADVANCED_FACE ( 'NONE', ( #766 ), #193, .T. ) ;
#1087 = ORIENTED_EDGE ( 'NONE', *, *, #831, .T. ) ;
#1088 = DIRECTION ( 'NONE',  ( 1.000000000000000000, 0.000000000000000000, -0.000000000000000000 ) ) ;
#1089 = AXIS2_PLACEMENT_3D ( 'NONE', #286, #628, #959 ) ;
#1090 = AXIS2_PLACEMENT_3D ( 'NONE', #29, #1018, #357 ) ;
#1091 = AXIS2_PLACEMENT_3D ( 'NONE', #569, #890, #970 ) ;
#1092 = DIRECTION ( 'NONE',  ( 0.000000000000000000, 1.000000000000000000, 0.000000000000000000 ) ) ;
#1093 = ORIENTED_EDGE ( 'NONE', *, *, #212, .T. ) ;
#1094 = EDGE_CURVE ( 'NONE', #812, #567, #327, .T. ) ;
#1095 = DIRECTION ( 'NONE',  ( 1.000000000000000000, -0.000000000000000000, 0.000000000000000000 ) ) ;
#1096 = PLANE ( 'NONE',  #300 ) ;
ENDSEC;
END-ISO-10303-21;
