ISO-10303-21;
HEADER;
FILE_DESCRIPTION (( 'STEP AP214' ),
    '1' );
FILE_NAME ('TCR3UG33A,LF.STEP',
    '2021-12-06T21:54:05',
    ( '' ),
    ( '' ),
    'SwSTEP 2.0',
    'SolidWorks 2017',
    '' );
FILE_SCHEMA (( 'AUTOMOTIVE_DESIGN' ));
ENDSEC;

DATA;
#1 = VERTEX_POINT ( 'NONE', #137 ) ;
#2 = ORIENTED_EDGE ( 'NONE', *, *, #245, .F. ) ;
#3 = FACE_BOUND ( 'NONE', #47, .T. ) ;
#4 = CARTESIAN_POINT ( 'NONE',  ( -0.3224999999999998400, 0.1199999999999998800, 0.3224999999999999000 ) ) ;
#5 = CARTESIAN_POINT ( 'NONE',  ( -0.1749999999999999900, 0.09750000000000000300, 0.07749999999999995800 ) ) ;
#6 = MANIFOLD_SOLID_BREP ( 'Pin 1 Mark', #228 ) ;
#7 = EDGE_CURVE ( 'NONE', #455, #1, #463, .T. ) ;
#8 = DIRECTION ( 'NONE',  ( 1.000000000000000000, 1.390002785237825600E-016, 0.0000000000000000000 ) ) ;
#9 = ADVANCED_BREP_SHAPE_REPRESENTATION ( 'TCR3UG33A,LF', ( #649, #90, #64, #427, #523, #6, #18 ), #125 ) ;
#10 = ORIENTED_EDGE ( 'NONE', *, *, #166, .F. ) ;
#11 = CARTESIAN_POINT ( 'NONE',  ( 0.3499999999999999800, 0.1200000000000000000, 0.0000000000000000000 ) ) ;
#12 = DIRECTION ( 'NONE',  ( 0.0000000000000000000, 1.000000000000000000, 0.0000000000000000000 ) ) ;
#13 = CIRCLE ( 'NONE', #81, 0.07499999999999998300 ) ;
#14 = DIRECTION ( 'NONE',  ( 0.0000000000000000000, 0.0000000000000000000, 1.000000000000000000 ) ) ;
#15 = FACE_OUTER_BOUND ( 'NONE', #694, .T. ) ;
#16 = ADVANCED_FACE ( 'NONE', ( #430 ), #628, .T. ) ;
#17 = CARTESIAN_POINT ( 'NONE',  ( 0.1749999999999999600, 0.09750000000000000300, -0.1749999999999999900 ) ) ;
#18 = AXIS2_PLACEMENT_3D ( 'NONE', #479, #204, #209 ) ;
#19 = PRESENTATION_LAYER_ASSIGNMENT (  '', '', ( #287 ) ) ;
#20 = ORIENTED_EDGE ( 'NONE', *, *, #640, .T. ) ;
#21 = CARTESIAN_POINT ( 'NONE',  ( -0.1750000000000000200, 0.09750000000000000300, -0.07749999999999995800 ) ) ;
#22 = EDGE_LOOP ( 'NONE', ( #667, #632 ) ) ;
#23 = DIRECTION ( 'NONE',  ( -0.0000000000000000000, 1.000000000000000000, -0.0000000000000000000 ) ) ;
#24 = VECTOR ( 'NONE', #100, 1000.000000000000000 ) ;
#25 = DIRECTION ( 'NONE',  ( 0.0000000000000000000, 1.000000000000000000, 0.0000000000000000000 ) ) ;
#26 = EDGE_CURVE ( 'NONE', #304, #261, #696, .T. ) ;
#27 = FILL_AREA_STYLE_COLOUR ( '', #537 ) ;
#28 = DIRECTION ( 'NONE',  ( 1.000000000000000000, -0.0000000000000000000, 0.0000000000000000000 ) ) ;
#29 = DIRECTION ( 'NONE',  ( 0.0000000000000000000, 0.0000000000000000000, 1.000000000000000000 ) ) ;
#30 = DIRECTION ( 'NONE',  ( 0.0000000000000000000, -1.000000000000000000, 0.0000000000000000000 ) ) ;
#31 = VERTEX_POINT ( 'NONE', #195 ) ;
#32 = DIRECTION ( 'NONE',  ( 0.0000000000000000000, -1.000000000000000000, 0.0000000000000000000 ) ) ;
#33 = ORIENTED_EDGE ( 'NONE', *, *, #547, .F. ) ;
#34 = CIRCLE ( 'NONE', #236, 0.07499999999999998300 ) ;
#35 = APPLICATION_PROTOCOL_DEFINITION ( 'draft international standard', 'automotive_design', 1998, #145 ) ;
#36 = CYLINDRICAL_SURFACE ( 'NONE', #225, 0.07499999999999998300 ) ;
#37 = AXIS2_PLACEMENT_3D ( 'NONE', #155, #215, #327 ) ;
#38 = ORIENTED_EDGE ( 'NONE', *, *, #457, .F. ) ;
#39 = ORIENTED_EDGE ( 'NONE', *, *, #678, .F. ) ;
#40 = ORIENTED_EDGE ( 'NONE', *, *, #76, .T. ) ;
#41 = CARTESIAN_POINT ( 'NONE',  ( -0.1750000000000000200, 0.1200000000000000000, 0.2698683298050514300 ) ) ;
#42 = CIRCLE ( 'NONE', #454, 0.09750000000000004500 ) ;
#43 = PRESENTATION_STYLE_ASSIGNMENT (( #557 ) ) ;
#44 = PLANE ( 'NONE',  #428 ) ;
#45 = MECHANICAL_DESIGN_GEOMETRIC_PRESENTATION_REPRESENTATION (  '', ( #439 ), #356 ) ;
#46 = DIRECTION ( 'NONE',  ( 0.0000000000000000000, 0.0000000000000000000, -1.000000000000000000 ) ) ;
#47 = EDGE_LOOP ( 'NONE', ( #83, #2 ) ) ;
#48 = ORIENTED_EDGE ( 'NONE', *, *, #587, .T. ) ;
#49 = EDGE_CURVE ( 'NONE', #497, #392, #571, .T. ) ;
#50 = FACE_OUTER_BOUND ( 'NONE', #129, .T. ) ;
#51 = DIRECTION ( 'NONE',  ( 0.0000000000000000000, 1.000000000000000000, 0.0000000000000000000 ) ) ;
#52 = FACE_BOUND ( 'NONE', #271, .T. ) ;
#53 = EDGE_CURVE ( 'NONE', #407, #374, #437, .T. ) ;
#54 = FILL_AREA_STYLE_COLOUR ( '', #421 ) ;
#55 = AXIS2_PLACEMENT_3D ( 'NONE', #17, #78, #567 ) ;
#56 = PRESENTATION_STYLE_ASSIGNMENT (( #134 ) ) ;
#57 = MECHANICAL_DESIGN_GEOMETRIC_PRESENTATION_REPRESENTATION (  '', ( #287 ), #684 ) ;
#58 = LINE ( 'NONE', #4, #257 ) ;
#59 = AXIS2_PLACEMENT_3D ( 'NONE', #315, #32, #376 ) ;
#60 = UNCERTAINTY_MEASURE_WITH_UNIT (LENGTH_MEASURE( 1.000000000000000100E-005 ), #424, 'distance_accuracy_value', 'NONE');
#61 = CIRCLE ( 'NONE', #112, 0.07499999999999998300 ) ;
#62 = DIRECTION ( 'NONE',  ( 0.0000000000000000000, 0.0000000000000000000, -1.000000000000000000 ) ) ;
#63 = ORIENTED_EDGE ( 'NONE', *, *, #76, .F. ) ;
#64 = MANIFOLD_SOLID_BREP ( 'Pin 4', #203 ) ;
#65 = ORIENTED_EDGE ( 'NONE', *, *, #434, .T. ) ;
#66 =( NAMED_UNIT ( * ) SI_UNIT ( $, .STERADIAN. ) SOLID_ANGLE_UNIT ( ) );
#67 = DIRECTION ( 'NONE',  ( 1.000000000000000000, 1.390002785237825600E-016, 0.0000000000000000000 ) ) ;
#68 = SURFACE_SIDE_STYLE ('',( #288 ) ) ;
#69 = MECHANICAL_DESIGN_GEOMETRIC_PRESENTATION_REPRESENTATION (  '', ( #381 ), #311 ) ;
#70 = CARTESIAN_POINT ( 'NONE',  ( 0.1749999999999999600, 0.09750000000000000300, 0.2725000000000000800 ) ) ;
#71 = FILL_AREA_STYLE ('',( #666 ) ) ;
#72 = ORIENTED_EDGE ( 'NONE', *, *, #434, .F. ) ;
#73 = CARTESIAN_POINT ( 'NONE',  ( -0.1974999999999998100, 0.2799999999999999700, -0.1975000000000000400 ) ) ;
#74 = SHAPE_DEFINITION_REPRESENTATION ( #104, #9 ) ;
#75 = CARTESIAN_POINT ( 'NONE',  ( 0.3225000000000001200, 0.1199999999999998800, 0.3224999999999999000 ) ) ;
#76 = EDGE_CURVE ( 'NONE', #221, #119, #61, .T. ) ;
#77 = DIRECTION ( 'NONE',  ( 0.0000000000000000000, 0.0000000000000000000, 1.000000000000000000 ) ) ;
#78 = DIRECTION ( 'NONE',  ( 1.224646799147353200E-016, -1.000000000000000000, 1.702262461747408900E-032 ) ) ;
#79 = DIRECTION ( 'NONE',  ( -0.0000000000000000000, 0.0000000000000000000, 1.000000000000000000 ) ) ;
#80 = PRODUCT ( 'TCR3UG33A,LF', 'TCR3UG33A,LF', '', ( #580 ) ) ;
#81 = AXIS2_PLACEMENT_3D ( 'NONE', #113, #172, #223 ) ;
#82 = ORIENTED_EDGE ( 'NONE', *, *, #453, .T. ) ;
#83 = ORIENTED_EDGE ( 'NONE', *, *, #26, .F. ) ;
#84 = DIRECTION ( 'NONE',  ( 0.0000000000000000000, 0.0000000000000000000, -1.000000000000000000 ) ) ;
#85 = CIRCLE ( 'NONE', #97, 0.09486832980505141600 ) ;
#86 = DIRECTION ( 'NONE',  ( 0.0000000000000000000, 0.0000000000000000000, 1.000000000000000000 ) ) ;
#87 = CIRCLE ( 'NONE', #108, 0.09750000000000007300 ) ;
#88 =( LENGTH_UNIT ( ) NAMED_UNIT ( * ) SI_UNIT ( .MILLI., .METRE. ) );
#89 = CARTESIAN_POINT ( 'NONE',  ( -0.1974999999999998100, 0.2799999999999999700, -0.1975000000000000400 ) ) ;
#90 = MANIFOLD_SOLID_BREP ( 'Pin 2', #341 ) ;
#91 = ORIENTED_EDGE ( 'NONE', *, *, #49, .F. ) ;
#92 = ORIENTED_EDGE ( 'NONE', *, *, #582, .F. ) ;
#93 = EDGE_LOOP ( 'NONE', ( #229, #585, #238, #244 ) ) ;
#94 = FACE_OUTER_BOUND ( 'NONE', #542, .T. ) ;
#95 = DIRECTION ( 'NONE',  ( 0.0000000000000000000, 0.0000000000000000000, -1.000000000000000000 ) ) ;
#96 = FACE_OUTER_BOUND ( 'NONE', #418, .T. ) ;
#97 = AXIS2_PLACEMENT_3D ( 'NONE', #650, #530, #211 ) ;
#98 = DIRECTION ( 'NONE',  ( 0.0000000000000000000, 0.0000000000000000000, 1.000000000000000000 ) ) ;
#99 = AXIS2_PLACEMENT_3D ( 'NONE', #188, #255, #506 ) ;
#100 = DIRECTION ( 'NONE',  ( 0.0000000000000000000, 0.0000000000000000000, -1.000000000000000000 ) ) ;
#101 = EDGE_LOOP ( 'NONE', ( #343, #323, #352, #401 ) ) ;
#102 = VERTEX_POINT ( 'NONE', #21 ) ;
#103 = FACE_OUTER_BOUND ( 'NONE', #419, .T. ) ;
#104 = PRODUCT_DEFINITION_SHAPE ( 'NONE', 'NONE',  #614 ) ;
#105 = DIRECTION ( 'NONE',  ( 1.000000000000000000, 1.390002785237825600E-016, 0.0000000000000000000 ) ) ;
#106 = ADVANCED_FACE ( 'NONE', ( #141 ), #592, .T. ) ;
#107 = CARTESIAN_POINT ( 'NONE',  ( -0.3224999999999998400, 0.1199999999999998800, -0.3225000000000000100 ) ) ;
#108 = AXIS2_PLACEMENT_3D ( 'NONE', #611, #182, #14 ) ;
#109 = ORIENTED_EDGE ( 'NONE', *, *, #504, .T. ) ;
#110 = PRESENTATION_STYLE_ASSIGNMENT (( #301 ) ) ;
#111 = DIRECTION ( 'NONE',  ( -0.0000000000000000000, 1.000000000000000000, -0.0000000000000000000 ) ) ;
#112 = AXIS2_PLACEMENT_3D ( 'NONE', #410, #511, #189 ) ;
#113 = CARTESIAN_POINT ( 'NONE',  ( -0.1974999999999998100, 0.3300000000000000200, -0.1975000000000000400 ) ) ;
#114 = VECTOR ( 'NONE', #620, 1000.000000000000000 ) ;
#115 = DIRECTION ( 'NONE',  ( 0.0000000000000000000, 0.0000000000000000000, 1.000000000000000000 ) ) ;
#116 =( LENGTH_UNIT ( ) NAMED_UNIT ( * ) SI_UNIT ( .MILLI., .METRE. ) );
#117 = ADVANCED_FACE ( 'NONE', ( #618, #388 ), #593, .T. ) ;
#118 = ORIENTED_EDGE ( 'NONE', *, *, #615, .T. ) ;
#119 = VERTEX_POINT ( 'NONE', #317 ) ;
#120 = EDGE_LOOP ( 'NONE', ( #201, #254, #63, #705 ) ) ;
#121 = FILL_AREA_STYLE_COLOUR ( '', #532 ) ;
#122 = AXIS2_PLACEMENT_3D ( 'NONE', #342, #338, #115 ) ;
#123 = FACE_OUTER_BOUND ( 'NONE', #446, .T. ) ;
#124 = DIRECTION ( 'NONE',  ( 0.0000000000000000000, -0.0000000000000000000, 1.000000000000000000 ) ) ;
#125 =( GEOMETRIC_REPRESENTATION_CONTEXT ( 3 ) GLOBAL_UNCERTAINTY_ASSIGNED_CONTEXT ( ( #198 ) ) GLOBAL_UNIT_ASSIGNED_CONTEXT ( ( #88, #520, #583 ) ) REPRESENTATION_CONTEXT ( 'NONE', 'WORKASPACE' ) );
#126 = EDGE_CURVE ( 'NONE', #559, #518, #326, .T. ) ;
#127 = CARTESIAN_POINT ( 'NONE',  ( -0.3224999999999998400, -0.9121677477306462400, -0.3225000000000000100 ) ) ;
#128 = DIRECTION ( 'NONE',  ( 0.0000000000000000000, -1.000000000000000000, 0.0000000000000000000 ) ) ;
#129 = EDGE_LOOP ( 'NONE', ( #91, #167 ) ) ;
#130 = DIRECTION ( 'NONE',  ( -1.000000000000000000, 0.0000000000000000000, 0.0000000000000000000 ) ) ;
#131 = EDGE_LOOP ( 'NONE', ( #235, #637, #291, #616 ) ) ;
#132 = ADVANCED_FACE ( 'NONE', ( #184 ), #371, .F. ) ;
#133 = FACE_OUTER_BOUND ( 'NONE', #131, .T. ) ;
#134 = SURFACE_STYLE_USAGE ( .BOTH. , #621 ) ;
#135 = LINE ( 'NONE', #361, #483 ) ;
#136 =( NAMED_UNIT ( * ) SI_UNIT ( $, .STERADIAN. ) SOLID_ANGLE_UNIT ( ) );
#137 = CARTESIAN_POINT ( 'NONE',  ( -0.3224999999999998400, 0.3300000000000000200, 0.3224999999999999000 ) ) ;
#138 = ORIENTED_EDGE ( 'NONE', *, *, #207, .F. ) ;
#139 = CARTESIAN_POINT ( 'NONE',  ( 0.1749999999999999600, 0.1200000000000000000, -0.2698683298050514300 ) ) ;
#140 = EDGE_CURVE ( 'NONE', #392, #497, #465, .T. ) ;
#141 = FACE_OUTER_BOUND ( 'NONE', #93, .T. ) ;
#142 = FILL_AREA_STYLE ('',( #27 ) ) ;
#143 = DIRECTION ( 'NONE',  ( 0.0000000000000000000, 1.000000000000000000, 0.0000000000000000000 ) ) ;
#144 = PLANE ( 'NONE',  #368 ) ;
#145 = APPLICATION_CONTEXT ( 'automotive_design' ) ;
#146 = DIRECTION ( 'NONE',  ( 0.0000000000000000000, 0.0000000000000000000, 1.000000000000000000 ) ) ;
#147 = UNCERTAINTY_MEASURE_WITH_UNIT (LENGTH_MEASURE( 1.000000000000000100E-005 ), #543, 'distance_accuracy_value', 'NONE');
#148 = DIRECTION ( 'NONE',  ( -1.000000000000000000, -0.0000000000000000000, -0.0000000000000000000 ) ) ;
#149 = EDGE_LOOP ( 'NONE', ( #138, #380 ) ) ;
#150 = CARTESIAN_POINT ( 'NONE',  ( -0.1974999999999998100, 0.2799999999999999700, -0.1975000000000000400 ) ) ;
#151 = ORIENTED_EDGE ( 'NONE', *, *, #678, .T. ) ;
#152 = FACE_OUTER_BOUND ( 'NONE', #507, .T. ) ;
#153 = AXIS2_PLACEMENT_3D ( 'NONE', #417, #130, #308 ) ;
#154 = SPHERICAL_SURFACE ( 'NONE', #492, 0.09750000000000004500 ) ;
#155 = CARTESIAN_POINT ( 'NONE',  ( 0.1749999999999999600, 0.09750000000000000300, 0.1749999999999999900 ) ) ;
#156 = PRESENTATION_LAYER_ASSIGNMENT (  '', '', ( #192 ) ) ;
#157 = SURFACE_STYLE_FILL_AREA ( #233 ) ;
#158 = CLOSED_SHELL ( 'NONE', ( #468, #274, #224 ) ) ;
#159 = DIRECTION ( 'NONE',  ( 0.0000000000000000000, -1.000000000000000000, 0.0000000000000000000 ) ) ;
#160 = ORIENTED_EDGE ( 'NONE', *, *, #282, .F. ) ;
#161 = FACE_OUTER_BOUND ( 'NONE', #174, .T. ) ;
#162 = LINE ( 'NONE', #222, #522 ) ;
#163 = CARTESIAN_POINT ( 'NONE',  ( 0.3499999999999999800, 0.1200000000000000000, 0.3499999999999999800 ) ) ;
#164 = AXIS2_PLACEMENT_3D ( 'NONE', #450, #111, #284 ) ;
#165 = CARTESIAN_POINT ( 'NONE',  ( 0.3225000000000000100, 0.1199999999999998800, -0.3225000000000000100 ) ) ;
#166 = EDGE_CURVE ( 'NONE', #102, #289, #708, .T. ) ;
#167 = ORIENTED_EDGE ( 'NONE', *, *, #140, .F. ) ;
#168 = FACE_BOUND ( 'NONE', #489, .T. ) ;
#169 = LINE ( 'NONE', #353, #114 ) ;
#170 = EDGE_CURVE ( 'NONE', #374, #455, #293, .T. ) ;
#171 = FILL_AREA_STYLE ('',( #54 ) ) ;
#172 = DIRECTION ( 'NONE',  ( 0.0000000000000000000, 1.000000000000000000, 0.0000000000000000000 ) ) ;
#173 = AXIS2_PLACEMENT_3D ( 'NONE', #89, #631, #86 ) ;
#174 = EDGE_LOOP ( 'NONE', ( #279, #151, #109, #20 ) ) ;
#175 = ADVANCED_FACE ( 'NONE', ( #240, #281 ), #333, .T. ) ;
#176 = VECTOR ( 'NONE', #259, 1000.000000000000000 ) ;
#177 = AXIS2_PLACEMENT_3D ( 'NONE', #626, #373, #415 ) ;
#178 = EDGE_CURVE ( 'NONE', #344, #617, #599, .T. ) ;
#179 = DIRECTION ( 'NONE',  ( 0.0000000000000000000, 1.000000000000000000, 0.0000000000000000000 ) ) ;
#180 = DIRECTION ( 'NONE',  ( 1.224646799147353200E-016, -1.000000000000000000, 1.702262461747408900E-032 ) ) ;
#181 = EDGE_LOOP ( 'NONE', ( #529, #431, #647, #658 ) ) ;
#182 = DIRECTION ( 'NONE',  ( 0.0000000000000000000, 1.000000000000000000, 0.0000000000000000000 ) ) ;
#183 = VECTOR ( 'NONE', #690, 1000.000000000000000 ) ;
#184 = FACE_OUTER_BOUND ( 'NONE', #181, .T. ) ;
#185 = CARTESIAN_POINT ( 'NONE',  ( -0.1974999999999998100, 0.2799999999999999700, -0.1225000000000000500 ) ) ;
#186 = CARTESIAN_POINT ( 'NONE',  ( -0.1974999999999998100, 0.2799999999999999700, -0.1975000000000000400 ) ) ;
#187 = AXIS2_PLACEMENT_3D ( 'NONE', #581, #30, #205 ) ;
#188 = CARTESIAN_POINT ( 'NONE',  ( -0.1750000000000000200, 0.09750000000000000300, 0.1749999999999999900 ) ) ;
#189 = DIRECTION ( 'NONE',  ( 0.0000000000000000000, 0.0000000000000000000, 1.000000000000000000 ) ) ;
#190 = VERTEX_POINT ( 'NONE', #41 ) ;
#191 =( LENGTH_UNIT ( ) NAMED_UNIT ( * ) SI_UNIT ( .MILLI., .METRE. ) );
#192 = STYLED_ITEM ( 'NONE', ( #56 ), #6 ) ;
#193 = PRESENTATION_STYLE_ASSIGNMENT (( #710 ) ) ;
#194 = DIRECTION ( 'NONE',  ( 1.000000000000000000, 0.0000000000000000000, 0.0000000000000000000 ) ) ;
#195 = CARTESIAN_POINT ( 'NONE',  ( -0.1750000000000000200, 0.1200000000000000000, -0.08013167019494857300 ) ) ;
#196 = AXIS2_PLACEMENT_3D ( 'NONE', #186, #25, #577 ) ;
#197 = SURFACE_SIDE_STYLE ('',( #347 ) ) ;
#198 = UNCERTAINTY_MEASURE_WITH_UNIT (LENGTH_MEASURE( 1.000000000000000100E-005 ), #88, 'distance_accuracy_value', 'NONE');
#199 =( NAMED_UNIT ( * ) PLANE_ANGLE_UNIT ( ) SI_UNIT ( $, .RADIAN. ) );
#200 =( NAMED_UNIT ( * ) SI_UNIT ( $, .STERADIAN. ) SOLID_ANGLE_UNIT ( ) );
#201 = ORIENTED_EDGE ( 'NONE', *, *, #49, .T. ) ;
#202 = CARTESIAN_POINT ( 'NONE',  ( -0.3224999999999998400, 0.3300000000000000200, -0.3225000000000000100 ) ) ;
#203 = CLOSED_SHELL ( 'NONE', ( #248, #175, #608 ) ) ;
#204 = DIRECTION ( 'NONE',  ( 0.0000000000000000000, 0.0000000000000000000, 1.000000000000000000 ) ) ;
#205 = DIRECTION ( 'NONE',  ( 1.000000000000000000, 0.0000000000000000000, 2.780005570475651300E-016 ) ) ;
#206 = MECHANICAL_DESIGN_GEOMETRIC_PRESENTATION_REPRESENTATION (  '', ( #527 ), #337 ) ;
#207 = EDGE_CURVE ( 'NONE', #509, #648, #576, .T. ) ;
#208 = LINE ( 'NONE', #267, #402 ) ;
#209 = DIRECTION ( 'NONE',  ( 1.000000000000000000, 0.0000000000000000000, 0.0000000000000000000 ) ) ;
#210 = EDGE_CURVE ( 'NONE', #534, #31, #256, .T. ) ;
#211 = DIRECTION ( 'NONE',  ( 0.0000000000000000000, 0.0000000000000000000, -1.000000000000000000 ) ) ;
#212 = CLOSED_SHELL ( 'NONE', ( #613, #554, #447 ) ) ;
#213 = CARTESIAN_POINT ( 'NONE',  ( -0.1974999999999998100, 0.3300000000000000200, -0.1975000000000000400 ) ) ;
#214 = CIRCLE ( 'NONE', #177, 0.09486832980505141600 ) ;
#215 = DIRECTION ( 'NONE',  ( 0.0000000000000000000, -1.000000000000000000, 0.0000000000000000000 ) ) ;
#216 = CARTESIAN_POINT ( 'NONE',  ( -0.3224999999999998400, -0.9121677477306462400, 0.3224999999999999000 ) ) ;
#217 = DIRECTION ( 'NONE',  ( -0.0000000000000000000, 1.000000000000000000, -0.0000000000000000000 ) ) ;
#218 = EDGE_LOOP ( 'NONE', ( #429, #118 ) ) ;
#219 = VERTEX_POINT ( 'NONE', #645 ) ;
#220 = DIRECTION ( 'NONE',  ( -0.0000000000000000000, 1.000000000000000000, -0.0000000000000000000 ) ) ;
#221 = VERTEX_POINT ( 'NONE', #639 ) ;
#222 = CARTESIAN_POINT ( 'NONE',  ( -0.1974999999999998100, 0.2799999999999999700, -0.1225000000000000500 ) ) ;
#223 = DIRECTION ( 'NONE',  ( 0.0000000000000000000, 0.0000000000000000000, 1.000000000000000000 ) ) ;
#224 = ADVANCED_FACE ( 'NONE', ( #491 ), #44, .F. ) ;
#225 = AXIS2_PLACEMENT_3D ( 'NONE', #73, #682, #686 ) ;
#226 =( NAMED_UNIT ( * ) PLANE_ANGLE_UNIT ( ) SI_UNIT ( $, .RADIAN. ) );
#227 = AXIS2_PLACEMENT_3D ( 'NONE', #357, #671, #464 ) ;
#228 = CLOSED_SHELL ( 'NONE', ( #598, #302, #398, #660 ) ) ;
#229 = ORIENTED_EDGE ( 'NONE', *, *, #170, .F. ) ;
#230 = CARTESIAN_POINT ( 'NONE',  ( 0.1749999999999999600, 0.09750000000000000300, -0.1749999999999999900 ) ) ;
#231 = VECTOR ( 'NONE', #194, 1000.000000000000000 ) ;
#232 = CARTESIAN_POINT ( 'NONE',  ( -0.3224999999999998400, 0.3300000000000000200, -0.3225000000000000100 ) ) ;
#233 = FILL_AREA_STYLE ('',( #404 ) ) ;
#234 = PLANE ( 'NONE',  #275 ) ;
#235 = ORIENTED_EDGE ( 'NONE', *, *, #715, .F. ) ;
#236 = AXIS2_PLACEMENT_3D ( 'NONE', #213, #700, #98 ) ;
#237 = ORIENTED_EDGE ( 'NONE', *, *, #26, .T. ) ;
#238 = ORIENTED_EDGE ( 'NONE', *, *, #640, .F. ) ;
#239 = DIRECTION ( 'NONE',  ( -0.0000000000000000000, 1.000000000000000000, -0.0000000000000000000 ) ) ;
#240 = FACE_OUTER_BOUND ( 'NONE', #590, .T. ) ;
#241 = FACE_OUTER_BOUND ( 'NONE', #22, .T. ) ;
#242 = EDGE_CURVE ( 'NONE', #518, #304, #208, .T. ) ;
#243 = DIRECTION ( 'NONE',  ( 0.0000000000000000000, 0.0000000000000000000, 1.000000000000000000 ) ) ;
#244 = ORIENTED_EDGE ( 'NONE', *, *, #7, .F. ) ;
#245 = EDGE_CURVE ( 'NONE', #261, #304, #34, .T. ) ;
#246 = CLOSED_SHELL ( 'NONE', ( #502, #414, #106, #16, #332, #681, #132, #568, #539 ) ) ;
#247 = DIRECTION ( 'NONE',  ( 0.0000000000000000000, 0.0000000000000000000, 1.000000000000000000 ) ) ;
#248 = ADVANCED_FACE ( 'NONE', ( #123 ), #441, .T. ) ;
#249 = SURFACE_SIDE_STYLE ('',( #372 ) ) ;
#250 = CIRCLE ( 'NONE', #55, 0.09750000000000004500 ) ;
#251 = PRESENTATION_LAYER_ASSIGNMENT (  '', '', ( #701 ) ) ;
#252 = CARTESIAN_POINT ( 'NONE',  ( 0.1749999999999999600, 0.1200000000000000000, 0.2698683298050514300 ) ) ;
#253 =( NAMED_UNIT ( * ) PLANE_ANGLE_UNIT ( ) SI_UNIT ( $, .RADIAN. ) );
#254 = ORIENTED_EDGE ( 'NONE', *, *, #715, .T. ) ;
#255 = DIRECTION ( 'NONE',  ( 0.0000000000000000000, 1.000000000000000000, 0.0000000000000000000 ) ) ;
#256 = CIRCLE ( 'NONE', #533, 0.09486832980505141600 ) ;
#257 = VECTOR ( 'NONE', #62, 1000.000000000000000 ) ;
#258 = CARTESIAN_POINT ( 'NONE',  ( -0.1974999999999998100, 0.2799999999999999700, -0.2725000000000000200 ) ) ;
#259 = DIRECTION ( 'NONE',  ( -1.000000000000000000, 0.0000000000000000000, 0.0000000000000000000 ) ) ;
#260 = DIRECTION ( 'NONE',  ( -0.0000000000000000000, 1.000000000000000000, -0.0000000000000000000 ) ) ;
#261 = VERTEX_POINT ( 'NONE', #382 ) ;
#262 = AXIS2_PLACEMENT_3D ( 'NONE', #309, #689, #247 ) ;
#263 = VERTEX_POINT ( 'NONE', #591 ) ;
#264 = ORIENTED_EDGE ( 'NONE', *, *, #166, .T. ) ;
#265 = SURFACE_STYLE_FILL_AREA ( #635 ) ;
#266 = CYLINDRICAL_SURFACE ( 'NONE', #262, 0.07499999999999998300 ) ;
#267 = CARTESIAN_POINT ( 'NONE',  ( -0.1974999999999998100, 0.2799999999999999700, -0.1225000000000000500 ) ) ;
#268 = EDGE_CURVE ( 'NONE', #219, #364, #480, .T. ) ;
#269 = CARTESIAN_POINT ( 'NONE',  ( 0.1749999999999999600, 0.1200000000000000000, 0.1749999999999999900 ) ) ;
#270 = ORIENTED_EDGE ( 'NONE', *, *, #210, .T. ) ;
#271 = EDGE_LOOP ( 'NONE', ( #687, #472 ) ) ;
#272 = VECTOR ( 'NONE', #51, 1000.000000000000000 ) ;
#273 = PRESENTATION_LAYER_ASSIGNMENT (  '', '', ( #381 ) ) ;
#274 = ADVANCED_FACE ( 'NONE', ( #448, #168 ), #586, .T. ) ;
#275 = AXIS2_PLACEMENT_3D ( 'NONE', #295, #350, #124 ) ;
#276 = UNCERTAINTY_MEASURE_WITH_UNIT (LENGTH_MEASURE( 1.000000000000000100E-005 ), #413, 'distance_accuracy_value', 'NONE');
#277 = DIRECTION ( 'NONE',  ( 0.0000000000000000000, 0.0000000000000000000, -1.000000000000000000 ) ) ;
#278 = AXIS2_PLACEMENT_3D ( 'NONE', #603, #283, #445 ) ;
#279 = ORIENTED_EDGE ( 'NONE', *, *, #268, .T. ) ;
#280 = ORIENTED_EDGE ( 'NONE', *, *, #587, .F. ) ;
#281 = FACE_BOUND ( 'NONE', #595, .T. ) ;
#282 = EDGE_CURVE ( 'NONE', #623, #697, #633, .T. ) ;
#283 = DIRECTION ( 'NONE',  ( 0.0000000000000000000, 0.0000000000000000000, -1.000000000000000000 ) ) ;
#284 = DIRECTION ( 'NONE',  ( 0.0000000000000000000, 0.0000000000000000000, -1.000000000000000000 ) ) ;
#285 = DIRECTION ( 'NONE',  ( 1.000000000000000000, 0.0000000000000000000, 2.780005570475651300E-016 ) ) ;
#286 = EDGE_CURVE ( 'NONE', #362, #190, #85, .T. ) ;
#287 = STYLED_ITEM ( 'NONE', ( #646 ), #90 ) ;
#288 = SURFACE_STYLE_FILL_AREA ( #310 ) ;
#289 = VERTEX_POINT ( 'NONE', #535 ) ;
#290 = ORIENTED_EDGE ( 'NONE', *, *, #339, .T. ) ;
#291 = ORIENTED_EDGE ( 'NONE', *, *, #322, .T. ) ;
#292 = CARTESIAN_POINT ( 'NONE',  ( -0.1750000000000000200, 0.09750000000000000300, 0.1749999999999999900 ) ) ;
#293 = LINE ( 'NONE', #425, #176 ) ;
#294 = EDGE_CURVE ( 'NONE', #119, #221, #13, .T. ) ;
#295 = CARTESIAN_POINT ( 'NONE',  ( -0.1974999999999998100, 0.2799999999999999700, -0.1975000000000000400 ) ) ;
#296 = CARTESIAN_POINT ( 'NONE',  ( -0.3224999999999998400, 0.1199999999999998800, 0.3224999999999999000 ) ) ;
#297 = CARTESIAN_POINT ( 'NONE',  ( -0.1750000000000000200, 0.1200000000000000000, 0.1749999999999999900 ) ) ;
#298 = UNCERTAINTY_MEASURE_WITH_UNIT (LENGTH_MEASURE( 1.000000000000000100E-005 ), #564, 'distance_accuracy_value', 'NONE');
#299 = LINE ( 'NONE', #717, #272 ) ;
#300 = STYLED_ITEM ( 'NONE', ( #499 ), #649 ) ;
#301 = SURFACE_STYLE_USAGE ( .BOTH. , #68 ) ;
#302 = ADVANCED_FACE ( 'NONE', ( #133 ), #699, .T. ) ;
#303 = CARTESIAN_POINT ( 'NONE',  ( -0.1974999999999998100, 0.3300000000000000200, -0.1975000000000000400 ) ) ;
#304 = VERTEX_POINT ( 'NONE', #665 ) ;
#305 =( GEOMETRIC_REPRESENTATION_CONTEXT ( 3 ) GLOBAL_UNCERTAINTY_ASSIGNED_CONTEXT ( ( #276 ) ) GLOBAL_UNIT_ASSIGNED_CONTEXT ( ( #413, #253, #625 ) ) REPRESENTATION_CONTEXT ( 'NONE', 'WORKASPACE' ) );
#306 = VERTEX_POINT ( 'NONE', #335 ) ;
#307 = ORIENTED_EDGE ( 'NONE', *, *, #707, .F. ) ;
#308 = DIRECTION ( 'NONE',  ( 0.0000000000000000000, 0.0000000000000000000, 1.000000000000000000 ) ) ;
#309 = CARTESIAN_POINT ( 'NONE',  ( -0.1974999999999998100, 0.2799999999999999700, -0.1975000000000000400 ) ) ;
#310 = FILL_AREA_STYLE ('',( #514 ) ) ;
#311 =( GEOMETRIC_REPRESENTATION_CONTEXT ( 3 ) GLOBAL_UNCERTAINTY_ASSIGNED_CONTEXT ( ( #147 ) ) GLOBAL_UNIT_ASSIGNED_CONTEXT ( ( #543, #226, #714 ) ) REPRESENTATION_CONTEXT ( 'NONE', 'WORKASPACE' ) );
#312 =( NAMED_UNIT ( * ) SI_UNIT ( $, .STERADIAN. ) SOLID_ANGLE_UNIT ( ) );
#313 = CARTESIAN_POINT ( 'NONE',  ( -0.3224999999999998400, 0.1199999999999998800, -0.3225000000000000100 ) ) ;
#314 = CARTESIAN_POINT ( 'NONE',  ( 0.0000000000000000000, 0.1200000000000000000, 0.0000000000000000000 ) ) ;
#315 = CARTESIAN_POINT ( 'NONE',  ( 0.0000000000000000000, 0.3300000000000000200, 0.0000000000000000000 ) ) ;
#316 = ORIENTED_EDGE ( 'NONE', *, *, #242, .T. ) ;
#317 = CARTESIAN_POINT ( 'NONE',  ( -0.1974999999999998100, 0.3300000000000000200, -0.2725000000000000200 ) ) ;
#318 = VECTOR ( 'NONE', #12, 1000.000000000000000 ) ;
#319 = ORIENTED_EDGE ( 'NONE', *, *, #457, .T. ) ;
#320 = AXIS2_PLACEMENT_3D ( 'NONE', #693, #691, #29 ) ;
#321 =( NAMED_UNIT ( * ) SI_UNIT ( $, .STERADIAN. ) SOLID_ANGLE_UNIT ( ) );
#322 = EDGE_CURVE ( 'NONE', #497, #221, #162, .T. ) ;
#323 = ORIENTED_EDGE ( 'NONE', *, *, #582, .T. ) ;
#324 = EDGE_CURVE ( 'NONE', #407, #364, #556, .T. ) ;
#325 = AXIS2_PLACEMENT_3D ( 'NONE', #607, #458, #498 ) ;
#326 = CIRCLE ( 'NONE', #173, 0.07499999999999998300 ) ;
#327 = DIRECTION ( 'NONE',  ( 1.000000000000000000, 0.0000000000000000000, 2.780005570475651300E-016 ) ) ;
#328 = EDGE_CURVE ( 'NONE', #374, #219, #299, .T. ) ;
#329 = CARTESIAN_POINT ( 'NONE',  ( -0.1750000000000000200, 0.09750000000000000300, 0.1749999999999999900 ) ) ;
#330 = ORIENTED_EDGE ( 'NONE', *, *, #7, .T. ) ;
#331 = ORIENTED_EDGE ( 'NONE', *, *, #624, .T. ) ;
#332 = ADVANCED_FACE ( 'NONE', ( #152 ), #396, .T. ) ;
#333 = SPHERICAL_SURFACE ( 'NONE', #187, 0.09750000000000004500 ) ;
#334 = FACE_OUTER_BOUND ( 'NONE', #120, .T. ) ;
#335 = CARTESIAN_POINT ( 'NONE',  ( 0.1749999999999999600, 0.09750000000000000300, -0.07749999999999995800 ) ) ;
#336 =( GEOMETRIC_REPRESENTATION_CONTEXT ( 3 ) GLOBAL_UNCERTAINTY_ASSIGNED_CONTEXT ( ( #403 ) ) GLOBAL_UNIT_ASSIGNED_CONTEXT ( ( #116, #562, #66 ) ) REPRESENTATION_CONTEXT ( 'NONE', 'WORKASPACE' ) );
#337 =( GEOMETRIC_REPRESENTATION_CONTEXT ( 3 ) GLOBAL_UNCERTAINTY_ASSIGNED_CONTEXT ( ( #60 ) ) GLOBAL_UNIT_ASSIGNED_CONTEXT ( ( #424, #199, #321 ) ) REPRESENTATION_CONTEXT ( 'NONE', 'WORKASPACE' ) );
#338 = DIRECTION ( 'NONE',  ( 0.0000000000000000000, 1.000000000000000000, 0.0000000000000000000 ) ) ;
#339 = EDGE_CURVE ( 'NONE', #306, #263, #432, .T. ) ;
#340 = AXIS2_PLACEMENT_3D ( 'NONE', #297, #349, #460 ) ;
#341 = CLOSED_SHELL ( 'NONE', ( #348, #117, #461 ) ) ;
#342 = CARTESIAN_POINT ( 'NONE',  ( -0.1974999999999998100, 0.2799999999999999700, -0.1975000000000000400 ) ) ;
#343 = ORIENTED_EDGE ( 'NONE', *, *, #126, .F. ) ;
#344 = VERTEX_POINT ( 'NONE', #393 ) ;
#345 = DIRECTION ( 'NONE',  ( 0.0000000000000000000, -1.000000000000000000, 0.0000000000000000000 ) ) ;
#346 = SURFACE_STYLE_FILL_AREA ( #171 ) ;
#347 = SURFACE_STYLE_FILL_AREA ( #142 ) ;
#348 = ADVANCED_FACE ( 'NONE', ( #670 ), #688, .T. ) ;
#349 = DIRECTION ( 'NONE',  ( -0.0000000000000000000, 1.000000000000000000, -0.0000000000000000000 ) ) ;
#350 = DIRECTION ( 'NONE',  ( 0.0000000000000000000, 1.000000000000000000, 0.0000000000000000000 ) ) ;
#351 = VECTOR ( 'NONE', #79, 1000.000000000000000 ) ;
#352 = ORIENTED_EDGE ( 'NONE', *, *, #245, .T. ) ;
#353 = CARTESIAN_POINT ( 'NONE',  ( -0.3224999999999998400, 0.3300000000000000200, 0.3224999999999999000 ) ) ;
#354 = CIRCLE ( 'NONE', #164, 0.09486832980505141600 ) ;
#355 = PRODUCT_DEFINITION_FORMATION_WITH_SPECIFIED_SOURCE ( 'ANY', '', #80, .NOT_KNOWN. ) ;
#356 =( GEOMETRIC_REPRESENTATION_CONTEXT ( 3 ) GLOBAL_UNCERTAINTY_ASSIGNED_CONTEXT ( ( #521 ) ) GLOBAL_UNIT_ASSIGNED_CONTEXT ( ( #359, #680, #136 ) ) REPRESENTATION_CONTEXT ( 'NONE', 'WORKASPACE' ) );
#357 = CARTESIAN_POINT ( 'NONE',  ( 0.0000000000000000000, 0.1200000000000000000, 0.0000000000000000000 ) ) ;
#358 = CARTESIAN_POINT ( 'NONE',  ( 0.1749999999999999600, 0.09750000000000000300, 0.1749999999999999900 ) ) ;
#359 =( LENGTH_UNIT ( ) NAMED_UNIT ( * ) SI_UNIT ( .MILLI., .METRE. ) );
#360 = EDGE_CURVE ( 'NONE', #31, #534, #354, .T. ) ;
#361 = CARTESIAN_POINT ( 'NONE',  ( -0.1974999999999998100, 0.2799999999999999700, -0.2725000000000000200 ) ) ;
#362 = VERTEX_POINT ( 'NONE', #652 ) ;
#363 = DIRECTION ( 'NONE',  ( 0.0000000000000000000, 1.000000000000000000, 0.0000000000000000000 ) ) ;
#364 = VERTEX_POINT ( 'NONE', #653 ) ;
#365 = AXIS2_PLACEMENT_3D ( 'NONE', #555, #239, #243 ) ;
#366 = CARTESIAN_POINT ( 'NONE',  ( -0.1974999999999998100, 0.2799999999999999700, -0.2725000000000000200 ) ) ;
#367 = CARTESIAN_POINT ( 'NONE',  ( -0.3224999999999998400, -0.9121677477306462400, 0.3224999999999999000 ) ) ;
#368 = AXIS2_PLACEMENT_3D ( 'NONE', #477, #584, #528 ) ;
#369 = CARTESIAN_POINT ( 'NONE',  ( 0.1749999999999999900, 0.09750000000000000300, 0.07749999999999995800 ) ) ;
#370 = SURFACE_SIDE_STYLE ('',( #265 ) ) ;
#371 = PLANE ( 'NONE',  #610 ) ;
#372 = SURFACE_STYLE_FILL_AREA ( #71 ) ;
#373 = DIRECTION ( 'NONE',  ( -0.0000000000000000000, 1.000000000000000000, -0.0000000000000000000 ) ) ;
#374 = VERTEX_POINT ( 'NONE', #452 ) ;
#375 = DIRECTION ( 'NONE',  ( 0.0000000000000000000, 0.0000000000000000000, 1.000000000000000000 ) ) ;
#376 = DIRECTION ( 'NONE',  ( 0.0000000000000000000, -0.0000000000000000000, -1.000000000000000000 ) ) ;
#377 = DIRECTION ( 'NONE',  ( 0.0000000000000000000, 1.000000000000000000, 0.0000000000000000000 ) ) ;
#378 = FACE_OUTER_BOUND ( 'NONE', #101, .T. ) ;
#379 = APPLICATION_CONTEXT ( 'automotive_design' ) ;
#380 = ORIENTED_EDGE ( 'NONE', *, *, #531, .T. ) ;
#381 = STYLED_ITEM ( 'NONE', ( #193 ), #427 ) ;
#382 = CARTESIAN_POINT ( 'NONE',  ( -0.1974999999999998100, 0.3300000000000000200, -0.2725000000000000200 ) ) ;
#383 = LINE ( 'NONE', #258, #183 ) ;
#384 = DIRECTION ( 'NONE',  ( 1.000000000000000000, 0.0000000000000000000, 2.780005570475651300E-016 ) ) ;
#385 = VERTEX_POINT ( 'NONE', #107 ) ;
#386 = DIRECTION ( 'NONE',  ( 0.0000000000000000000, -1.000000000000000000, 0.0000000000000000000 ) ) ;
#387 = ORIENTED_EDGE ( 'NONE', *, *, #624, .F. ) ;
#388 = FACE_BOUND ( 'NONE', #657, .T. ) ;
#389 = CARTESIAN_POINT ( 'NONE',  ( 0.3225000000000001200, 0.3300000000000000200, 0.3224999999999999000 ) ) ;
#390 = PRESENTATION_LAYER_ASSIGNMENT (  '', '', ( #527 ) ) ;
#391 = CARTESIAN_POINT ( 'NONE',  ( 0.3225000000000001200, -0.9121677477306462400, -0.3225000000000000100 ) ) ;
#392 = VERTEX_POINT ( 'NONE', #712 ) ;
#393 = CARTESIAN_POINT ( 'NONE',  ( 0.1749999999999999600, 0.1200000000000000000, 0.08013167019494857300 ) ) ;
#394 = VECTOR ( 'NONE', #28, 1000.000000000000000 ) ;
#395 = LINE ( 'NONE', #127, #466 ) ;
#396 = PLANE ( 'NONE',  #278 ) ;
#397 = AXIS2_PLACEMENT_3D ( 'NONE', #643, #525, #384 ) ;
#398 = ADVANCED_FACE ( 'NONE', ( #50 ), #596, .F. ) ;
#399 = CARTESIAN_POINT ( 'NONE',  ( -0.1750000000000000200, 0.1200000000000000000, -0.2698683298050514300 ) ) ;
#400 = VERTEX_POINT ( 'NONE', #232 ) ;
#401 = ORIENTED_EDGE ( 'NONE', *, *, #242, .F. ) ;
#402 = VECTOR ( 'NONE', #641, 1000.000000000000000 ) ;
#403 = UNCERTAINTY_MEASURE_WITH_UNIT (LENGTH_MEASURE( 1.000000000000000100E-005 ), #116, 'distance_accuracy_value', 'NONE');
#404 = FILL_AREA_STYLE_COLOUR ( '', #496 ) ;
#405 = ORIENTED_EDGE ( 'NONE', *, *, #294, .T. ) ;
#406 = ORIENTED_EDGE ( 'NONE', *, *, #566, .F. ) ;
#407 = VERTEX_POINT ( 'NONE', #165 ) ;
#408 = PLANE ( 'NONE',  #227 ) ;
#409 = PRESENTATION_LAYER_ASSIGNMENT (  '', '', ( #300 ) ) ;
#410 = CARTESIAN_POINT ( 'NONE',  ( -0.1974999999999998100, 0.3300000000000000200, -0.1975000000000000400 ) ) ;
#411 = CARTESIAN_POINT ( 'NONE',  ( 0.0000000000000000000, 0.1200000000000000000, 0.3499999999999999800 ) ) ;
#412 = CIRCLE ( 'NONE', #99, 0.09750000000000007300 ) ;
#413 =( LENGTH_UNIT ( ) NAMED_UNIT ( * ) SI_UNIT ( .MILLI., .METRE. ) );
#414 = ADVANCED_FACE ( 'NONE', ( #563 ), #538, .T. ) ;
#415 = DIRECTION ( 'NONE',  ( 0.0000000000000000000, 0.0000000000000000000, -1.000000000000000000 ) ) ;
#416 = EDGE_LOOP ( 'NONE', ( #92, #406, #316, #237 ) ) ;
#417 = CARTESIAN_POINT ( 'NONE',  ( -0.3224999999999998400, -0.9121677477306462400, 0.3224999999999999000 ) ) ;
#418 = EDGE_LOOP ( 'NONE', ( #10, #65 ) ) ;
#419 = EDGE_LOOP ( 'NONE', ( #40, #405 ) ) ;
#420 = CARTESIAN_POINT ( 'NONE',  ( -0.1750000000000000200, 0.09750000000000000300, 0.2725000000000000800 ) ) ;
#421 = COLOUR_RGB ( '',0.7921568627450980000, 0.8196078431372548800, 0.9333333333333333500 ) ;
#422 = AXIS2_PLACEMENT_3D ( 'NONE', #269, #642, #95 ) ;
#423 = PLANE ( 'NONE',  #578 ) ;
#424 =( LENGTH_UNIT ( ) NAMED_UNIT ( * ) SI_UNIT ( .MILLI., .METRE. ) );
#425 = CARTESIAN_POINT ( 'NONE',  ( -0.3224999999999998400, 0.1199999999999998800, 0.3224999999999999000 ) ) ;
#426 = PRODUCT_RELATED_PRODUCT_CATEGORY ( 'part', '', ( #80 ) ) ;
#427 = MANIFOLD_SOLID_BREP ( 'Pin 3', #158 ) ;
#428 = AXIS2_PLACEMENT_3D ( 'NONE', #163, #386, #435 ) ;
#429 = ORIENTED_EDGE ( 'NONE', *, *, #178, .T. ) ;
#430 = FACE_OUTER_BOUND ( 'NONE', #552, .T. ) ;
#431 = ORIENTED_EDGE ( 'NONE', *, *, #170, .T. ) ;
#432 = CIRCLE ( 'NONE', #548, 0.09750000000000004500 ) ;
#433 = CIRCLE ( 'NONE', #612, 0.07499999999999998300 ) ;
#434 = EDGE_CURVE ( 'NONE', #102, #289, #42, .T. ) ;
#435 = DIRECTION ( 'NONE',  ( 0.0000000000000000000, -0.0000000000000000000, -1.000000000000000000 ) ) ;
#436 = DIRECTION ( 'NONE',  ( 1.000000000000000000, 0.0000000000000000000, 2.780005570475651300E-016 ) ) ;
#437 = LINE ( 'NONE', #75, #351 ) ;
#438 = ORIENTED_EDGE ( 'NONE', *, *, #324, .F. ) ;
#439 = STYLED_ITEM ( 'NONE', ( #110 ), #64 ) ;
#440 = ORIENTED_EDGE ( 'NONE', *, *, #504, .F. ) ;
#441 = SPHERICAL_SURFACE ( 'NONE', #561, 0.09750000000000004500 ) ;
#442 = AXIS2_PLACEMENT_3D ( 'NONE', #692, #260, #84 ) ;
#443 = CARTESIAN_POINT ( 'NONE',  ( 0.1749999999999999600, 0.1200000000000000000, -0.1749999999999999900 ) ) ;
#444 = COLOUR_RGB ( '',0.7921568627450980000, 0.8196078431372548800, 0.9333333333333333500 ) ;
#445 = DIRECTION ( 'NONE',  ( -1.000000000000000000, 0.0000000000000000000, -0.0000000000000000000 ) ) ;
#446 = EDGE_LOOP ( 'NONE', ( #387, #319 ) ) ;
#447 = ADVANCED_FACE ( 'NONE', ( #94 ), #408, .F. ) ;
#448 = FACE_OUTER_BOUND ( 'NONE', #149, .T. ) ;
#449 = VECTOR ( 'NONE', #148, 1000.000000000000000 ) ;
#450 = CARTESIAN_POINT ( 'NONE',  ( -0.1750000000000000200, 0.1200000000000000000, -0.1749999999999999900 ) ) ;
#451 = FACE_OUTER_BOUND ( 'NONE', #605, .T. ) ;
#452 = CARTESIAN_POINT ( 'NONE',  ( 0.3225000000000000100, 0.1199999999999998800, 0.3224999999999999000 ) ) ;
#453 = EDGE_CURVE ( 'NONE', #190, #362, #546, .T. ) ;
#454 = AXIS2_PLACEMENT_3D ( 'NONE', #672, #180, #8 ) ;
#455 = VERTEX_POINT ( 'NONE', #296 ) ;
#456 = ORIENTED_EDGE ( 'NONE', *, *, #286, .F. ) ;
#457 = EDGE_CURVE ( 'NONE', #654, #510, #651, .T. ) ;
#458 = DIRECTION ( 'NONE',  ( 0.0000000000000000000, 1.000000000000000000, 0.0000000000000000000 ) ) ;
#459 = VECTOR ( 'NONE', #495, 1000.000000000000000 ) ;
#460 = DIRECTION ( 'NONE',  ( 0.0000000000000000000, 0.0000000000000000000, -1.000000000000000000 ) ) ;
#461 = ADVANCED_FACE ( 'NONE', ( #565 ), #500, .F. ) ;
#462 = FILL_AREA_STYLE ('',( #121 ) ) ;
#463 = LINE ( 'NONE', #367, #318 ) ;
#464 = DIRECTION ( 'NONE',  ( 0.0000000000000000000, -0.0000000000000000000, -1.000000000000000000 ) ) ;
#465 = CIRCLE ( 'NONE', #501, 0.07499999999999998300 ) ;
#466 = VECTOR ( 'NONE', #179, 1000.000000000000000 ) ;
#467 =( NAMED_UNIT ( * ) PLANE_ANGLE_UNIT ( ) SI_UNIT ( $, .RADIAN. ) );
#468 = ADVANCED_FACE ( 'NONE', ( #241 ), #526, .T. ) ;
#469 = DIRECTION ( 'NONE',  ( 1.000000000000000000, 0.0000000000000000000, 2.780005570475651300E-016 ) ) ;
#470 = SURFACE_STYLE_USAGE ( .BOTH. , #249 ) ;
#471 = EDGE_LOOP ( 'NONE', ( #572, #589 ) ) ;
#472 = ORIENTED_EDGE ( 'NONE', *, *, #360, .F. ) ;
#473 = DIRECTION ( 'NONE',  ( 0.0000000000000000000, 0.0000000000000000000, 1.000000000000000000 ) ) ;
#474 = PRESENTATION_LAYER_ASSIGNMENT (  '', '', ( #439 ) ) ;
#475 = CARTESIAN_POINT ( 'NONE',  ( -0.1974999999999998100, 0.2799999999999999700, -0.1975000000000000400 ) ) ;
#476 = SURFACE_STYLE_USAGE ( .BOTH. , #370 ) ;
#477 = CARTESIAN_POINT ( 'NONE',  ( -0.1974999999999998100, 0.3300000000000000200, -0.1975000000000000400 ) ) ;
#478 = ORIENTED_EDGE ( 'NONE', *, *, #453, .F. ) ;
#479 = CARTESIAN_POINT ( 'NONE',  ( 0.0000000000000000000, 0.0000000000000000000, 0.0000000000000000000 ) ) ;
#480 = LINE ( 'NONE', #389, #24 ) ;
#481 = CARTESIAN_POINT ( 'NONE',  ( 0.1749999999999999600, 0.1200000000000000000, -0.08013167019494857300 ) ) ;
#482 = DIRECTION ( 'NONE',  ( 0.0000000000000000000, -0.0000000000000000000, 1.000000000000000000 ) ) ;
#483 = VECTOR ( 'NONE', #23, 1000.000000000000000 ) ;
#484 = AXIS2_PLACEMENT_3D ( 'NONE', #358, #128, #558 ) ;
#485 = ORIENTED_EDGE ( 'NONE', *, *, #663, .F. ) ;
#486 = CARTESIAN_POINT ( 'NONE',  ( 0.1749999999999999600, 0.09750000000000000300, 0.1749999999999999900 ) ) ;
#487 = SPHERICAL_SURFACE ( 'NONE', #508, 0.09750000000000004500 ) ;
#488 = MECHANICAL_DESIGN_GEOMETRIC_PRESENTATION_REPRESENTATION (  '', ( #192 ), #305 ) ;
#489 = EDGE_LOOP ( 'NONE', ( #490, #675 ) ) ;
#490 = ORIENTED_EDGE ( 'NONE', *, *, #178, .F. ) ;
#491 = FACE_OUTER_BOUND ( 'NONE', #218, .T. ) ;
#492 = AXIS2_PLACEMENT_3D ( 'NONE', #574, #679, #570 ) ;
#493 = DIRECTION ( 'NONE',  ( 0.0000000000000000000, 1.000000000000000000, 0.0000000000000000000 ) ) ;
#494 = AXIS2_PLACEMENT_3D ( 'NONE', #292, #551, #67 ) ;
#495 = DIRECTION ( 'NONE',  ( 0.0000000000000000000, 1.000000000000000000, 0.0000000000000000000 ) ) ;
#496 = COLOUR_RGB ( '',1.000000000000000000, 1.000000000000000000, 1.000000000000000000 ) ;
#497 = VERTEX_POINT ( 'NONE', #185 ) ;
#498 = DIRECTION ( 'NONE',  ( 0.0000000000000000000, -0.0000000000000000000, 1.000000000000000000 ) ) ;
#499 = PRESENTATION_STYLE_ASSIGNMENT (( #630 ) ) ;
#500 = PLANE ( 'NONE',  #664 ) ;
#501 = AXIS2_PLACEMENT_3D ( 'NONE', #150, #143, #146 ) ;
#502 = ADVANCED_FACE ( 'NONE', ( #378 ), #602, .F. ) ;
#503 = ORIENTED_EDGE ( 'NONE', *, *, #536, .F. ) ;
#504 = EDGE_CURVE ( 'NONE', #400, #1, #169, .T. ) ;
#505 = DIRECTION ( 'NONE',  ( 0.0000000000000000000, -1.000000000000000000, 0.0000000000000000000 ) ) ;
#506 = DIRECTION ( 'NONE',  ( 0.0000000000000000000, 0.0000000000000000000, 1.000000000000000000 ) ) ;
#507 = EDGE_LOOP ( 'NONE', ( #307, #698, #39, #438 ) ) ;
#508 = AXIS2_PLACEMENT_3D ( 'NONE', #622, #629, #469 ) ;
#509 = VERTEX_POINT ( 'NONE', #70 ) ;
#510 = VERTEX_POINT ( 'NONE', #5 ) ;
#511 = DIRECTION ( 'NONE',  ( 0.0000000000000000000, 1.000000000000000000, 0.0000000000000000000 ) ) ;
#512 = EDGE_LOOP ( 'NONE', ( #541, #553 ) ) ;
#513 = DIRECTION ( 'NONE',  ( 0.0000000000000000000, -0.0000000000000000000, -1.000000000000000000 ) ) ;
#514 = FILL_AREA_STYLE_COLOUR ( '', #444 ) ;
#515 = LINE ( 'NONE', #516, #231 ) ;
#516 = CARTESIAN_POINT ( 'NONE',  ( -0.3224999999999998400, 0.3300000000000000200, 0.3224999999999999000 ) ) ;
#517 = FILL_AREA_STYLE_COLOUR ( '', #544 ) ;
#518 = VERTEX_POINT ( 'NONE', #674 ) ;
#519 = ORIENTED_EDGE ( 'NONE', *, *, #53, .F. ) ;
#520 =( NAMED_UNIT ( * ) PLANE_ANGLE_UNIT ( ) SI_UNIT ( $, .RADIAN. ) );
#521 = UNCERTAINTY_MEASURE_WITH_UNIT (LENGTH_MEASURE( 1.000000000000000100E-005 ), #359, 'distance_accuracy_value', 'NONE');
#522 = VECTOR ( 'NONE', #493, 1000.000000000000000 ) ;
#523 = MANIFOLD_SOLID_BREP ( 'Housing ', #246 ) ;
#524 = PLANE ( 'NONE',  #59 ) ;
#525 = DIRECTION ( 'NONE',  ( 0.0000000000000000000, -1.000000000000000000, 0.0000000000000000000 ) ) ;
#526 = SPHERICAL_SURFACE ( 'NONE', #484, 0.09750000000000004500 ) ;
#527 = STYLED_ITEM ( 'NONE', ( #659 ), #9 ) ;
#528 = DIRECTION ( 'NONE',  ( 0.0000000000000000000, -0.0000000000000000000, 1.000000000000000000 ) ) ;
#529 = ORIENTED_EDGE ( 'NONE', *, *, #53, .T. ) ;
#530 = DIRECTION ( 'NONE',  ( -0.0000000000000000000, 1.000000000000000000, -0.0000000000000000000 ) ) ;
#531 = EDGE_CURVE ( 'NONE', #509, #648, #87, .T. ) ;
#532 = COLOUR_RGB ( '',0.2509803921568627400, 0.2509803921568627400, 0.2509803921568627400 ) ;
#533 = AXIS2_PLACEMENT_3D ( 'NONE', #709, #220, #594 ) ;
#534 = VERTEX_POINT ( 'NONE', #399 ) ;
#535 = CARTESIAN_POINT ( 'NONE',  ( -0.1749999999999999900, 0.09750000000000000300, -0.2725000000000000800 ) ) ;
#536 = EDGE_CURVE ( 'NONE', #455, #385, #58, .T. ) ;
#537 = COLOUR_RGB ( '',0.7921568627450980000, 0.8196078431372548800, 0.9333333333333333500 ) ;
#538 = PLANE ( 'NONE',  #588 ) ;
#539 = ADVANCED_FACE ( 'NONE', ( #627 ), #234, .T. ) ;
#540 = UNCERTAINTY_MEASURE_WITH_UNIT (LENGTH_MEASURE( 1.000000000000000100E-005 ), #191, 'distance_accuracy_value', 'NONE');
#541 = ORIENTED_EDGE ( 'NONE', *, *, #566, .T. ) ;
#542 = EDGE_LOOP ( 'NONE', ( #270, #711 ) ) ;
#543 =( LENGTH_UNIT ( ) NAMED_UNIT ( * ) SI_UNIT ( .MILLI., .METRE. ) );
#544 = COLOUR_RGB ( '',0.7921568627450980000, 0.8196078431372548800, 0.9333333333333333500 ) ;
#545 = MECHANICAL_DESIGN_GEOMETRIC_PRESENTATION_REPRESENTATION (  '', ( #300 ), #704 ) ;
#546 = CIRCLE ( 'NONE', #340, 0.09486832980505141600 ) ;
#547 = EDGE_CURVE ( 'NONE', #385, #400, #395, .T. ) ;
#548 = AXIS2_PLACEMENT_3D ( 'NONE', #230, #604, #600 ) ;
#549 = DIRECTION ( 'NONE',  ( 1.000000000000000000, -0.0000000000000000000, 0.0000000000000000000 ) ) ;
#550 = EDGE_LOOP ( 'NONE', ( #685, #48 ) ) ;
#551 = DIRECTION ( 'NONE',  ( 1.224646799147353200E-016, -1.000000000000000000, 1.702262461747408900E-032 ) ) ;
#552 = EDGE_LOOP ( 'NONE', ( #503, #330, #440, #33 ) ) ;
#553 = ORIENTED_EDGE ( 'NONE', *, *, #126, .T. ) ;
#554 = ADVANCED_FACE ( 'NONE', ( #15, #52 ), #487, .T. ) ;
#555 = CARTESIAN_POINT ( 'NONE',  ( -0.1974999999999998100, 0.2799999999999999700, -0.1975000000000000400 ) ) ;
#556 = LINE ( 'NONE', #391, #459 ) ;
#557 = SURFACE_STYLE_USAGE ( .BOTH. , #668 ) ;
#558 = DIRECTION ( 'NONE',  ( 1.000000000000000000, 0.0000000000000000000, 2.780005570475651300E-016 ) ) ;
#559 = VERTEX_POINT ( 'NONE', #366 ) ;
#560 = ORIENTED_EDGE ( 'NONE', *, *, #328, .F. ) ;
#561 = AXIS2_PLACEMENT_3D ( 'NONE', #329, #159, #436 ) ;
#562 =( NAMED_UNIT ( * ) PLANE_ANGLE_UNIT ( ) SI_UNIT ( $, .RADIAN. ) );
#563 = FACE_OUTER_BOUND ( 'NONE', #597, .T. ) ;
#564 =( LENGTH_UNIT ( ) NAMED_UNIT ( * ) SI_UNIT ( .MILLI., .METRE. ) );
#565 = FACE_OUTER_BOUND ( 'NONE', #471, .T. ) ;
#566 = EDGE_CURVE ( 'NONE', #518, #559, #433, .T. ) ;
#567 = DIRECTION ( 'NONE',  ( 1.000000000000000000, 1.390002785237825600E-016, 0.0000000000000000000 ) ) ;
#568 = ADVANCED_FACE ( 'NONE', ( #619 ), #36, .F. ) ;
#569 =( NAMED_UNIT ( * ) PLANE_ANGLE_UNIT ( ) SI_UNIT ( $, .RADIAN. ) );
#570 = DIRECTION ( 'NONE',  ( 1.000000000000000000, 0.0000000000000000000, 2.780005570475651300E-016 ) ) ;
#571 = CIRCLE ( 'NONE', #196, 0.07499999999999998300 ) ;
#572 = ORIENTED_EDGE ( 'NONE', *, *, #282, .T. ) ;
#573 = AXIS2_PLACEMENT_3D ( 'NONE', #216, #375, #706 ) ;
#574 = CARTESIAN_POINT ( 'NONE',  ( -0.1750000000000000200, 0.09750000000000000300, -0.1749999999999999900 ) ) ;
#575 = LINE ( 'NONE', #313, #394 ) ;
#576 = CIRCLE ( 'NONE', #673, 0.09750000000000004500 ) ;
#577 = DIRECTION ( 'NONE',  ( 0.0000000000000000000, 0.0000000000000000000, 1.000000000000000000 ) ) ;
#578 = AXIS2_PLACEMENT_3D ( 'NONE', #411, #579, #513 ) ;
#579 = DIRECTION ( 'NONE',  ( 0.0000000000000000000, -1.000000000000000000, 0.0000000000000000000 ) ) ;
#580 = PRODUCT_CONTEXT ( 'NONE', #379, 'mechanical' ) ;
#581 = CARTESIAN_POINT ( 'NONE',  ( -0.1750000000000000200, 0.09750000000000000300, 0.1749999999999999900 ) ) ;
#582 = EDGE_CURVE ( 'NONE', #559, #261, #135, .T. ) ;
#583 =( NAMED_UNIT ( * ) SI_UNIT ( $, .STERADIAN. ) SOLID_ANGLE_UNIT ( ) );
#584 = DIRECTION ( 'NONE',  ( 0.0000000000000000000, 1.000000000000000000, 0.0000000000000000000 ) ) ;
#585 = ORIENTED_EDGE ( 'NONE', *, *, #328, .T. ) ;
#586 = SPHERICAL_SURFACE ( 'NONE', #37, 0.09750000000000004500 ) ;
#587 = EDGE_CURVE ( 'NONE', #306, #263, #250, .T. ) ;
#588 = AXIS2_PLACEMENT_3D ( 'NONE', #716, #549, #277 ) ;
#589 = ORIENTED_EDGE ( 'NONE', *, *, #663, .T. ) ;
#590 = EDGE_LOOP ( 'NONE', ( #38, #331 ) ) ;
#591 = CARTESIAN_POINT ( 'NONE',  ( 0.1749999999999999900, 0.09750000000000000300, -0.2725000000000000800 ) ) ;
#592 = PLANE ( 'NONE',  #573 ) ;
#593 = SPHERICAL_SURFACE ( 'NONE', #397, 0.09750000000000004500 ) ;
#594 = DIRECTION ( 'NONE',  ( 0.0000000000000000000, 0.0000000000000000000, -1.000000000000000000 ) ) ;
#595 = EDGE_LOOP ( 'NONE', ( #456, #478 ) ) ;
#596 = PLANE ( 'NONE',  #325 ) ;
#597 = EDGE_LOOP ( 'NONE', ( #519, #636, #655, #560 ) ) ;
#598 = ADVANCED_FACE ( 'NONE', ( #334 ), #266, .T. ) ;
#599 = CIRCLE ( 'NONE', #422, 0.09486832980505141600 ) ;
#600 = DIRECTION ( 'NONE',  ( 0.0000000000000000000, 0.0000000000000000000, 1.000000000000000000 ) ) ;
#601 = AXIS2_PLACEMENT_3D ( 'NONE', #443, #217, #46 ) ;
#602 = CYLINDRICAL_SURFACE ( 'NONE', #365, 0.07499999999999998300 ) ;
#603 = CARTESIAN_POINT ( 'NONE',  ( -0.3224999999999998400, -0.9121677477306462400, -0.3225000000000000100 ) ) ;
#604 = DIRECTION ( 'NONE',  ( 0.0000000000000000000, 1.000000000000000000, 0.0000000000000000000 ) ) ;
#605 = EDGE_LOOP ( 'NONE', ( #606, #82 ) ) ;
#606 = ORIENTED_EDGE ( 'NONE', *, *, #286, .T. ) ;
#607 = CARTESIAN_POINT ( 'NONE',  ( -0.1974999999999998100, 0.2799999999999999700, -0.1975000000000000400 ) ) ;
#608 = ADVANCED_FACE ( 'NONE', ( #451 ), #423, .F. ) ;
#609 = DIRECTION ( 'NONE',  ( 0.0000000000000000000, -0.0000000000000000000, -1.000000000000000000 ) ) ;
#610 = AXIS2_PLACEMENT_3D ( 'NONE', #314, #377, #482 ) ;
#611 = CARTESIAN_POINT ( 'NONE',  ( 0.1749999999999999600, 0.09750000000000000300, 0.1749999999999999900 ) ) ;
#612 = AXIS2_PLACEMENT_3D ( 'NONE', #475, #676, #473 ) ;
#613 = ADVANCED_FACE ( 'NONE', ( #96 ), #154, .T. ) ;
#614 = PRODUCT_DEFINITION ( 'UNKNOWN', '', #355, #703 ) ;
#615 = EDGE_CURVE ( 'NONE', #617, #344, #214, .T. ) ;
#616 = ORIENTED_EDGE ( 'NONE', *, *, #294, .F. ) ;
#617 = VERTEX_POINT ( 'NONE', #252 ) ;
#618 = FACE_OUTER_BOUND ( 'NONE', #638, .T. ) ;
#619 = FACE_OUTER_BOUND ( 'NONE', #416, .T. ) ;
#620 = DIRECTION ( 'NONE',  ( -0.0000000000000000000, -0.0000000000000000000, 1.000000000000000000 ) ) ;
#621 = SURFACE_SIDE_STYLE ('',( #157 ) ) ;
#622 = CARTESIAN_POINT ( 'NONE',  ( -0.1750000000000000200, 0.09750000000000000300, -0.1749999999999999900 ) ) ;
#623 = VERTEX_POINT ( 'NONE', #139 ) ;
#624 = EDGE_CURVE ( 'NONE', #654, #510, #412, .T. ) ;
#625 =( NAMED_UNIT ( * ) SI_UNIT ( $, .STERADIAN. ) SOLID_ANGLE_UNIT ( ) );
#626 = CARTESIAN_POINT ( 'NONE',  ( 0.1749999999999999600, 0.1200000000000000000, 0.1749999999999999900 ) ) ;
#627 = FACE_OUTER_BOUND ( 'NONE', #512, .T. ) ;
#628 = PLANE ( 'NONE',  #153 ) ;
#629 = DIRECTION ( 'NONE',  ( 0.0000000000000000000, -1.000000000000000000, 0.0000000000000000000 ) ) ;
#630 = SURFACE_STYLE_USAGE ( .BOTH. , #197 ) ;
#631 = DIRECTION ( 'NONE',  ( 0.0000000000000000000, 1.000000000000000000, 0.0000000000000000000 ) ) ;
#632 = ORIENTED_EDGE ( 'NONE', *, *, #207, .T. ) ;
#633 = CIRCLE ( 'NONE', #601, 0.09486832980505141600 ) ;
#634 = MECHANICAL_DESIGN_GEOMETRIC_PRESENTATION_REPRESENTATION (  '', ( #701 ), #336 ) ;
#635 = FILL_AREA_STYLE ('',( #517 ) ) ;
#636 = ORIENTED_EDGE ( 'NONE', *, *, #324, .T. ) ;
#637 = ORIENTED_EDGE ( 'NONE', *, *, #140, .T. ) ;
#638 = EDGE_LOOP ( 'NONE', ( #280, #290 ) ) ;
#639 = CARTESIAN_POINT ( 'NONE',  ( -0.1974999999999998100, 0.3300000000000000200, -0.1225000000000000500 ) ) ;
#640 = EDGE_CURVE ( 'NONE', #1, #219, #515, .T. ) ;
#641 = DIRECTION ( 'NONE',  ( -0.0000000000000000000, 1.000000000000000000, -0.0000000000000000000 ) ) ;
#642 = DIRECTION ( 'NONE',  ( -0.0000000000000000000, 1.000000000000000000, -0.0000000000000000000 ) ) ;
#643 = CARTESIAN_POINT ( 'NONE',  ( 0.1749999999999999600, 0.09750000000000000300, -0.1749999999999999900 ) ) ;
#644 = AXIS2_PLACEMENT_3D ( 'NONE', #303, #363, #77 ) ;
#645 = CARTESIAN_POINT ( 'NONE',  ( 0.3225000000000001200, 0.3300000000000000200, 0.3224999999999999000 ) ) ;
#646 = PRESENTATION_STYLE_ASSIGNMENT (( #470 ) ) ;
#647 = ORIENTED_EDGE ( 'NONE', *, *, #536, .T. ) ;
#648 = VERTEX_POINT ( 'NONE', #369 ) ;
#649 = MANIFOLD_SOLID_BREP ( 'Pin 1', #212 ) ;
#650 = CARTESIAN_POINT ( 'NONE',  ( -0.1750000000000000200, 0.1200000000000000000, 0.1749999999999999900 ) ) ;
#651 = CIRCLE ( 'NONE', #494, 0.09750000000000004500 ) ;
#652 = CARTESIAN_POINT ( 'NONE',  ( -0.1750000000000000200, 0.1200000000000000000, 0.08013167019494857300 ) ) ;
#653 = CARTESIAN_POINT ( 'NONE',  ( 0.3225000000000001200, 0.3300000000000000200, -0.3225000000000000100 ) ) ;
#654 = VERTEX_POINT ( 'NONE', #420 ) ;
#655 = ORIENTED_EDGE ( 'NONE', *, *, #268, .F. ) ;
#656 = CARTESIAN_POINT ( 'NONE',  ( 0.1749999999999999600, 0.09750000000000000300, -0.1749999999999999900 ) ) ;
#657 = EDGE_LOOP ( 'NONE', ( #160, #485 ) ) ;
#658 = ORIENTED_EDGE ( 'NONE', *, *, #707, .T. ) ;
#659 = PRESENTATION_STYLE_ASSIGNMENT (( #476 ) ) ;
#660 = ADVANCED_FACE ( 'NONE', ( #103 ), #144, .T. ) ;
#661 = CIRCLE ( 'NONE', #442, 0.09486832980505141600 ) ;
#662 = SURFACE_SIDE_STYLE ('',( #346 ) ) ;
#663 = EDGE_CURVE ( 'NONE', #697, #623, #661, .T. ) ;
#664 = AXIS2_PLACEMENT_3D ( 'NONE', #11, #505, #609 ) ;
#665 = CARTESIAN_POINT ( 'NONE',  ( -0.1974999999999998100, 0.3300000000000000200, -0.1225000000000000500 ) ) ;
#666 = FILL_AREA_STYLE_COLOUR ( '', #683 ) ;
#667 = ORIENTED_EDGE ( 'NONE', *, *, #531, .F. ) ;
#668 = SURFACE_SIDE_STYLE ('',( #677 ) ) ;
#669 = LINE ( 'NONE', #202, #449 ) ;
#670 = FACE_OUTER_BOUND ( 'NONE', #550, .T. ) ;
#671 = DIRECTION ( 'NONE',  ( 0.0000000000000000000, -1.000000000000000000, 0.0000000000000000000 ) ) ;
#672 = CARTESIAN_POINT ( 'NONE',  ( -0.1750000000000000200, 0.09750000000000000300, -0.1749999999999999900 ) ) ;
#673 = AXIS2_PLACEMENT_3D ( 'NONE', #486, #702, #105 ) ;
#674 = CARTESIAN_POINT ( 'NONE',  ( -0.1974999999999998100, 0.2799999999999999700, -0.1225000000000000500 ) ) ;
#675 = ORIENTED_EDGE ( 'NONE', *, *, #615, .F. ) ;
#676 = DIRECTION ( 'NONE',  ( 0.0000000000000000000, 1.000000000000000000, 0.0000000000000000000 ) ) ;
#677 = SURFACE_STYLE_FILL_AREA ( #462 ) ;
#678 = EDGE_CURVE ( 'NONE', #364, #400, #669, .T. ) ;
#679 = DIRECTION ( 'NONE',  ( 0.0000000000000000000, -1.000000000000000000, 0.0000000000000000000 ) ) ;
#680 =( NAMED_UNIT ( * ) PLANE_ANGLE_UNIT ( ) SI_UNIT ( $, .RADIAN. ) );
#681 = ADVANCED_FACE ( 'NONE', ( #3, #161 ), #524, .F. ) ;
#682 = DIRECTION ( 'NONE',  ( -0.0000000000000000000, 1.000000000000000000, -0.0000000000000000000 ) ) ;
#683 = COLOUR_RGB ( '',0.7921568627450980000, 0.8196078431372548800, 0.9333333333333333500 ) ;
#684 =( GEOMETRIC_REPRESENTATION_CONTEXT ( 3 ) GLOBAL_UNCERTAINTY_ASSIGNED_CONTEXT ( ( #540 ) ) GLOBAL_UNIT_ASSIGNED_CONTEXT ( ( #191, #569, #200 ) ) REPRESENTATION_CONTEXT ( 'NONE', 'WORKASPACE' ) );
#685 = ORIENTED_EDGE ( 'NONE', *, *, #339, .F. ) ;
#686 = DIRECTION ( 'NONE',  ( 0.0000000000000000000, 0.0000000000000000000, 1.000000000000000000 ) ) ;
#687 = ORIENTED_EDGE ( 'NONE', *, *, #210, .F. ) ;
#688 = SPHERICAL_SURFACE ( 'NONE', #713, 0.09750000000000004500 ) ;
#689 = DIRECTION ( 'NONE',  ( 0.0000000000000000000, 1.000000000000000000, 0.0000000000000000000 ) ) ;
#690 = DIRECTION ( 'NONE',  ( 0.0000000000000000000, 1.000000000000000000, 0.0000000000000000000 ) ) ;
#691 = DIRECTION ( 'NONE',  ( 0.0000000000000000000, 1.000000000000000000, 0.0000000000000000000 ) ) ;
#692 = CARTESIAN_POINT ( 'NONE',  ( 0.1749999999999999600, 0.1200000000000000000, -0.1749999999999999900 ) ) ;
#693 = CARTESIAN_POINT ( 'NONE',  ( -0.1750000000000000200, 0.09750000000000000300, -0.1749999999999999900 ) ) ;
#694 = EDGE_LOOP ( 'NONE', ( #72, #264 ) ) ;
#695 = APPLICATION_PROTOCOL_DEFINITION ( 'draft international standard', 'automotive_design', 1998, #379 ) ;
#696 = CIRCLE ( 'NONE', #644, 0.07499999999999998300 ) ;
#697 = VERTEX_POINT ( 'NONE', #481 ) ;
#698 = ORIENTED_EDGE ( 'NONE', *, *, #547, .T. ) ;
#699 = CYLINDRICAL_SURFACE ( 'NONE', #122, 0.07499999999999998300 ) ;
#700 = DIRECTION ( 'NONE',  ( 0.0000000000000000000, 1.000000000000000000, 0.0000000000000000000 ) ) ;
#701 = STYLED_ITEM ( 'NONE', ( #43 ), #523 ) ;
#702 = DIRECTION ( 'NONE',  ( 1.224646799147353200E-016, -1.000000000000000000, 1.702262461747408900E-032 ) ) ;
#703 = PRODUCT_DEFINITION_CONTEXT ( 'detailed design', #145, 'design' ) ;
#704 =( GEOMETRIC_REPRESENTATION_CONTEXT ( 3 ) GLOBAL_UNCERTAINTY_ASSIGNED_CONTEXT ( ( #298 ) ) GLOBAL_UNIT_ASSIGNED_CONTEXT ( ( #564, #467, #312 ) ) REPRESENTATION_CONTEXT ( 'NONE', 'WORKASPACE' ) );
#705 = ORIENTED_EDGE ( 'NONE', *, *, #322, .F. ) ;
#706 = DIRECTION ( 'NONE',  ( 1.000000000000000000, 0.0000000000000000000, -0.0000000000000000000 ) ) ;
#707 = EDGE_CURVE ( 'NONE', #385, #407, #575, .T. ) ;
#708 = CIRCLE ( 'NONE', #320, 0.09750000000000004500 ) ;
#709 = CARTESIAN_POINT ( 'NONE',  ( -0.1750000000000000200, 0.1200000000000000000, -0.1749999999999999900 ) ) ;
#710 = SURFACE_STYLE_USAGE ( .BOTH. , #662 ) ;
#711 = ORIENTED_EDGE ( 'NONE', *, *, #360, .T. ) ;
#712 = CARTESIAN_POINT ( 'NONE',  ( -0.1974999999999998100, 0.2799999999999999700, -0.2725000000000000200 ) ) ;
#713 = AXIS2_PLACEMENT_3D ( 'NONE', #656, #345, #285 ) ;
#714 =( NAMED_UNIT ( * ) SI_UNIT ( $, .STERADIAN. ) SOLID_ANGLE_UNIT ( ) );
#715 = EDGE_CURVE ( 'NONE', #392, #119, #383, .T. ) ;
#716 = CARTESIAN_POINT ( 'NONE',  ( 0.3225000000000001200, -0.9121677477306462400, 0.3224999999999999000 ) ) ;
#717 = CARTESIAN_POINT ( 'NONE',  ( 0.3225000000000001200, -0.9121677477306462400, 0.3224999999999999000 ) ) ;
ENDSEC;
END-ISO-10303-21;
