<svg id="Layer_1" data-name="Layer 1" xmlns="http://www.w3.org/2000/svg" xmlns:xlink="http://www.w3.org/1999/xlink" viewBox="0 0 1920 1080"><defs><style>.cls-1{fill:url(#linear-gradient);}.cls-12,.cls-2{fill:none;}.cls-10,.cls-11,.cls-2,.cls-28,.cls-3,.cls-4,.cls-5,.cls-6,.cls-7,.cls-8,.cls-9{stroke:#000;}.cls-10,.cls-11,.cls-12,.cls-2,.cls-28,.cls-3,.cls-4,.cls-5,.cls-6,.cls-7,.cls-8,.cls-9{stroke-miterlimit:10;}.cls-3{fill:url(#linear-gradient-2);}.cls-4{fill:#ffd417;}.cls-5{fill:url(#linear-gradient-3);}.cls-6{fill:url(#linear-gradient-4);}.cls-7{fill:url(#linear-gradient-5);}.cls-8{fill:url(#linear-gradient-6);}.cls-9{fill:url(#linear-gradient-7);}.cls-10{fill:url(#linear-gradient-8);}.cls-11{fill:url(#linear-gradient-9);}.cls-12{stroke:#fff;stroke-width:2px;}.cls-13{font-size:46px;fill:#fff;font-family:MyriadPro-Regular, Myriad Pro;}.cls-14{letter-spacing:-0.01em;}.cls-15{letter-spacing:-0.03em;}.cls-16{letter-spacing:-0.04em;}.cls-17{letter-spacing:-0.07em;}.cls-18{letter-spacing:0.01em;}.cls-19{letter-spacing:0em;}.cls-20{letter-spacing:-0.02em;}.cls-21{letter-spacing:0em;}.cls-22{letter-spacing:-0.01em;}.cls-23{letter-spacing:-0.01em;}.cls-24{letter-spacing:0.01em;}.cls-25{letter-spacing:-0.01em;}.cls-26{letter-spacing:0em;}.cls-27{letter-spacing:0em;}.cls-28{fill:url(#linear-gradient-10);}</style><linearGradient id="linear-gradient" x1="0.5" y1="539.5" x2="1920.5" y2="539.5" gradientUnits="userSpaceOnUse"><stop offset="0" stop-color="#010e1e"/><stop offset="0.08" stop-color="#010e1e"/><stop offset="0.56" stop-color="#010e1e"/><stop offset="0.78" stop-color="#010e1e"/><stop offset="0.97" stop-color="#010e1e"/><stop offset="1" stop-color="#010e1e"/></linearGradient><linearGradient id="linear-gradient-2" x1="1192.2" y1="506.99" x2="1137.15" y2="658.23" gradientUnits="userSpaceOnUse"><stop offset="0" stop-color="#cce0f4"/><stop offset="0.05" stop-color="#cedceb"/><stop offset="0.14" stop-color="#d4d2d1"/><stop offset="0.25" stop-color="#ddc0a8"/><stop offset="0.39" stop-color="#eba96e"/><stop offset="0.54" stop-color="#fb8b25"/><stop offset="0.57" stop-color="#ff8415"/><stop offset="0.87" stop-color="#ff8415"/><stop offset="1" stop-color="#ff8415"/></linearGradient><linearGradient id="linear-gradient-3" x1="1099.75" y1="688.24" x2="1163.15" y2="609.94" gradientUnits="userSpaceOnUse"><stop offset="0.01" stop-color="#81a2b0"/><stop offset="0.13" stop-color="#81a2b0"/><stop offset="0.43" stop-color="#81a2b0"/><stop offset="0.68" stop-color="#a9c3d4"/><stop offset="0.88" stop-color="#c3d8eb"/><stop offset="1" stop-color="#cce0f4"/></linearGradient><linearGradient id="linear-gradient-4" x1="980.71" y1="714.97" x2="1180.86" y2="649.94" gradientUnits="userSpaceOnUse"><stop offset="0" stop-color="#17ac09"/><stop offset="0.14" stop-color="#17ac09"/><stop offset="0.43" stop-color="#17ac09"/><stop offset="0.48" stop-color="#2db225"/><stop offset="0.63" stop-color="#65c26e"/><stop offset="0.75" stop-color="#91cfa8"/><stop offset="0.86" stop-color="#b1d8d1"/><stop offset="0.95" stop-color="#c5deeb"/><stop offset="1" stop-color="#cce0f4"/></linearGradient><linearGradient id="linear-gradient-5" x1="661.77" y1="370.65" x2="1256.5" y2="370.65" gradientUnits="userSpaceOnUse"><stop offset="0.01" stop-color="#41beee"/><stop offset="0.13" stop-color="#41beee"/><stop offset="0.43" stop-color="#41beee"/><stop offset="0.45" stop-color="#47bfee"/><stop offset="0.64" stop-color="#80cdf1"/><stop offset="0.8" stop-color="#a9d7f2"/><stop offset="0.92" stop-color="#c3def4"/><stop offset="1" stop-color="#cce0f4"/></linearGradient><linearGradient id="linear-gradient-6" x1="619.5" y1="668.03" x2="1002.35" y2="668.03" gradientUnits="userSpaceOnUse"><stop offset="0" stop-color="#483d6b"/><stop offset="0.14" stop-color="#483d6b"/><stop offset="0.43" stop-color="#483d6b"/><stop offset="0.51" stop-color="#605b84"/><stop offset="0.68" stop-color="#8e94b4"/><stop offset="0.82" stop-color="#b0bdd7"/><stop offset="0.93" stop-color="#c4d7ec"/><stop offset="1" stop-color="#cce0f4"/></linearGradient><linearGradient id="linear-gradient-7" x1="1052.56" y1="705.08" x2="639.23" y2="538.08" gradientUnits="userSpaceOnUse"><stop offset="0" stop-color="#cce0f4"/><stop offset="0.07" stop-color="#c4d7ec"/><stop offset="0.18" stop-color="#b0bdd7"/><stop offset="0.32" stop-color="#8e94b4"/><stop offset="0.49" stop-color="#605b84"/><stop offset="0.57" stop-color="#483d6b"/><stop offset="0.86" stop-color="#483d6b"/><stop offset="1" stop-color="#483d6b"/></linearGradient><linearGradient id="linear-gradient-8" x1="979.93" y1="830.22" x2="1233.5" y2="830.22" xlink:href="#linear-gradient-4"/><linearGradient id="linear-gradient-9" x1="618.22" y1="370.5" x2="828.5" y2="370.5" xlink:href="#linear-gradient-5"/><linearGradient id="linear-gradient-10" x1="1162.19" y1="572.91" x2="1146.53" y2="461.49" gradientUnits="userSpaceOnUse"><stop offset="0.01" stop-color="#010e1e"/><stop offset="0.13" stop-color="#010e1e"/><stop offset="0.43" stop-color="#010e1e"/><stop offset="0.5" stop-color="#061323"/><stop offset="0.58" stop-color="#142132"/><stop offset="0.66" stop-color="#2a394a"/><stop offset="0.75" stop-color="#4a5a6b"/><stop offset="0.84" stop-color="#738497"/><stop offset="0.93" stop-color="#a5b8cb"/><stop offset="1" stop-color="#cce0f4"/></linearGradient></defs><rect class="cls-1" x="0.5" y="-0.5" width="1920" height="1080"/><path class="cls-2" d="M1300.5,567.5c-10-178-206-347-368-349C758,210.91,602.17,340.28,619.94,509.38a260.89,260.89,0,0,0,4.56,28.12c31,151,134,259,314,314C1123.5,883.5,1321.5,755.5,1300.5,567.5Z"/><path class="cls-2" d="M619.5,508.5l43-28c-8-76,34.56-189.29,125.78-231.65"/><path class="cls-2" d="M960.32,854.53l43.18-27c-214.8-31-335.78-230.63-341-346.68,0-.11,0-.21,0-.32l321,42"/><path class="cls-2" d="M983.5,522.5l20,305c65,10,138-7,182-32,25-15,46.56-31.43,53.28-41.22"/><line class="cls-2" x1="1185.5" y1="795.5" x2="1002.5" y2="538.5"/><line class="cls-2" x1="1299.89" y1="626.52" x2="1003.5" y2="536.5"/><path class="cls-3" d="M1001.75,536.52l292.75,179c11-25,35-71,20-164l-312.75-15"/><path class="cls-4" d="M984.06,522.68S1154.85,310.46,1155.18,310"/><path class="cls-5" d="M1018.5,546.5l-16-11,226,257c25-19,40-37,65-77Z"/><path class="cls-6" d="M1019.5,556.5l-16.65-19.57L1021.5,840.5c66,14,165-13,206-47Z"/><path class="cls-7" d="M954.5,518.5l29,4,273-93c-218-338-614-231-594,51Z"/><path class="cls-8" d="M619.5,509.5s38-24.88,43-27.94c-2,10.94,41,293.94,339.87,346.18C989.5,836.5,984.5,839.5,961.5,854.5,788.5,826.5,638.5,681.5,619.5,509.5Z"/><path class="cls-9" d="M986.5,574.5l-3-52-321-42c5,94,106,315,341,346Z"/><path class="cls-10" d="M979.93,868.53s39.64-25.87,42.1-26.95c89.47,14.92,176-20.78,211.47-52.08C1190,839.8,1063.37,881.57,979.93,868.53Z"/><path class="cls-11" d="M828.5,230.5c-192,58-217,212-209,280,30-23,43-30,43-30S646.5,293.5,828.5,230.5Z"/><polyline class="cls-12" points="688.5 742.5 609.5 795.5 212 795.5"/><polyline class="cls-12" points="675 270 610 211 196 211"/><polyline class="cls-12" points="1316 466 1382 406 1676 406"/><line class="cls-12" x1="1369" y1="602" x2="1619" y2="602"/><line class="cls-12" x1="1341" y1="736" x2="1605" y2="736"/><polyline class="cls-12" points="1142 872 1203 914 1590 914"/><text class="cls-13" transform="translate(1340.75 724.4)"><tspan class="cls-14">A</tspan><tspan x="27.6" y="0">dvisors: 2 %</tspan></text><text class="cls-13" transform="translate(1379.26 392.79)"><tspan class="cls-15">F</tspan><tspan x="20.98" y="0">ounders: 4 %</tspan></text><text class="cls-13" transform="translate(1231.83 899.69)">Building<tspan class="cls-16" x="159.85" y="0"> </tspan><tspan class="cls-17" x="167.71" y="0">T</tspan><tspan x="187.31" y="0">eam: 5 %</tspan></text><text class="cls-13" transform="translate(1368.81 590.08)"><tspan class="cls-18">M</tspan><tspan x="37.26" y="0">a</tspan><tspan class="cls-19" x="59.43" y="0">r</tspan><tspan x="74.66" y="0">keting: 5 %</tspan></text><text class="cls-13" transform="translate(211.81 781.66)"><tspan class="cls-20">P</tspan><tspan x="23.78" y="0">ublic </tspan><tspan class="cls-21" x="127.28" y="0">S</tspan><tspan x="150.09" y="0">ale: 36 %</tspan></text><text class="cls-13" transform="translate(195.81 198.33)">Esc<tspan class="cls-22" x="61.46" y="0">r</tspan><tspan class="cls-23" x="76.04" y="0">o</tspan><tspan x="100.97" y="0">w Ne</tspan><tspan class="cls-24" x="197.89" y="0">t</tspan><tspan class="cls-25" x="213.53" y="0">w</tspan><tspan x="246.93" y="0">o</tspan><tspan class="cls-26" x="272.18" y="0">r</tspan><tspan x="287.41" y="0">k </tspan><tspan class="cls-26" x="318.73" y="0">R</tspan><tspan x="343.66" y="0">e</tspan><tspan class="cls-27" x="366.71" y="0">w</tspan><tspan x="400.38" y="0">a</tspan><tspan class="cls-22" x="422.55" y="0">r</tspan><tspan x="437.14" y="0">ds: 48 %</tspan></text><path class="cls-28" d="M1002.5,536.5l272-93c22,45,38,79,40,108l-312.38-14.91-.62-.09"/></svg>